<?xml version="1.0" standalone="no"?>
<!DOCTYPE svg PUBLIC "-//W3C//DTD SVG 1.1//EN" "http://www.w3.org/Graphics/SVG/1.1/DTD/svg11.dtd" >
<svg xmlns="http://www.w3.org/2000/svg" xmlns:xlink="http://www.w3.org/1999/xlink" version="1.1">
<metadata>
Created by FontForge 20170731 at Fri Dec  4 22:28:53 2020
 By Aleksey,,,
</metadata>
<defs>
<font id="Icomoon" horiz-adv-x="2048" >
  <font-face 
    font-family="Icomoon"
    font-weight="400"
    font-stretch="normal"
    units-per-em="2048"
    panose-1="2 0 5 3 0 0 0 0 0 0"
    ascent="1920"
    descent="-128"
    x-height="1792"
    cap-height="1920"
    bbox="-64 -142 2560 2048"
    underline-thickness="0"
    underline-position="0"
    unicode-range="U+0020-F000"
  />
<missing-glyph 
 />
    <glyph glyph-name=".notdef" 
 />
    <glyph glyph-name=".notdef" 
 />
    <glyph glyph-name=".null" horiz-adv-x="0" 
 />
    <glyph glyph-name="nonmarkingreturn" horiz-adv-x="682" 
 />
    <glyph glyph-name="uniF000" unicode="&#xf000;" horiz-adv-x="0" 
d="M0 1920l2048 -2048h-2048v2048z" />
    <glyph glyph-name="exclam" unicode="!" 
d="M2048 739l-1024 795l-1024 -795v324l1024 795l1024 -795v-324zM1792 768v-768h-1536v768l768 576z" />
    <glyph glyph-name="quotedbl" unicode="&#x22;" 
d="M2048 739l-1024 795l-1024 -795v324l1024 795l1024 -795v-324zM1792 768v-768h-512v512h-512v-512h-512v768l768 576z" />
    <glyph glyph-name="numbersign" unicode="#" 
d="M2048 704l-384 384v576h-256v-320l-384 384l-1024 -1024v-64h256v-640h640v384h256v-384h640v640h256v64z" />
    <glyph glyph-name="dollar" unicode="$" 
d="M1024 1792l-1024 -1024h256l768 768l768 -768h256zM384 640v-640h512v512h256v-512h512v640l-640 640z" />
    <glyph glyph-name="percent" unicode="%" 
d="M1024 1664l-1024 -896h256v-640h512v384h512v-384h512v640h256zM960 768h-192v192h192v-192zM960 1088h-192v192h192v-192zM1280 768h-192v192h192v-192zM1280 1088h-192v192h192v-192z" />
    <glyph glyph-name="ampersand" unicode="&#x26;" 
d="M1792 768v-768h-1536v768h256v-512h1024v512h256zM2048 739l-1024 795l-1024 -795v324l1024 795l1024 -795v-324z" />
    <glyph glyph-name="quotesingle" unicode="'" 
d="M0 -128h128l384 640h384q78 0 156 55t149 151t143 215t151.5 256.5t160.5 266t184 254t208 210.5q-232 0 -452.5 -74t-399.5 -197t-344 -294t-292 -353.5t-238 -388.5t-187 -385t-135 -356zM784 768h-144q7 13 21 37t61.5 95.5t99.5 140.5t133.5 162t166 172t194 158
t220.5 131q-20 -18 -54 -49.5t-132.5 -131t-187.5 -200t-196.5 -243t-181.5 -272.5z" />
    <glyph glyph-name="parenleft" unicode="(" 
d="M768 747q9 5 24 13.5t62 32t93.5 43.5t110.5 41t121.5 31.5t118.5 8.5t108 -22q62 94 140 230q-100 24 -230.5 25.5t-211.5 -8.5l-80 -11q5 3 13.5 8t36.5 20t57 28.5t71.5 31.5t83 32.5t88.5 26.5t91.5 18t89 4t82.5 -13q17 31 64 116.5t72 128.5q-96 5 -177 1.5
t-134 -11.5l-54 -7q10 6 27 15.5t70 35.5t104.5 47t121.5 41.5t130 27.5q114 184 187 238q-232 0 -452.5 -74t-399.5 -197t-344 -294t-292 -353.5t-238 -388.5t-187 -385t-135 -356h128l384 640q5 -5 16 -13t54 -23t96 -20t145.5 7.5t200.5 48.5q123 41 271 228
q-100 25 -231.5 27t-213.5 -9z" />
    <glyph glyph-name="parenright" unicode=")" 
d="M1856 1152l-576 576l192 192l576 -576zM1216 1536l448 -448l-256 -704l-1152 -512l-83 83l690 689q15 -4 33 -4q53 0 90.5 37.5t37.5 90.5t-37.5 90.5t-90.5 37.5t-90.5 -37.5t-37.5 -90.5q0 -18 4 -33l-689 -690l-83 83l512 1152z" />
    <glyph glyph-name="asterisk" unicode="*" 
d="M1920 1344l-448 448l128 128l448 -448zM1792 1216l-64 -704q-118 0 -259 -35.5t-272.5 -91.5t-263.5 -124.5t-240.5 -137t-193.5 -124.5t-132 -91l-47 -36l-106 106l547 548q34 -14 71 -14q80 0 136 56t56 136t-56 136t-136 56t-136 -56t-56 -136q0 -37 14 -71l-548 -547
l-106 106q13 17 36 48.5t89.5 129t127 196t134.5 237.5t127 266.5t89.5 270t36.5 260.5l704 64z" />
    <glyph glyph-name="plus" unicode="+" 
d="M1280 1664l64 256h-768l64 -256h640zM1280 1536h-640l-320 -640l512 -1024h64v896q-52 0 -90 38t-38 90v128q0 52 38 90t90 38h128q52 0 90 -38t38 -90v-128q0 -52 -38 -90t-90 -38v-896h64l512 1024z" />
    <glyph glyph-name="comma" unicode="," 
d="M1304 1607l104 313h-896l104 -313l-296 -711l512 -1024h256l512 1024zM1230 1792l-42 -128h-456l-42 128h540zM1024 30v749q57 20 92.5 69.5t35.5 111.5q0 80 -56 136t-136 56t-136 -56t-56 -136q0 -62 35.5 -111.5t92.5 -69.5v-749l-435 871l264 635h470l264 -635z" />
    <glyph glyph-name="hyphen" unicode="-" 
d="M1024 1568q-100 -104 -183 -206q-320 -399 -329 -704v-6v-2v-1v-9v-8v-2q5 -210 153 -355q149 -147 359 -147t359 147q148 145 153 355v0v10v9v0v1v2v5v1q-9 305 -329 704q-83 102 -183 206zM1024 1920q16 -13 43 -37t105 -101t149 -157.5t159 -199.5t152 -235
t110 -255.5t50 -268.5v-9v-4v-13v-14v-1q-3 -154 -65 -293.5t-164.5 -240t-243.5 -160t-295 -59.5t-295 59.5t-243.5 160t-164.5 240t-65 293.5v1v14v13v4v9q4 129 48.5 267.5t112.5 257.5t149.5 233t162 202t146.5 155.5t107 102.5z" />
    <glyph glyph-name="period" unicode="." 
d="M1664 1536v128q0 52 -38 90t-90 38h-1408q-52 0 -90 -38t-38 -90v-384q0 -52 38 -90t90 -38h1408q52 0 90 38t38 90v128h256v-512h-1152v-256h-64q-26 0 -45 -19t-19 -45v-640q0 -26 19 -45t45 -19h256q26 0 45 19t19 45v640q0 26 -19 45t-45 19h-64v128h1152v768h-384z
M140 1536h-12v128h12v-128zM204 1536h-32v128h32v-128zM268 1536h-32v128h32v-128zM332 1536h-32v128h32v-128zM396 1536h-32v128h32v-128zM460 1536h-32v128h32v-128zM524 1536h-32v128h32v-128zM588 1536h-32v128h32v-128zM652 1536h-32v128h32v-128zM716 1536h-32v128h32
v-128zM780 1536h-32v128h32v-128zM844 1536h-32v128h32v-128zM908 1536h-32v128h32v-128zM972 1536h-32v128h32v-128zM1036 1536h-32v128h32v-128zM1100 1536h-32v128h32v-128zM1164 1536h-32v128h32v-128zM1228 1536h-32v128h32v-128zM1292 1536h-32v128h32v-128z
M1356 1536h-32v128h32v-128zM1420 1536h-32v128h32v-128zM1484 1536h-32v128h32v-128zM1536 1536h-20v128h20v-128z" />
    <glyph glyph-name="slash" unicode="/" 
d="M2048 768v768h-384v128q0 52 -38 90t-90 38h-1408q-52 0 -90 -38t-38 -90v-384q0 -52 38 -90t90 -38h1408q52 0 90 38t38 90v128h256v-512h-1152v-256h-64q-26 0 -45 -19t-19 -45v-640q0 -26 19 -45t45 -19h256q26 0 45 19t19 45v640q0 26 -19 45t-45 19h-64v128h1152z
M1536 1536h-1408v128h1408v-128z" />
    <glyph glyph-name="zero" unicode="0" 
d="M1792 1536h-1536v-1280h1536v1280zM2048 1792v-1792h-2048v1792h2048zM1664 384h-1280v256l384 640l526 -640l370 256v-128v-384zM1280 1216q0 80 56 136t136 56t136 -56t56 -136t-56 -136t-136 -56t-136 56t-56 136z" />
    <glyph glyph-name="one" unicode="1" 
d="M0 1664v-1664h2048v1664h-2048zM1920 128h-1792v1408h1792v-1408zM1408 1216q0 80 56 136t136 56t136 -56t56 -136t-56 -136t-136 -56t-136 56t-56 136zM1792 256h-1536l384 1024l512 -640l256 192z" />
    <glyph glyph-name="two" unicode="2" 
d="M0 1664v-1536h2048v1536h-2048zM1920 256h-128l-384 576l-256 -192l-512 640l-384 -1024h-128v1280h1792v-1280zM1408 1216q0 80 56 136t136 56t136 -56t56 -136t-56 -136t-136 -56t-136 56t-56 136z" />
    <glyph glyph-name="three" unicode="3" 
d="M1920 1920h128v-1472q0 -133 -131.5 -226.5t-316.5 -93.5t-316.5 93.5t-131.5 226.5t131.5 226.5t316.5 93.5q188 0 320 -96v736l-1024 -228v-988q0 -133 -131.5 -226.5t-316.5 -93.5t-316.5 93.5t-131.5 226.5t131.5 226.5t316.5 93.5q188 0 320 -96v1248z" />
    <glyph glyph-name="four" unicode="4" 
d="M1920 1920l-1152 -256v-1248q-132 96 -320 96q-185 0 -316.5 -93.5t-131.5 -226.5t131.5 -226.5t316.5 -93.5t316.5 93.5t131.5 226.5v827l1024 227v-574q-132 96 -320 96q-185 0 -316.5 -93.5t-131.5 -226.5t131.5 -226.5t316.5 -93.5t316.5 93.5t131.5 226.5v1472h-128
zM448 24q-122 0 -209 53t-87 115t87 115t209 53t209 -53t87 -115t-87 -115t-209 -53zM1600 280q-122 0 -209 53t-87 115t87 115t209 53t209 -53t87 -115t-87 -115t-209 -53zM1920 1410l-1024 -227v253l1024 228v-254z" />
    <glyph glyph-name="five" unicode="5" 
d="M0 1920v-2048h1920v2048h-1920zM384 0h-256v1792h128v-1280h128v-512zM896 0h-384v512h128v1280h128v-1280h128v-512zM1408 0h-384v512h128v1280h128v-1280h128v-512zM1792 0h-256v512h128v1280h128v-1792z" />
    <glyph glyph-name="six" unicode="6" 
d="M1760 1408l288 256q-18 97 -88.5 167.5t-167.5 88.5l-256 -288v-68l-363 -363q-240 197 -403 63q-35 -29 -65 -80.5t-52.5 -98t-40.5 -62.5q-24 -22 -68.5 -32.5t-96 -16.5t-107.5 -18.5t-119.5 -48t-116.5 -93.5q-64 -70 -87.5 -147t-13.5 -145.5t49 -143t86.5 -133.5
t111.5 -123t123 -111.5t133.5 -86.5t143 -49t145.5 13.5t147 87.5q58 53 93.5 116.5t48 119.5t18.5 107.5t16.5 96t32.5 68.5q16 18 62.5 40.5t98 52.5t80.5 65q134 163 -63 403l363 363h68zM586 202l-256 256l108 108l256 -256zM960 640q-80 0 -136 56t-56 136t56 136
t136 56t136 -56t56 -136t-56 -136t-136 -56z" />
    <glyph glyph-name="seven" unicode="7" 
d="M384 763v-886q35 -5 64 -5h64v896h-64q-29 0 -64 -5zM1536 768v-896h64q29 0 64 5v886q-35 5 -64 5h-64zM2048 896q0 209 -81 398.5t-218 326.5t-326.5 218t-398.5 81t-398.5 -81t-326.5 -218t-218 -326.5t-81 -398.5q0 -184 61 -350q-61 -103 -61 -226q0 -132 70.5 -241
t185.5 -164v810q-60 -28 -110 -74q-18 87 -18 181q0 182 71 348t191 286t286 191t348 71t348 -71t286 -191t191 -286t71 -348q0 -94 -18 -181q-50 46 -110 74v-810q115 55 185.5 164t70.5 241q0 123 -61 226q61 166 61 350z" />
    <glyph glyph-name="eight" unicode="8" 
d="M1024 1664q-182 0 -348 -71t-286 -191t-191 -286t-71 -348v-384h128v384q0 124 39 229t109 180t166.5 127.5t211 78t242.5 25.5t242.5 -25.5t211 -78t166.5 -127.5t109 -180t39 -229v-384h128v384q0 182 -71 348t-191 286t-286 191t-348 71zM555 768h-86q-35 0 -60 -25
t-25 -60v-470q0 -35 25 -60t60 -25h86q35 0 60 25t25 60v470q0 35 -25 60t-60 25zM1579 768h-86q-35 0 -60 -25t-25 -60v-470q0 -35 25 -60t60 -25h86q35 0 60 25t25 60v470q0 35 -25 60t-60 25z" />
    <glyph glyph-name="nine" unicode="9" 
d="M1728 1536h-1024q-132 0 -226 -94t-94 -226v-1024q0 -132 94 -226t226 -94h1024q132 0 226 94t94 226v1024q0 132 -94 226t-226 94zM832 128q-80 0 -136 56t-56 136t56 136t136 56t136 -56t56 -136t-56 -136t-136 -56zM832 896q-80 0 -136 56t-56 136t56 136t136 56
t136 -56t56 -136t-56 -136t-136 -56zM1216 512q-80 0 -136 56t-56 136t56 136t136 56t136 -56t56 -136t-56 -136t-136 -56zM1600 128q-80 0 -136 56t-56 136t56 136t136 56t136 -56t56 -136t-56 -136t-136 -56zM1600 896q-80 0 -136 56t-56 136t56 136t136 56t136 -56
t56 -136t-56 -136t-136 -56zM1658 1664q-23 110 -111 183t-203 73h-1024q-132 0 -226 -94t-94 -226v-1024q0 -115 73 -203t183 -111v1274q0 52 38 90t90 38h1274z" />
    <glyph glyph-name="colon" unicode=":" 
d="M640 1280h-128v-128h-128v-128h128v-128h128v128h128v128h-128v128zM1280 1184q0 40 28 68t68 28t68 -28t28 -68t-28 -68t-68 -28t-68 28t-28 68zM1472 992q0 40 28 68t68 28t68 -28t28 -68t-28 -68t-68 -28t-68 28t-28 68zM1479 1576q-64 0 -117.5 -14t-90.5 -34
t-72 -40.5t-79.5 -34.5t-95.5 -14t-95.5 14t-79.5 34.5t-72 40.5t-90.5 34t-117.5 14q-108 0 -202.5 -50.5t-160.5 -132.5t-113.5 -185.5t-70 -210.5t-22.5 -208q0 -256 31.5 -400.5t113.5 -167.5q42 -11 91 2t104.5 50.5t103 77.5t110.5 99q41 39 71 62.5t51 37.5t47 19.5
t42 6.5t54 1h20l185 -4l185 4h20q37 0 54 -1t42.5 -6.5t46.5 -19.5t51 -37.5t71 -62.5q63 -59 110.5 -99t103 -77.5t104.5 -50.5t91 -2q82 23 113.5 167.5t31.5 400.5q0 101 -22.5 208t-70 210.5t-113.5 185.5t-160.5 132.5t-202.5 50.5zM576 768q-133 0 -226.5 93.5
t-93.5 226.5t93.5 226.5t226.5 93.5t226.5 -93.5t93.5 -226.5t-93.5 -226.5t-226.5 -93.5zM1472 768q-133 0 -226.5 93.5t-93.5 226.5t93.5 226.5t226.5 93.5t226.5 -93.5t93.5 -226.5t-93.5 -226.5t-226.5 -93.5z" />
    <glyph glyph-name="semicolon" unicode=";" 
d="M1904 1288q-77 126 -185 200q-121 82 -264 82q-60 0 -114.5 -13.5t-81.5 -26t-71 -37.5q-33 -19 -52 -28t-49 -17t-63 -8t-63 8t-49 17t-52 28q-44 25 -71 37.5t-81.5 26t-114.5 13.5q-143 0 -264 -82q-108 -74 -185 -200q-68 -111 -106 -248t-38 -269q0 -249 29 -380
q40 -180 148 -210q28 -7 50 -7q85 0 177 62t211 175q79 75 112 90.5t87 15.5h15h19l176 -4l176 4h19h15q54 0 87 -15.5t112 -90.5q119 -113 211 -175t177 -62q26 0 50 6q107 29 148 211q29 131 29 380q0 132 -38 269t-106 248zM1894 418q-22 -104 -57 -114q-10 -2 -16 -2
q-30 0 -70.5 20t-88 58.5t-74.5 62t-67 61.5q-92 86 -149 115q-54 26 -138 26h-16h-18h-1h-2l-173 -4l-173 4h-2h-1h-18h-16q-84 0 -138 -26q-57 -29 -149 -115q-40 -38 -67 -61.5t-74.5 -62t-88 -58.5t-70.5 -20q-6 0 -16 2q-35 10 -57 114q-26 116 -26 353q0 113 34 235
t91 215q64 105 147 161q88 60 193 60q46 0 85 -9.5t61 -20t59 -31.5q38 -22 63 -34t70 -23.5t93 -11.5t93 11.5t70 23.5t63 34q37 21 59 31.5t61 20t85 9.5q104 0 193 -60q83 -56 147 -161q57 -93 91 -215t34 -235q0 -237 -26 -353zM1280 1152q0 53 37.5 90.5t90.5 37.5
t90.5 -37.5t37.5 -90.5t-37.5 -90.5t-90.5 -37.5t-90.5 37.5t-37.5 90.5zM1536 896q0 53 37.5 90.5t90.5 37.5t90.5 -37.5t37.5 -90.5t-37.5 -90.5t-90.5 -37.5t-90.5 37.5t-37.5 90.5zM512 1152q53 0 90.5 -37.5t37.5 -90.5t-37.5 -90.5t-90.5 -37.5t-90.5 37.5t-37.5 90.5
t37.5 90.5t90.5 37.5zM512 1280q-106 0 -181 -75t-75 -181t75 -181t181 -75t181 75t75 181t-75 181t-181 75z" />
    <glyph glyph-name="less" unicode="&#x3c;" 
d="M1600 1280h-1152q-185 0 -316.5 -131.5t-131.5 -316.5t131.5 -316.5t316.5 -131.5q132 0 241 70.5t164 185.5h342q55 -115 164 -185.5t241 -70.5q185 0 316.5 131.5t131.5 316.5t-131.5 316.5t-316.5 131.5zM676 768h-164v-164h-128v164h-164v128h164v164h128v-164h164
v-128zM1472 604q-41 0 -70.5 29.5t-29.5 70.5t29.5 70.5t70.5 29.5t70.5 -29.5t29.5 -70.5t-29.5 -70.5t-70.5 -29.5zM1728 860q-41 0 -70.5 29.5t-29.5 70.5t29.5 70.5t70.5 29.5t70.5 -29.5t29.5 -70.5t-29.5 -70.5t-70.5 -29.5z" />
    <glyph glyph-name="equal" unicode="=" 
d="M1929 1562q-144 168 -346 263t-431 95q-209 0 -398.5 -81t-326.5 -218t-218 -326.5t-81 -398.5t81 -398.5t218 -326.5t326.5 -218t398.5 -81q229 0 431 95t346 263l-649 666zM1408 1679q59 0 101 -42t42 -101t-42 -101t-101 -42t-101 42t-42 101t42 101t101 42z" />
    <glyph glyph-name="greater" unicode="&#x3e;" 
d="M1635 1224q-111 83 -203.5 167t-152.5 150t-112.5 141t-81 124t-61.5 114v0q-33 -65 -61.5 -114t-81 -124t-112.5 -141t-152.5 -150t-203.5 -167q-241 -179 -279 -399q-29 -173 73 -316q91 -128 247 -173q194 -57 389 43q39 20 77 46q-26 -167 -104 -293.5t-176 -184.5
v-75h384h384v75q-98 58 -176 184.5t-104 293.5q196 -135 405 -103q167 26 277 148q114 126 110 293q-6 211 -204 394q-37 34 -81 67z" />
    <glyph glyph-name="question" unicode="?" 
d="M2048 896q0 209 -81 398.5t-218 326.5t-326.5 218t-398.5 81t-398.5 -81t-326.5 -218t-218 -326.5t-81 -398.5q0 -216 85.5 -410.5t236 -336t345.5 -213.5l-27 -64h768l-27 64q195 72 345.5 213.5t236 336t85.5 410.5zM974 650q-35 15 -56.5 47t-21.5 71q0 53 37.5 90.5
t90.5 37.5t90.5 -37.5t37.5 -90.5q0 -39 -21.5 -71t-56.5 -47l-50 118zM1077 645q88 18 145.5 88.5t57.5 162.5q0 106 -75 181t-181 75t-181 -75t-75 -181q0 -91 58 -161.5t146 -88.5l-150 -349q-139 59 -224.5 187t-85.5 284q0 105 40.5 203t109 171.5t163.5 117.5t199 44
t199 -44t163.5 -117.5t109 -171.5t40.5 -203q0 -156 -85.5 -284t-224.5 -187zM1377 -55l-148 345q192 65 313.5 231t121.5 375q0 130 -51 248.5t-136.5 204t-204 136.5t-248.5 51t-248.5 -51t-204 -136.5t-136.5 -204t-51 -248.5q0 -209 121.5 -375t313.5 -231l-148 -345
q-243 104 -393 327t-150 496q0 146 45 285t128 253t193 200.5t247 134t283 47.5t283 -47.5t247 -134t193 -200.5t128 -253t45 -285q0 -273 -150 -496t-393 -327z" />
    <glyph glyph-name="at" unicode="@" 
d="M1280 1280q0 106 -75 181t-181 75t-181 -75t-75 -181q0 -67 32 -124.5t86 -91.5l-325 -1192h158l35 128h540l35 -128h158l-325 1192q54 34 86 91.5t32 124.5zM1190 384h-332l35 128h262zM928 640l96 351l96 -351h-192zM789 128l35 128h400l35 -128h-470zM1329 1843
q152 -82 243.5 -232.5t91.5 -330.5t-91.5 -330.5t-243.5 -232.5q67 107 105 253t38 310t-38 310t-105 253zM1713 1843q152 -82 243.5 -232.5t91.5 -330.5t-91.5 -330.5t-243.5 -232.5q67 107 105 253t38 310t-38 310t-105 253zM719 717q-152 82 -243.5 232.5t-91.5 330.5
t91.5 330.5t243.5 232.5q-67 -107 -105 -253t-38 -310t38 -310t105 -253zM0 1280q0 180 91.5 330.5t243.5 232.5q-67 -107 -105 -253t-38 -310t38 -310t105 -253q-152 82 -243.5 232.5t-91.5 330.5z" />
    <glyph glyph-name="A" unicode="A" 
d="M768 896q0 106 75 181t181 75t181 -75t75 -181t-75 -181t-181 -75t-181 75t-75 181zM1329 1459q152 -82 243.5 -232.5t91.5 -330.5t-91.5 -330.5t-243.5 -232.5q67 107 105 253t38 310t-38 310t-105 253zM576 896q0 -164 38 -310t105 -253q-152 82 -243.5 232.5
t-91.5 330.5t91.5 330.5t243.5 232.5q-67 -107 -105 -253t-38 -310zM192 896q0 -253 74.5 -477t206.5 -386q-218 139 -345.5 367t-127.5 496t127.5 496t345.5 367q-132 -162 -206.5 -386t-74.5 -477zM1575 1759q218 -139 345.5 -367t127.5 -496t-127.5 -496t-345.5 -367
q132 162 206.5 386t74.5 477t-74.5 477t-206.5 386z" />
    <glyph glyph-name="B" unicode="B" 
d="M896 384q0 53 37.5 90.5t90.5 37.5t90.5 -37.5t37.5 -90.5t-37.5 -90.5t-90.5 -37.5t-90.5 37.5t-37.5 90.5zM1024 1664q-283 0 -533 -116t-430 -321l96 -84q161 184 386.5 288.5t480.5 104.5t480.5 -104.5t386.5 -288.5l96 84q-180 205 -430 321t-533 116zM1024 1280
q-198 0 -373.5 -81t-300.5 -225l96 -84q108 123 258 192.5t320 69.5t320 -69.5t258 -192.5l96 84q-125 144 -300.5 225t-373.5 81zM1024 896q-113 0 -213 -46.5t-172 -128.5l96 -84q54 61 129 96t160 35t160 -35t129 -96l96 84q-72 82 -172 128.5t-213 46.5z" />
    <glyph glyph-name="C" unicode="C" 
d="M896 1152l-512 -1280h194l446 390l446 -390h194l-512 1280h-256zM596 58l172 428l159 -139zM1452 58l-331 289l159 139zM1024 432l-206 180l165 412h82l165 -412zM1467 1664q69 -118 69 -256t-69 -256l111 -64q86 150 86 320t-86 320zM581 1152q-69 118 -69 256t69 256
l-111 64q-86 -150 -86 -320t86 -320zM137 1920q-137 -238 -137 -512t137 -512l111 64q-120 208 -120 448t120 448zM2048 1408q0 274 -137 512l-111 -64q120 -208 120 -448t-120 -448l111 -64q137 238 137 512zM896 1408q0 53 37.5 90.5t90.5 37.5t90.5 -37.5t37.5 -90.5
t-37.5 -90.5t-90.5 -37.5t-90.5 37.5t-37.5 90.5z" />
    <glyph glyph-name="D" unicode="D" 
d="M1024 1920q-209 0 -398.5 -81t-326.5 -218t-218 -326.5t-81 -398.5q0 -208 79 -395t221 -329l90 90q-124 124 -193 288t-69 346t71 348t191 286t286 191t348 71t348 -71t286 -191t191 -286t71 -348t-69 -346t-193 -288l90 -90q142 142 221 329t79 395q0 209 -81 398.5
t-218 326.5t-326.5 218t-398.5 81zM1024 1920q-209 0 -398.5 -81t-326.5 -218t-218 -326.5t-81 -398.5q0 -208 79 -395t221 -329l90 90q-124 124 -193 288t-69 346t71 348t191 286t286 191t348 71t348 -71t286 -191t191 -286t71 -348t-69 -346t-193 -288l90 -90
q142 142 221 329t79 395q0 209 -81 398.5t-218 326.5t-326.5 218t-398.5 81zM1024 1536q-130 0 -248.5 -51t-204 -136.5t-136.5 -204t-51 -248.5q0 -131 49 -247.5t138 -205.5l91 91q-71 71 -110.5 164.5t-39.5 197.5q0 212 150 362t362 150t362 -150t150 -362
q0 -104 -39.5 -197.5t-110.5 -164.5l91 -91q89 89 138 205.5t49 247.5q0 130 -51 248.5t-136.5 204t-204 136.5t-248.5 51zM1205 715q75 75 75 181t-75 181t-181 75t-181 -75t-75 -181t75 -181l90 90q-37 37 -37 91q0 53 37.5 90.5t90.5 37.5t90.5 -37.5t37.5 -90.5
q0 -54 -37 -91zM976 768l-336 -896h768l-336 896h-96z" />
    <glyph glyph-name="E" unicode="E" 
d="M1728 1920h-1536q-80 0 -136 -56t-56 -136v-1664q0 -80 56 -136t136 -56h1536q80 0 136 56t56 136v1664q0 80 -56 136t-136 56zM1664 128h-1408v1536h1408v-1536zM512 768h896v-128h-896v128zM512 512h896v-128h-896v128zM640 1344q0 80 56 136t136 56t136 -56t56 -136
t-56 -136t-136 -56t-136 56t-56 136zM960 1152h-256q-79 0 -135.5 -37.5t-56.5 -90.5v-128h640v128q0 53 -56.5 90.5t-135.5 37.5z" />
    <glyph glyph-name="F" unicode="F" 
d="M1784 1544l-240 240q-56 56 -152.5 96t-175.5 40h-896q-80 0 -136 -56t-56 -136v-1664q0 -80 56 -136t136 -56h1408q80 0 136 56t56 136v1152q0 79 -40 175.5t-96 152.5zM1664 128h-1280v1536h832q23 0 64 -15v-369h369q15 -41 15 -64v-1088z" />
    <glyph glyph-name="G" unicode="G" 
d="M1784 1544l-240 240q-56 56 -152.5 96t-175.5 40h-896q-80 0 -136 -56t-56 -136v-1664q0 -80 56 -136t136 -56h1408q80 0 136 56t56 136v1152q0 79 -40 175.5t-96 152.5zM1280 1649q2 -1 7 -2.5t7 -2.5q48 -20 69 -41l240 -240q21 -21 41 -69q1 -2 2.5 -7t2.5 -7h-369
v369zM1664 128h-1280v1536h768v-512h512v-1024z" />
    <glyph glyph-name="H" unicode="H" 
d="M1784 1544l-240 240q-56 56 -152.5 96t-175.5 40h-896q-80 0 -136 -56t-56 -136v-1664q0 -80 56 -136t136 -56h1408q80 0 136 56t56 136v1152q0 79 -40 175.5t-96 152.5zM1280 1649q2 -1 7 -2.5t7 -2.5q48 -20 69 -41l240 -240q21 -21 41 -69q1 -2 2.5 -7t2.5 -7h-369
v369zM1664 128h-1280v1536h768v-512h512v-1024zM512 896h1024v-128h-1024v128zM512 640h1024v-128h-1024v128zM512 384h1024v-128h-1024v128z" />
    <glyph glyph-name="I" unicode="I" 
d="M1807 1521q41 -41 72 -109t39 -132h-638v638q64 -8 132 -39t109 -72zM1152 1152h768v-1120q0 -66 -47 -113t-113 -47h-1472q-66 0 -113 47t-47 113v1728q0 66 47 113t113 47h864v-768z" />
    <glyph glyph-name="J" unicode="J" 
d="M1807 1521q41 -41 72 -109t39 -132h-638v638q64 -8 132 -39t109 -72zM1152 1152v768h-864q-66 0 -113 -47t-47 -113v-1728q0 -66 47 -113t113 -47h1472q66 0 113 47t47 113v1120h-768zM1664 128h-1280v128h1280v-128zM1664 384h-1280v128h1280v-128zM1664 640h-1280v128
h1280v-128z" />
    <glyph glyph-name="K" unicode="K" 
d="M128 1792h1152v-384h384v-640h128v640l-512 512h-1280v-2048h1152v128h-1024v1792zM1845 256l203 203v181h-181l-203 -203l-203 203h-181v-181l203 -203l-203 -203v-181h181l203 203l203 -203h181v181z" />
    <glyph glyph-name="L" unicode="L" 
d="M1807 1521l-286 286q-47 47 -127 80t-146 33h-960q-66 0 -113 -47t-47 -113v-1728q0 -66 47 -113t113 -47h1472q66 0 113 47t47 113v1216q0 66 -33 146t-80 127zM1716 1431q11 -11 19 -23h-327v327q12 -8 23 -19zM1792 32q0 -13 -9.5 -22.5t-22.5 -9.5h-1472
q-13 0 -22.5 9.5t-9.5 22.5v1728q0 13 9.5 22.5t22.5 9.5h960q16 0 32 -3v-509h509q3 -16 3 -32v-1216z" />
    <glyph glyph-name="M" unicode="M" 
d="M1664 1408h-384v128l-384 384h-896v-1536h768v-512h1280v1152zM1664 1227l203 -203h-203v203zM896 1739l203 -203h-203v203zM128 1792h640v-384h384v-896h-1024v1280zM1920 0h-1024v384h384v896h256v-384h384v-896z" />
    <glyph glyph-name="N" unicode="N" 
d="M1728 1664h-128v-128h64v-1024h-512v-512h-768v1536h64v128h-128q-26 0 -45 -19t-19 -45v-1664q0 -26 19 -45t45 -19h1008l464 464v1264q0 26 -19 45t-45 19zM1280 0v384h384zM1536 1664h-256v128q0 52 -38 90t-90 38h-256q-52 0 -90 -38t-38 -90v-128h-256v-256h1024
v256zM1152 1664h-256v128h256v-128z" />
    <glyph glyph-name="O" unicode="O" 
d="M1728 1664q26 0 45 -19t19 -45v-1216l-512 -512h-960q-26 0 -45 19t-19 45v1664q0 26 19 45t45 19h128v-128h-64v-1536h768v512h512v1024h-64v128h128zM1536 1664h-256v128q0 52 -38 90t-90 38h-256q-52 0 -90 -38t-38 -90v-128h-256v-256h1024v256zM1152 1664h-256v128
h256v-128z" />
    <glyph glyph-name="P" unicode="P" 
d="M1280 1408v512h-896l-384 -384v-1152h768v-512h1280v1536h-768zM384 1739v-203h-203zM128 512v896h384v384h640v-384l-384 -384v-512h-640zM1152 1227v-203h-203zM1920 0h-1024v896h384v384h640v-1280z" />
    <glyph glyph-name="Q" unicode="Q" 
d="M1920 1408h-1792l128 256h704l64 -128h832zM0 1280l128 -1280h1792l128 1280h-2048zM1408 888l-248 -248l248 -248v-136h-136l-248 248l-248 -248h-136v136l248 248l-248 248v136h136l248 -248l248 248h136v-136z" />
    <glyph glyph-name="R" unicode="R" 
d="M896 1664l256 -256h896v-1408h-2048v1664h896z" />
    <glyph glyph-name="S" unicode="S" 
d="M1664 0l384 1024h-1664l-384 -1024h1664zM256 1152l-256 -1152v1664h576l256 -256h832v-256h-1408z" />
    <glyph glyph-name="T" unicode="T" 
d="M1152 1408l-256 256h-896v-1664h2048v1408h-896zM1099 1280h53h768v-16h-1792v32h955zM128 128v16h1792v-16h-1792zM128 176v32h1792v-32h-1792zM128 240v32h1792v-32h-1792zM128 304v32h1792v-32h-1792zM128 368v32h1792v-32h-1792zM128 432v32h1792v-32h-1792zM128 496
v32h1792v-32h-1792zM128 560v32h1792v-32h-1792zM128 624v32h1792v-32h-1792zM128 688v32h1792v-32h-1792zM128 752v32h1792v-32h-1792zM128 816v32h1792v-32h-1792zM128 880v32h1792v-32h-1792zM128 944v32h1792v-32h-1792zM128 1008v32h1792v-32h-1792zM128 1072v32h1792
v-32h-1792zM128 1136v32h1792v-32h-1792zM128 1200v32h1792v-32h-1792zM843 1536l16 -16h-731v16h715zM891 1488l32 -32h-795v32h763zM955 1424l32 -32h-859v32h827zM1019 1360l32 -32h-923v32h891z" />
    <glyph glyph-name="U" unicode="U" 
d="M843 1536l218 -219l38 -37h53h768v-1152h-1792v1408h715zM896 1664h-896v-1664h2048v1408h-896z" />
    <glyph glyph-name="V" unicode="V" 
d="M1152 1408l-256 256h-896v-1664h2048v1408h-896zM1408 512h-256v-256h-256v256h-256v256h256v256h256v-256h256v-256z" />
    <glyph glyph-name="W" unicode="W" 
d="M1249 1280h-993v-896h993q17 1 48.5 14t44.5 25l410 409l-410 409q-13 12 -44.5 25t-48.5 14zM1250 1536q66 0 146 -33t127 -80l478 -478q47 -47 47 -113t-47 -113l-478 -478q-47 -47 -127 -80t-146 -33h-1090q-66 0 -113 47t-47 113v1088q0 66 47 113t113 47h1090z
M1024 832q0 80 56 136t136 56t136 -56t56 -136t-56 -136t-136 -56t-136 56t-56 136z" />
    <glyph glyph-name="X" unicode="X" 
d="M1250 1408h-1090q-13 0 -22.5 -9.5t-9.5 -22.5v-1088q0 -13 9.5 -22.5t22.5 -9.5h1090q40 0 97 23.5t86 52.5l478 477q9 9 9 23t-9 23l-478 477q-29 29 -86 52.5t-97 23.5zM1250 1536q66 0 146 -33t127 -80l478 -478q47 -47 47 -113t-47 -113l-478 -478q-47 -47 -127 -80
t-146 -33h-1090q-66 0 -113 47t-47 113v1088q0 66 47 113t113 47h1090zM1152 832q0 80 56 136t136 56t136 -56t56 -136t-56 -136t-136 -56t-136 56t-56 136z" />
    <glyph glyph-name="Y" unicode="Y" 
d="M1088 1920l-1088 -1088l960 -960l1088 1088v960h-960zM1600 1280q-80 0 -136 56t-56 136t56 136t136 56t136 -56t56 -136t-56 -136t-136 -56z" />
    <glyph glyph-name="Z" unicode="Z" 
d="M1856 1920h-578q-79 0 -175.5 -40t-152.5 -96l-894 -894q-56 -56 -56 -136t56 -136l690 -690q56 -56 136 -56t136 56l894 894q56 56 96 152.5t40 175.5v578q0 80 -56 136t-136 56zM1600 1280q-80 0 -136 56t-56 136t56 136t136 56t136 -56t56 -136t-56 -136t-136 -56z
" />
    <glyph glyph-name="bracketleft" unicode="[" 
d="M1792 1664h-598l-832 -832l598 -598l832 832v598zM2048 1920v-960l-1088 -1088l-960 960l1088 1088h960zM1280 1344q0 80 56 136t136 56t136 -56t56 -136t-56 -136t-136 -56t-136 56t-56 136z" />
    <glyph glyph-name="backslash" unicode="\" 
d="M1792 1663h-514q-29 0 -77 -20q-51 -21 -70 -40l-848 -849l599 -599l849 848q19 19 40 70q21 50 21 77v514v-1zM1856 1920q80 0 136 -56t56 -136v-578q0 -79 -40 -175.5t-96 -152.5l-894 -894q-56 -56 -136 -56t-136 56l-690 690q-56 56 -56 136t56 136l894 894
q56 56 152.5 96t175.5 40h578zM1280 1344q0 80 56 136t136 56t136 -56t56 -136t-56 -136t-136 -56t-136 56t-56 136z" />
    <glyph glyph-name="bracketright" unicode="]" 
d="M1664 384h-1088q-49 0 -85 32t-42 80l-114 912h-207q-53 0 -90.5 37.5t-37.5 90.5t37.5 90.5t90.5 37.5h320q49 0 85 -32t42 -80l114 -912h878l230 803q14 51 60.5 76.5t97.5 11.5t76.5 -60.5t11.5 -97.5l-256 -896q-12 -41 -46 -67t-77 -26zM512 64q0 80 56 136t136 56
t136 -56t56 -136t-56 -136t-136 -56t-136 56t-56 136zM1280 64q0 80 56 136t136 56t136 -56t56 -136t-56 -136t-136 -56t-136 56t-56 136zM1536 1024h-256v-256h-256v256h-256v256h256v256h256v-256h256v-256z" />
    <glyph glyph-name="asciicircum" unicode="^" 
d="M1664 384h-1088q-49 0 -85 32t-42 80l-114 912h-207q-53 0 -90.5 37.5t-37.5 90.5t37.5 90.5t90.5 37.5h320q49 0 85 -32t42 -80l114 -912h878l230 803q14 51 60.5 76.5t97.5 11.5t76.5 -60.5t11.5 -97.5l-256 -896q-12 -41 -46 -67t-77 -26zM512 64q0 80 56 136t136 56
t136 -56t56 -136t-56 -136t-136 -56t-136 56t-56 136zM1280 64q0 80 56 136t136 56t136 -56t56 -136t-56 -136t-136 -56t-136 56t-56 136zM768 1280h768v-256h-768v256z" />
    <glyph glyph-name="underscore" unicode="_" 
d="M1955 1531q51 -14 76.5 -60.5t11.5 -97.5l-256 -896q-12 -41 -46 -67t-77 -26h-1088q-49 0 -85 32t-42 80l-114 912h-207q-53 0 -90.5 37.5t-37.5 90.5t37.5 90.5t90.5 37.5h320q49 0 85 -32t42 -80l114 -912h878l230 803q14 51 60.5 76.5t97.5 11.5zM512 64q0 80 56 136
t136 56t136 -56t56 -136t-56 -136t-136 -56t-136 56t-56 136zM1280 64q0 80 56 136t136 56t136 -56t56 -136t-56 -136t-136 -56t-136 56t-56 136zM728 1280h296v384h256v-384h296l-424 -456z" />
    <glyph glyph-name="grave" unicode="`" 
d="M1955 1531q51 -14 76.5 -60.5t11.5 -97.5l-256 -896q-12 -41 -46 -67t-77 -26h-1088q-49 0 -85 32t-42 80l-114 912h-207q-53 0 -90.5 37.5t-37.5 90.5t37.5 90.5t90.5 37.5h320q49 0 85 -32t42 -80l114 -912h878l230 803q14 51 60.5 76.5t97.5 11.5zM512 64q0 80 56 136
t136 56t136 -56t56 -136t-56 -136t-136 -56t-136 56t-56 136zM1280 64q0 80 56 136t136 56t136 -56t56 -136t-56 -136t-136 -56t-136 56t-56 136zM1576 1152h-296v-384h-256v384h-296l424 456z" />
    <glyph glyph-name="a" unicode="a" 
d="M1664 384h-1088q-49 0 -85 32t-42 80l-114 912h-207q-53 0 -90.5 37.5t-37.5 90.5t37.5 90.5t90.5 37.5h320q49 0 85 -32t42 -80l114 -912h878l230 803q14 51 60.5 76.5t97.5 11.5t76.5 -60.5t11.5 -97.5l-256 -896q-12 -41 -46 -67t-77 -26zM512 64q0 80 56 136t136 56
t136 -56t56 -136t-56 -136t-136 -56t-136 56t-56 136zM1280 64q0 80 56 136t136 56t136 -56t56 -136t-56 -136t-136 -56t-136 56t-56 136zM1717 1612l-536 -714l-321 414l106 98l207 -182l455 461z" />
    <glyph glyph-name="b" unicode="b" 
d="M1955 1531q51 -14 76.5 -60.5t11.5 -97.5l-256 -896q-12 -41 -46 -67t-77 -26h-1088q-49 0 -85 32t-42 80l-114 912h-207q-53 0 -90.5 37.5t-37.5 90.5t37.5 90.5t90.5 37.5h320q49 0 85 -32t42 -80l114 -912h878l230 803q14 51 60.5 76.5t97.5 11.5zM512 64q0 80 56 136
t136 56t136 -56t56 -136t-56 -136t-136 -56t-136 56t-56 136zM1280 64q0 80 56 136t136 56t136 -56t56 -136t-56 -136t-136 -56t-136 56t-56 136zM1611 1003l-182 -182l-277 278l-277 -278l-182 182l278 277l-278 277l182 182l277 -278l277 278l182 -182l-278 -277z" />
    <glyph glyph-name="c" unicode="c" 
d="M1408 640q-40 -40 -75 -92.5t-53.5 -84.5t-50.5 -55.5t-77 -23.5q-46 0 -93 19.5t-102 63.5t-90 76.5t-99 96.5t-96.5 99t-76.5 90t-63.5 102t-19.5 93q0 45 23.5 77t55.5 50.5t84.5 53.5t92.5 75q33 32 25 82.5t-39 107.5t-82 114t-103.5 103.5t-103 75.5t-81.5 29
q-36 0 -88.5 -39.5t-102.5 -96t-94.5 -113t-71.5 -95.5l-27 -40q0 -125 75.5 -320t195 -388.5t241.5 -315.5t315.5 -241.5t388.5 -195t320 -75.5q16 10 41.5 28t92 69.5t117 97t92 99.5t41.5 90q0 31 -29 81.5t-75.5 103t-103.5 103.5t-114 82t-107.5 39t-82.5 -25z" />
    <glyph glyph-name="d" unicode="d" 
d="M1408 640q32 33 82.5 25t107.5 -39t114 -82t103.5 -103.5t75.5 -103t29 -81.5q0 -36 -39.5 -88.5t-96 -102.5t-113 -94.5t-95.5 -71.5l-40 -27q-125 0 -320 75.5t-388.5 195t-315.5 241.5t-241.5 315.5t-195 388.5t-75.5 320q10 16 28 41.5t69.5 92t97 117t99.5 92
t90 41.5q31 0 81.5 -29t103 -75.5t103.5 -103.5t82 -114t39 -107.5t-25 -82.5q-40 -40 -92.5 -75t-84.5 -53.5t-55.5 -50.5t-23.5 -77q0 -46 19.5 -93t63.5 -102t76.5 -90t96.5 -99t99 -96.5t90 -76.5t102 -63.5t93 -19.5q45 0 77 23.5t50.5 55.5t53.5 84.5t75 92.5z
M1280 1408q-66 0 -122.5 -31t-91.5 -85q49 20 102 20q112 0 192 -80t80 -192q0 -53 -20 -102q54 35 85 91.5t31 122.5q0 106 -75 181t-181 75zM1344 1664q-100 0 -188 -41t-151 -114q104 59 227 59q192 0 328 -136t136 -328q0 -123 -59 -227q73 63 114 151t41 188
q0 185 -131.5 316.5t-316.5 131.5zM1472 1920q-122 0 -231.5 -48.5t-189.5 -134.5q142 87 309 87q120 0 230 -47t189 -126t126 -189t47 -230q0 -167 -87 -309q86 80 134.5 189t48.5 232q0 117 -45.5 223.5t-123 184t-184 123t-223.5 45.5z" />
    <glyph glyph-name="e" unicode="e" 
d="M1408 640q32 33 82.5 25t107.5 -39t114 -82t103.5 -103.5t75.5 -103t29 -81.5q0 -36 -39.5 -88.5t-96 -102.5t-113 -94.5t-95.5 -71.5l-40 -27q-125 0 -320 75.5t-388.5 195t-315.5 241.5t-241.5 315.5t-195 388.5t-75.5 320q10 16 28 41.5t69.5 92t97 117t99.5 92
t90 41.5q31 0 81.5 -29t103 -75.5t103.5 -103.5t82 -114t39 -107.5t-25 -82.5q-40 -40 -92.5 -75t-84.5 -53.5t-55.5 -50.5t-23.5 -77q0 -46 19.5 -93t63.5 -102t76.5 -90t96.5 -99t99 -96.5t90 -76.5t102 -63.5t93 -19.5q45 0 77 23.5t50.5 55.5t53.5 84.5t75 92.5z
M1472 1920q-117 0 -223.5 -45.5t-184 -123t-123 -184t-45.5 -223.5t45.5 -223.5t123 -184t184 -123t223.5 -45.5t223.5 45.5t184 123t123 184t45.5 223.5t-45.5 223.5t-123 184t-184 123t-223.5 45.5zM1536 1280v-256h-128v256h-256v128h256v256h128v-256h256v-128h-256z
" />
    <glyph glyph-name="f" unicode="f" 
d="M1408 640q32 33 82.5 25t107.5 -39t114 -82t103.5 -103.5t75.5 -103t29 -81.5q0 -36 -39.5 -88.5t-96 -102.5t-113 -94.5t-95.5 -71.5l-40 -27q-125 0 -320 75.5t-388.5 195t-315.5 241.5t-241.5 315.5t-195 388.5t-75.5 320q10 16 28 41.5t69.5 92t97 117t99.5 92
t90 41.5q31 0 81.5 -29t103 -75.5t103.5 -103.5t82 -114t39 -107.5t-25 -82.5q-40 -40 -92.5 -75t-84.5 -53.5t-55.5 -50.5t-23.5 -77q0 -46 19.5 -93t63.5 -102t76.5 -90t96.5 -99t99 -96.5t90 -76.5t102 -63.5t93 -19.5q45 0 77 23.5t50.5 55.5t53.5 84.5t75 92.5z
M1472 1920q-117 0 -223.5 -45.5t-184 -123t-123 -184t-45.5 -223.5t45.5 -223.5t123 -184t184 -123t223.5 -45.5t223.5 45.5t184 123t123 184t45.5 223.5t-45.5 223.5t-123 184t-184 123t-223.5 45.5zM1792 1280h-640v128h640v-128z" />
    <glyph glyph-name="g" unicode="g" 
d="M1408 640q32 33 82.5 25t107.5 -39t114 -82t103.5 -103.5t75.5 -103t29 -81.5q0 -36 -39.5 -88.5t-96 -102.5t-113 -94.5t-95.5 -71.5l-40 -27q-125 0 -320 75.5t-388.5 195t-315.5 241.5t-241.5 315.5t-195 388.5t-75.5 320q10 16 28 41.5t69.5 92t97 117t99.5 92
t90 41.5q31 0 81.5 -29t103 -75.5t103.5 -103.5t82 -114t39 -107.5t-25 -82.5q-40 -40 -92.5 -75t-84.5 -53.5t-55.5 -50.5t-23.5 -77q0 -46 19.5 -93t63.5 -102t76.5 -90t96.5 -99t99 -96.5t90 -76.5t102 -63.5t93 -19.5q45 0 77 23.5t50.5 55.5t53.5 84.5t75 92.5z
M1920 1280h-256v-256h-256v256h-256v256h256v256h256v-256h256v-256z" />
    <glyph glyph-name="h" unicode="h" 
d="M1408 640q32 33 82.5 25t107.5 -39t114 -82t103.5 -103.5t75.5 -103t29 -81.5q0 -36 -39.5 -88.5t-96 -102.5t-113 -94.5t-95.5 -71.5l-40 -27q-125 0 -320 75.5t-388.5 195t-315.5 241.5t-241.5 315.5t-195 388.5t-75.5 320q10 16 28 41.5t69.5 92t97 117t99.5 92
t90 41.5q31 0 81.5 -29t103 -75.5t103.5 -103.5t82 -114t39 -107.5t-25 -82.5q-40 -40 -92.5 -75t-84.5 -53.5t-55.5 -50.5t-23.5 -77q0 -46 19.5 -93t63.5 -102t76.5 -90t96.5 -99t99 -96.5t90 -76.5t102 -63.5t93 -19.5q45 0 77 23.5t50.5 55.5t53.5 84.5t75 92.5z
M1152 1536h768v-256h-768v256zM1152 1536h768v-256h-768v256z" />
    <glyph glyph-name="i" unicode="i" 
d="M1088 1920l-192 -192l192 -192l-448 -512h-448l352 -352l-544 -721v-79h79l721 544l352 -352v448l512 448l192 -192l192 192zM896 832l-128 128l448 448l128 -128z" />
    <glyph glyph-name="j" unicode="j" 
d="M1024 1920q-130 0 -248.5 -51t-204 -136.5t-136.5 -204t-51 -248.5q0 -131 35.5 -279t91.5 -280.5t124.5 -262.5t137 -234t124.5 -184t91 -124l36 -44q13 16 36 45t89.5 121.5t127 187t134.5 231t127 265t89.5 278t36.5 280.5q0 130 -51 248.5t-136.5 204t-204 136.5
t-248.5 51zM1024 896q-159 0 -271.5 112.5t-112.5 271.5t112.5 271.5t271.5 112.5t271.5 -112.5t112.5 -271.5t-112.5 -271.5t-271.5 -112.5z" />
    <glyph glyph-name="k" unicode="k" 
d="M1024 1920q-130 0 -248.5 -51t-204 -136.5t-136.5 -204t-51 -248.5q0 -103 22 -208t59 -196t85 -179t101 -161t106 -138t101 -114t85 -84.5t59 -53.5l22 -18q13 11 36 30.5t89.5 85.5t127 136t134.5 177.5t127 214.5t89.5 242t36.5 266q0 130 -51 248.5t-136.5 204
t-204 136.5t-248.5 51zM1024 896q-159 0 -271.5 112.5t-112.5 271.5t112.5 271.5t271.5 112.5t271.5 -112.5t112.5 -271.5t-112.5 -271.5t-271.5 -112.5zM1573 525q-35 -57 -88 -127q3 -1 7.5 -3t6.5 -3q68 -34 104.5 -72t36.5 -64t-36.5 -64t-104.5 -72q-194 -96 -475 -96
t-475 96q-68 34 -104.5 72t-36.5 64t36.5 64t104.5 72q2 1 6.5 3t7.5 3q-53 70 -88 127q-104 -53 -161.5 -122.5t-57.5 -146.5q0 -104 103 -192.5t279.5 -140t385.5 -51.5t385.5 51.5t279.5 140t103 192.5q0 77 -57.5 146.5t-161.5 122.5z" />
    <glyph glyph-name="l" unicode="l" 
d="M1024 1920q-130 0 -248.5 -51t-204 -136.5t-136.5 -204t-51 -248.5q0 -131 35.5 -279t91.5 -280.5t124.5 -262.5t137 -234t124.5 -184t91 -124l36 -44q13 16 36 45t89.5 121.5t127 187t134.5 231t127 265t89.5 278t36.5 280.5q0 130 -51 248.5t-136.5 204t-204 136.5
t-248.5 51zM1024 888q-162 0 -277 115t-115 277t115 277t277 115t277 -115t115 -277t-115 -277t-277 -115zM776 1280q0 103 72.5 175.5t175.5 72.5t175.5 -72.5t72.5 -175.5t-72.5 -175.5t-175.5 -72.5t-175.5 72.5t-72.5 175.5z" />
    <glyph glyph-name="m" unicode="m" 
d="M1024 1920q-130 0 -248.5 -51t-204 -136.5t-136.5 -204t-51 -248.5q0 -103 22 -208t59 -196t85 -179t101 -161t106 -138t101 -114t85 -84.5t59 -53.5l22 -18q13 11 36 30.5t89.5 85.5t127 136t134.5 177.5t127 214.5t89.5 242t36.5 266q0 130 -51 248.5t-136.5 204
t-204 136.5t-248.5 51zM1024 888q-162 0 -277 115t-115 277t115 277t277 115t277 -115t115 -277t-115 -277t-277 -115zM776 1280q0 -103 72.5 -175.5t175.5 -72.5t175.5 72.5t72.5 175.5t-72.5 175.5t-175.5 72.5t-175.5 -72.5t-72.5 -175.5zM1573 525q-35 -57 -88 -127
q3 -1 7.5 -3t6.5 -3q68 -34 104.5 -72t36.5 -64t-36.5 -64t-104.5 -72q-194 -96 -475 -96t-475 96q-68 34 -104.5 72t-36.5 64t36.5 64t104.5 72q2 1 6.5 3t7.5 3q-53 70 -88 127q-104 -53 -161.5 -122.5t-57.5 -146.5q0 -104 103 -192.5t279.5 -140t385.5 -51.5t385.5 51.5
t279.5 140t103 192.5q0 77 -57.5 146.5t-161.5 122.5z" />
    <glyph glyph-name="n" unicode="n" 
d="M1024 1920q-209 0 -385.5 -103t-279.5 -279.5t-103 -385.5q0 -123 26.5 -245.5t70.5 -226t102 -201.5t121.5 -177t127 -148.5t121.5 -120.5t102 -87.5t71 -55.5l26 -18q16 11 43.5 31t107.5 88.5t152.5 143t161 191t152.5 237t107.5 276.5t43.5 313q0 209 -103 385.5
t-279.5 279.5t-385.5 103zM1024 1024q-106 0 -181 75t-75 181t75 181t181 75t181 -75t75 -181t-75 -181t-181 -75z" />
    <glyph glyph-name="o" unicode="o" 
d="M1024 1920q-209 0 -385.5 -103t-279.5 -279.5t-103 -385.5q0 -123 26.5 -245.5t70.5 -226t102 -201.5t121.5 -177t127 -148.5t121.5 -120.5t102 -87.5t71 -55.5l26 -18q16 11 43.5 31t107.5 88.5t152.5 143t161 191t152.5 237t107.5 276.5t43.5 313q0 209 -103 385.5
t-279.5 279.5t-385.5 103zM1292 335q-124 -145 -268 -262q-144 117 -268 262q-152 180 -237 364q-103 224 -103 453q0 122 46 233t132 197t197 132t233 46t233 -46t197 -132t132 -197t46 -233q0 -229 -103 -453q-85 -184 -237 -364zM1024 1536q-106 0 -181 -75t-75 -181
t75 -181t181 -75t181 75t75 181t-75 181t-181 75zM1024 1152q-53 0 -90.5 37.5t-37.5 90.5t37.5 90.5t90.5 37.5t90.5 -37.5t37.5 -90.5t-37.5 -90.5t-90.5 -37.5z" />
    <glyph glyph-name="p" unicode="p" 
d="M1024 1920q-130 0 -248.5 -47.5t-204 -128t-136.5 -191.5t-51 -233q0 -97 28 -188t73.5 -166.5t100 -152.5t109 -161.5t100 -176.5t73.5 -215t28 -260v-64q0 -25 17 -43.5t42 -20.5h133q26 0 45 19t19 45v64q0 137 28 260t73.5 215t100 176.5t109 161.5t100 152.5
t73.5 166.5t28 188q0 122 -51 233t-136.5 191.5t-204 128t-248.5 47.5z" />
    <glyph glyph-name="q" unicode="q" 
d="M960 1792q-195 0 -373 -76t-306.5 -204.5t-204.5 -306.5t-76 -373t76 -373t204.5 -306.5t306.5 -204.5t373 -76t373 76t306.5 204.5t204.5 306.5t76 373t-76 373t-204.5 306.5t-306.5 204.5t-373 76zM960 64q-209 0 -385.5 103t-279.5 279.5t-103 385.5t103 385.5
t279.5 279.5t385.5 103t385.5 -103t279.5 -279.5t103 -385.5t-103 -385.5t-279.5 -279.5t-385.5 -103zM1664 862l-426 98l170 230v90h-90l-230 -170l-98 426h-60l-98 -426l-230 170h-90v-90l170 -230l-426 -98v-60l426 -98l-170 -230v-90h90l230 170l98 -426h60l98 426
l230 -170h90v90l-170 230l426 98v60zM1024 816q0 -20 -14 -34t-34 -14h-32q-20 0 -34 14t-14 34v32q0 20 14 34t34 14h32q20 0 34 -14t14 -34v-32z" />
    <glyph glyph-name="r" unicode="r" 
d="M1024 1920q-209 0 -398.5 -81t-326.5 -218t-218 -326.5t-81 -398.5t81 -398.5t218 -326.5t326.5 -218t398.5 -81t398.5 81t326.5 218t218 326.5t81 398.5t-81 398.5t-218 326.5t-326.5 218t-398.5 81zM1024 64q-169 0 -323.5 66t-265.5 177t-177 265.5t-66 323.5
t66 323.5t177 265.5t265.5 177t323.5 66t323.5 -66t265.5 -177t177 -265.5t66 -323.5t-66 -323.5t-177 -265.5t-265.5 -177t-323.5 -66zM1216 1088l-576 320h-128v-128l320 -576l576 -320h128v128zM1024 768q-53 0 -90.5 37.5t-37.5 90.5t37.5 90.5t90.5 37.5t90.5 -37.5
t37.5 -90.5t-37.5 -90.5t-90.5 -37.5z" />
    <glyph glyph-name="s" unicode="s" 
d="M1536 1600l-1024 256l-512 -320v-1664l512 320l1024 -256l512 320v1664zM1408 100l-768 192v1400l768 -192v-1400z" />
    <glyph glyph-name="t" unicode="t" 
d="M1536 1600l-1024 256l-512 -320v-1664l512 320l1024 -256l512 320v1664zM640 292v1400l16 -4v-1400zM688 280v1400l32 -8v-1400zM752 264v1400l32 -8v-1400zM816 248v1400l32 -8v-1400zM880 232v1400l32 -8v-1400zM944 216v1400l32 -8v-1400zM1008 200v1400l32 -8v-1400z
M1072 184v1400l32 -8v-1400zM1136 168v1400l32 -8v-1400zM1200 152v1400l32 -8v-1400zM1264 136v1400l32 -8v-1400zM1328 120v1400l32 -8v-1400zM1408 100l-16 4v1400l16 -4v-1400z" />
    <glyph glyph-name="u" unicode="u" 
d="M0 1536l640 256v-1536l-640 -256v1536zM1408 1536v-1536l-640 213v1536zM2048 1792v-1536l-512 -205v1536z" />
    <glyph glyph-name="v" unicode="v" 
d="M1344 1536l-640 256l-704 -256v-1536l704 256l640 -256l704 256v1536zM768 1629l512 -205v-1261l-512 205v1261zM128 1446l512 187v-1264l-512 -186v1263zM1920 346l-512 -187v1264l512 186v-1263z" />
    <glyph glyph-name="w" unicode="w" 
d="M1600 1152l384 256l-384 256h-448v160q0 40 -28 68t-68 28h-64q-40 0 -68 -28t-28 -68v-160h-640v-512h640v-128h-576l-256 -192l256 -192h576v-768h256v768h512v384h-512v128h448z" />
    <glyph glyph-name="x" unicode="x" 
d="M1152 1792q182 0 348 -71t286 -191t191 -286t71 -348t-71 -348t-191 -286t-286 -191t-348 -71v192q141 0 269.5 53t228.5 153t153 228.5t53 269.5t-53 269.5t-153 228.5t-228.5 153t-269.5 53t-269.5 -53t-228.5 -153q-155 -155 -194 -370h372l-448 -512l-448 512h329
q31 215 155.5 390.5t317 276.5t414.5 101zM1536 1024v-256h-512v640h256v-384h256z" />
    <glyph glyph-name="y" unicode="y" 
d="M1024 1408v-640h512v128h-384v512h-128zM1152 1792q-182 0 -348 -71t-286 -191t-191 -286t-71 -348h-256l320 -384l320 384h-256q0 209 103 385.5t279.5 279.5t385.5 103t385.5 -103t279.5 -279.5t103 -385.5t-103 -385.5t-279.5 -279.5t-385.5 -103q-62 0 -128 11v-130
q63 -9 128 -9q182 0 348 71t286 191t191 286t71 348t-71 348t-191 286t-286 191t-348 71z" />
    <glyph glyph-name="z" unicode="z" 
d="M1317 421l-421 422v565h256v-459l347 -346zM1024 1920q-209 0 -398.5 -81t-326.5 -218t-218 -326.5t-81 -398.5t81 -398.5t218 -326.5t326.5 -218t398.5 -81t398.5 81t326.5 218t218 326.5t81 398.5t-81 398.5t-218 326.5t-326.5 218t-398.5 81zM1024 128
q-209 0 -385.5 103t-279.5 279.5t-103 385.5t103 385.5t279.5 279.5t385.5 103t385.5 -103t279.5 -279.5t103 -385.5t-103 -385.5t-279.5 -279.5t-385.5 -103z" />
    <glyph glyph-name="braceleft" unicode="{" 
d="M1024 1920q-209 0 -398.5 -81t-326.5 -218t-218 -326.5t-81 -398.5t81 -398.5t218 -326.5t326.5 -218t398.5 -81t398.5 81t326.5 218t218 326.5t81 398.5t-81 398.5t-218 326.5t-326.5 218t-398.5 81zM1317 421l-421 422v565h256v-459l347 -346z" />
    <glyph glyph-name="bar" unicode="|" 
d="M1536 1024v-256h-640v768h256v-512h384zM1024 1920q-209 0 -398.5 -81t-326.5 -218t-218 -326.5t-81 -398.5t81 -398.5t218 -326.5t326.5 -218t398.5 -81t398.5 81t326.5 218t218 326.5t81 398.5t-81 398.5t-218 326.5t-326.5 218t-398.5 81zM1024 128q-209 0 -385.5 103
t-279.5 279.5t-103 385.5t103 385.5t279.5 279.5t385.5 103t385.5 -103t279.5 -279.5t103 -385.5t-103 -385.5t-279.5 -279.5t-385.5 -103z" />
    <glyph glyph-name="braceright" unicode="}" 
d="M1024 1920q-209 0 -398.5 -81t-326.5 -218t-218 -326.5t-81 -398.5t81 -398.5t218 -326.5t326.5 -218t398.5 -81t398.5 81t326.5 218t218 326.5t81 398.5t-81 398.5t-218 326.5t-326.5 218t-398.5 81zM1536 768h-640v768h256v-512h384v-256z" />
    <glyph glyph-name="asciitilde" unicode="~" 
d="M1152 1024h256v-256h-512v512h256v-256zM1792 896q0 210 -104.5 387t-279.5 278v359h-768v-359q-175 -101 -279.5 -278t-104.5 -387t104.5 -387t279.5 -278v-359h768v359q175 101 279.5 278t104.5 387zM1024 384q-212 0 -362 150t-150 362t150 362t362 150t362 -150
t150 -362t-150 -362t-362 -150z" />
    <glyph glyph-name="uniE000" unicode="&#xe000;" 
d="M1024 1664q-154 0 -294 -58t-249 -167t-167 -249t-58 -294t58 -294t167 -249t249 -167t294 -58t294 58t249 167t167 249t58 294t-58 294t-167 249t-249 167t-294 58zM1024 1920q209 0 398.5 -81t326.5 -218t218 -326.5t81 -398.5t-81 -398.5t-218 -326.5t-326.5 -218
t-398.5 -81t-398.5 81t-326.5 218t-218 326.5t-81 398.5t81 398.5t218 326.5t326.5 218t398.5 81zM1246 1024q-34 60 -94 94v418h-256v-418q-58 -34 -93 -93t-35 -129q0 -106 75 -181t181 -75q70 0 129 35t93 93h290v256h-290zM1024 768q-53 0 -90.5 37.5t-37.5 90.5
t37.5 90.5t90.5 37.5t90.5 -37.5t37.5 -90.5t-37.5 -90.5t-90.5 -37.5z" />
    <glyph glyph-name="uniE001" unicode="&#xe001;" 
d="M960 1792q-195 0 -373 -76t-306.5 -204.5t-204.5 -306.5t-76 -373t76 -373t204.5 -306.5t306.5 -204.5t373 -76t373 76t306.5 204.5t204.5 306.5t76 373t-76 373t-204.5 306.5t-306.5 204.5t-373 76zM960 0q-169 0 -323.5 66t-265.5 177t-177 265.5t-66 323.5t66 323.5
t177 265.5t265.5 177t323.5 66t323.5 -66t265.5 -177t177 -265.5t66 -323.5t-66 -323.5t-177 -265.5t-265.5 -177t-323.5 -66zM1024 1013v523h-128v-523q-57 -20 -92.5 -69.5t-35.5 -111.5q0 -80 56 -136t136 -56q62 0 111.5 35.5t69.5 92.5h395v128h-395q-14 41 -45 72
t-72 45z" />
    <glyph glyph-name="uniE002" unicode="&#xe002;" 
d="M960 1792q-195 0 -373 -76t-306.5 -204.5t-204.5 -306.5t-76 -373t76 -373t204.5 -306.5t306.5 -204.5t373 -76t373 76t306.5 204.5t204.5 306.5t76 373t-76 373t-204.5 306.5t-306.5 204.5t-373 76zM1536 768h-395q-20 -57 -69.5 -92.5t-111.5 -35.5q-80 0 -136 56
t-56 136q0 62 35.5 111.5t92.5 69.5v523h128v-523q41 -14 72 -45t45 -72h395v-128z" />
    <glyph glyph-name="uniE003" unicode="&#xe003;" 
d="M1152 821l219 -218l-182 -182l-293 294v437h256v-331zM1664 1792q159 0 271.5 -112.5t112.5 -271.5q0 -96 -44 -178.5t-119 -135.5q-70 185 -210.5 325t-324.5 210q53 75 135.5 119t178.5 44zM698 1629q-185 -70 -325 -210t-210 -325q-75 53 -119 135.5t-44 178.5
q0 159 112.5 271.5t271.5 112.5q96 0 178.5 -44t135.5 -119zM1024 1536q-209 0 -385.5 -103t-279.5 -279.5t-103 -385.5q0 -274 175 -488l-47 -408h128l128 231q179 -103 384 -103t384 103l128 -231h128l-47 408q175 214 175 488q0 209 -103 385.5t-279.5 279.5t-385.5 103z
M1024 256q-212 0 -362 150t-150 362t150 362t362 150t362 -150t150 -362t-150 -362t-362 -150z" />
    <glyph glyph-name="uniE004" unicode="&#xe004;" 
d="M1024 1664q-182 0 -348 -71t-286 -191t-191 -286t-71 -348t71 -348t191 -286t286 -191t348 -71t348 71t286 191t191 286t71 348t-71 348t-191 286t-286 191t-348 71zM1024 48q-196 0 -361.5 96.5t-262 262t-96.5 361.5t96.5 361.5t262 262t361.5 96.5t361.5 -96.5
t262 -262t96.5 -361.5t-96.5 -361.5t-262 -262t-361.5 -96.5zM1870 1346q50 88 50 190q0 159 -112.5 271.5t-271.5 112.5q-92 0 -171.5 -40t-132.5 -109q196 -40 361.5 -151t276.5 -274zM816 1771q-53 69 -132.5 109t-171.5 40q-159 0 -271.5 -112.5t-112.5 -271.5
q0 -102 50 -190q111 163 276.5 274t361.5 151zM896 1280h128v-640h-128v640zM1024 768h384v-128h-384v128z" />
    <glyph glyph-name="uniE005" unicode="&#xe005;" 
d="M2051 320q0 92 -17.5 167t-47 127t-68 94.5t-81 75t-85 63.5t-81 66t-68 75.5t-47 98.5t-17.5 129q0 57 -10 96q-25 169 -129 295.5t-251 167.5q3 12 3 24q0 50 -37.5 85.5t-90.5 35.5t-90.5 -35.5t-37.5 -85.5q0 -12 3 -24q-166 -47 -274.5 -199t-112.5 -348v-12
q0 -71 -17.5 -129t-47 -98.5t-68 -75.5t-81 -66t-85 -63.5t-81 -75t-68 -94.5t-47 -127t-17.5 -167q0 -75 104 -141t285.5 -110.5t408.5 -60.5q33 -62 93.5 -99t132.5 -37t132.5 37t93.5 99q227 16 408.5 60.5t285.5 110.5t104 141v1zM1652 212q-157 -42 -373 -61
q-8 99 -81.5 166t-173.5 67t-173.5 -67t-81.5 -166q-216 19 -373 61q-183 49 -247 108q64 59 247 108q272 72 628 72t628 -72q183 -49 247 -108q-64 -59 -247 -108z" />
    <glyph glyph-name="uniE006" unicode="&#xe006;" 
d="M2048 256q-159 0 -271.5 112.5t-112.5 271.5v570q0 209 -145.5 369t-366.5 201v140h-256v-140q-221 -41 -366.5 -201t-145.5 -369v-570q0 -159 -112.5 -271.5t-271.5 -112.5v-128h859q-16 -37 -16 -75q0 -75 53 -128t128 -53t128 53t53 128q0 38 -16 75h859v128z" />
    <glyph glyph-name="uniE007" unicode="&#xe007;" 
d="M2048 256q-159 0 -271.5 112.5t-112.5 271.5v570q0 209 -145.5 369t-366.5 201v140h-256v-140q-221 -41 -366.5 -201t-145.5 -369v-570q0 -159 -112.5 -271.5t-271.5 -112.5v-128h859q-16 -37 -16 -75q0 -75 53 -128t128 -53t128 53t53 128q0 38 -16 75h859v128z
M1408 768h-256v-256h-256v256h-256v256h256v256h256v-256h256v-256z" />
    <glyph glyph-name="uniE008" unicode="&#xe008;" 
d="M2048 256q-159 0 -271.5 112.5t-112.5 271.5v570q0 209 -145.5 369t-366.5 201v140h-256v-140q-221 -41 -366.5 -201t-145.5 -369v-570q0 -159 -112.5 -271.5t-271.5 -112.5v-128h859q-16 -37 -16 -75q0 -75 53 -128t128 -53t128 53t53 128q0 38 -16 75h859v128z
M1408 768h-768v256h768v-256z" />
    <glyph glyph-name="uniE009" unicode="&#xe009;" 
d="M2048 256q-159 0 -271.5 112.5t-112.5 271.5v570q0 209 -145.5 369t-366.5 201v140h-256v-140q-221 -41 -366.5 -201t-145.5 -369v-570q0 -159 -112.5 -271.5t-271.5 -112.5v-128h859q-16 -37 -16 -75q0 -75 53 -128t128 -53t128 53t53 128q0 38 -16 75h859v128zM896 440
l-310 410l96 96l214 -154l490 434l100 -100z" />
    <glyph glyph-name="uniE00A" unicode="&#xe00a;" 
d="M2048 256q-159 0 -271.5 112.5t-112.5 271.5v570q0 209 -145.5 369t-366.5 201v140h-256v-140q-221 -41 -366.5 -201t-145.5 -369v-570q0 -159 -112.5 -271.5t-271.5 -112.5v-128h859q-16 -37 -16 -75q0 -75 53 -128t128 -53t128 53t53 128q0 38 -16 75h859v128z
M1408 512h-156l-228 228l-228 -228h-156v156l228 228l-228 228v156h156l228 -228l228 228h156v-156l-228 -228l228 -228v-156z" />
    <glyph glyph-name="uniE00B" unicode="&#xe00b;" 
d="M1024 1534v130h256v128q0 53 -37.5 90.5t-90.5 37.5h-384q-53 0 -90.5 -37.5t-37.5 -90.5v-128h256v-130q-159 -12 -301 -82.5t-244.5 -180.5t-162.5 -258t-60 -309q0 -169 66 -323.5t177 -265.5t265.5 -177t323.5 -66t323.5 66t265.5 177t177 265.5t66 323.5
q0 161 -60 309t-162.5 258t-244.5 180.5t-301 82.5zM1413 251q-91 -91 -208 -139t-245 -48t-245 48t-208 139t-139 208t-48 245t48 245t139 208q87 87 199 135t234 52l-44 -628q-3 -38 15 -57t49 -19t49 19t15 57l-44 628q122 -4 234 -52t199 -135q91 -91 139 -208t48 -245
t-48 -245t-139 -208z" />
    <glyph glyph-name="uniE00C" unicode="&#xe00c;" 
d="M0 0q0 -53 37.5 -90.5t90.5 -37.5h1792q53 0 90.5 37.5t37.5 90.5v1152h-2048v-1152zM1408 1024h512v-256h-512v256zM1408 640h512v-256h-512v256zM1408 256h512v-256h-512v256zM768 1024h512v-256h-512v256zM768 640h512v-256h-512v256zM768 256h512v-256h-512v256z
M128 1024h512v-256h-512v256zM128 640h512v-256h-512v256zM128 256h512v-256h-512v256zM1920 1664h-256v183q0 30 -19 51.5t-45 21.5t-45 -21.5t-19 -51.5v-183h-1024v183q0 30 -19 51.5t-45 21.5t-45 -21.5t-19 -51.5v-183h-256q-53 0 -90.5 -37.5t-37.5 -90.5v-256h2048
v256q0 53 -37.5 90.5t-90.5 37.5zM448 1344q-53 0 -90.5 37.5t-37.5 90.5q0 35 17.5 64.5t46.5 46.5v-111q0 -26 19 -45t45 -19t45 19t19 45v111q29 -17 46.5 -46.5t17.5 -64.5q0 -53 -37.5 -90.5t-90.5 -37.5zM1600 1344q-53 0 -90.5 37.5t-37.5 90.5q0 35 17.5 64.5
t46.5 46.5v-111q0 -26 19 -45t45 -19t45 19t19 45v111q29 -17 46.5 -46.5t17.5 -64.5q0 -53 -37.5 -90.5t-90.5 -37.5z" />
    <glyph glyph-name="uniE00D" unicode="&#xe00d;" 
d="M640 1152h256v-256h-256v256zM1024 1152h256v-256h-256v256zM1408 1152h256v-256h-256v256zM256 384h256v-256h-256v256zM640 384h256v-256h-256v256zM1024 384h256v-256h-256v256zM640 768h256v-256h-256v256zM1024 768h256v-256h-256v256zM1408 768h256v-256h-256v256z
M256 768h256v-256h-256v256zM1664 1920v-128h-256v128h-896v-128h-256v128h-256v-2048h1920v2048h-256zM1792 0h-1664v1408h1664v-1408z" />
    <glyph glyph-name="uniE00E" unicode="&#xe00e;" 
d="M256 1280h128v-128h-128v128zM512 1280h128v-128h-128v128zM768 1280h128v-128h-128v128zM1024 1280h128v-128h-128v128zM1280 1280h128v-128h-128v128zM1536 1280h128v-128h-128v128zM256 1024h128v-128h-128v128zM512 1024h128v-128h-128v128zM768 1024h128v-128h-128
v128zM1024 1024h128v-128h-128v128zM1280 1024h128v-128h-128v128zM1536 1024h128v-128h-128v128zM256 768h128v-128h-128v128zM512 768h128v-128h-128v128zM768 768h128v-128h-128v128zM1024 768h128v-128h-128v128zM1280 768h128v-128h-128v128zM1536 768h128v-128h-128
v128zM256 512h128v-128h-128v128zM512 512h128v-128h-128v128zM768 512h128v-128h-128v128zM1024 512h128v-128h-128v128zM1280 512h128v-128h-128v128zM1536 512h128v-128h-128v128zM256 256h128v-128h-128v128zM512 256h128v-128h-128v128zM768 256h128v-128h-128v128z
M1024 256h128v-128h-128v128zM1280 256h128v-128h-128v128zM1536 256h128v-128h-128v128zM1664 1792v128h-256v-256h-128v128h-640v-128h-128v256h-256v-128h-256v-1920h1920v1920h-256zM1792 0h-1664v1408h1664v-1408z" />
    <glyph glyph-name="uniE00F" unicode="&#xe00f;" 
d="M1664 1536h-128v-256h-384v256h-384v-256h-384v256h-128q-52 0 -90 -38t-38 -90v-1408q0 -52 38 -90t90 -38h1408q52 0 90 38t38 90v1408q0 52 -38 90t-90 38zM512 0h-256v256h256v-256zM512 384h-256v256h256v-256zM512 768h-256v256h256v-256zM896 0h-256v256h256v-256
zM896 384h-256v256h256v-256zM896 768h-256v256h256v-256zM1280 0h-256v256h256v-256zM1280 384h-256v256h256v-256zM1280 768h-256v256h256v-256zM1664 0h-256v256h256v-256zM1664 384h-256v256h256v-256zM1664 768h-256v256h256v-256zM640 1664q0 26 -19 45t-45 19
t-45 -19t-19 -45v-256h128v256zM1408 1664q0 26 -19 45t-45 19t-45 -19t-19 -45v-256h128v256z" />
    <glyph glyph-name="uniE010" unicode="&#xe010;" 
d="M1792 1664h-192v-64q0 -53 -37.5 -90.5t-90.5 -37.5t-90.5 37.5t-37.5 90.5v64h-640v-64q0 -53 -37.5 -90.5t-90.5 -37.5t-90.5 37.5t-37.5 90.5v64h-192q-52 0 -90 -38t-38 -90v-1408q0 -52 38 -90t90 -38h1536q52 0 90 38t38 90v1408q0 52 -38 90t-90 38zM1792 128
h-1536v1152h1536v-1152zM576 1536q26 0 45 19t19 45v256q0 26 -19 45t-45 19t-45 -19t-19 -45v-256q0 -26 19 -45t45 -19zM1472 1536q26 0 45 19t19 45v256q0 26 -19 45t-45 19t-45 -19t-19 -45v-256q0 -26 19 -45t45 -19zM1152 1152h-640v-128h512v-256h-512v-128h512v-256
h-512v-128h640v896zM1408 256h128v896h-256v-128h128v-768zM1744 -48h-1440q-54 0 -91 30.5t-37 81.5v-64q0 -52 38 -90t90 -38h1440q52 0 90 38t38 90v64q0 -51 -37 -81.5t-91 -30.5z" />
    <glyph glyph-name="uniE011" unicode="&#xe011;" 
d="M2041 384l-50 896q-3 53 -43 90.5t-92 37.5h-320v512h-1024v-512h-320q-52 0 -92 -37.5t-43 -90.5l-50 -896q-3 -52 32.5 -90t88.5 -38h282l-154 -384h1536l-154 384h282q53 0 88.5 38t32.5 90zM640 1792h768v-384h-768v384zM445 0l154 384h850l154 -384h-1158z
M1792 1024h-128v256h128v-256z" />
    <glyph glyph-name="uniE012" unicode="&#xe012;" 
d="M512 1792h1024v-256h-1024v256zM1920 1408h-1792q-52 0 -90 -38t-38 -90v-640q0 -52 38 -90t90 -38h384v-512h1024v512h384q52 0 90 38t38 90v640q0 52 -38 90t-90 38zM1408 128h-768v640h768v-640zM1949 1216q0 -38 -27.5 -65.5t-65.5 -27.5t-65.5 27.5t-27.5 65.5
t27.5 65.5t65.5 27.5t65.5 -27.5t27.5 -65.5z" />
    <glyph glyph-name="uniE013" unicode="&#xe013;" 
d="M1792 768v-512h-1536v512h-256v-768h2048v768h-256zM1664 1792h-1280v-1408h1280v1408zM1408 640h-768v128h768v-128zM1408 1024h-768v128h768v-128zM1408 1408h-768v128h768v-128z" />
    <glyph glyph-name="uniE014" unicode="&#xe014;" 
d="M1280 1762v-610h-512v610q-77 -18 -141.5 -45.5t-121 -69.5t-89 -103t-32.5 -136v-848q0 -114 50.5 -217.5t136.5 -178.5t204.5 -119.5t248.5 -44.5t248.5 44.5t204.5 119.5t136.5 178.5t50.5 217.5v848q0 75 -32.5 136t-89 103t-121 69.5t-141.5 45.5zM1152 1784
q-75 8 -128 8t-128 -8v-504h256v504z" />
    <glyph glyph-name="uniE015" unicode="&#xe015;" 
d="M1591 647l-307 512q-52 87 -133.5 147t-173 84.5t-191 14t-188.5 -59.5q-86 154 -86 255q0 153 87 195q17 11 22 15q19 19 19 45.5t-19 45.5q-34 34 -77 10q-77 -38 -118.5 -118t-41.5 -193q0 -139 110 -331q-130 -122 -155.5 -299.5t67.5 -336.5l307 -512
q71 -118 188.5 -183.5t250.5 -65.5q141 0 263 73q119 71 185 190.5t64 256t-73 255.5zM944 729q-27 -18 -59 -18q-61 0 -93 51l-147 232q-25 38 -14.5 82t48.5 69t82.5 15t69.5 -48l147 -231q25 -38 14.5 -82.5t-48.5 -69.5z" />
    <glyph glyph-name="uniE016" unicode="&#xe016;" 
d="M960 1792q-64 0 -134 -10t-151 -37t-144 -68t-105 -111t-42 -158v-848q0 -152 77 -281t210 -204t289 -75t289 75t210 204t77 281v848q0 88 -42 158t-105 111t-144 68t-151 37t-134 10zM1408 560q0 -179 -130 -304q-63 -61 -142 -94q-81 -34 -176 -34t-176 34
q-79 33 -142 94q-130 125 -130 304v464h896v-464zM1408 1152h-384v512q134 -12 241 -64q73 -36 107 -80q36 -48 36 -112v-256z" />
    <glyph glyph-name="uniE017" unicode="&#xe017;" 
d="M960 1792q-64 0 -134 -10t-151 -37t-144 -68t-105 -111t-42 -158v-848q0 -152 77 -281t210 -204t289 -75t289 75t210 204t77 281v848q0 88 -42 158t-105 111t-144 68t-151 37t-134 10zM512 1408q0 64 36 112q34 44 107 80q107 52 241 64v-512h-384v256zM1408 560
q0 -179 -130 -304q-63 -61 -142 -94q-81 -34 -176 -34t-176 34q-79 33 -142 94q-130 125 -130 304v464h896v-464z" />
    <glyph glyph-name="uniE018" unicode="&#xe018;" horiz-adv-x="2304" 
d="M2176 1664h-2048q-52 0 -90 -38t-38 -90v-1280q0 -52 38 -90t90 -38h2048q52 0 90 38t38 90v1280q0 52 -38 90t-90 38zM1280 1408h256v-256h-256v256zM1664 1024v-256h-256v256h256zM896 1408h256v-256h-256v256zM1280 1024v-256h-256v256h256zM512 1408h256v-256h-256
v256zM896 1024v-256h-256v256h256zM256 1408h128v-256h-128v256zM256 1024h256v-256h-256v256zM384 384h-128v256h128v-256zM1536 384h-1024v256h1024v-256zM2048 384h-384v256h384v-256zM2048 768h-256v256h256v-256zM2048 1152h-384v256h384v-256z" />
    <glyph glyph-name="uniE019" unicode="&#xe019;" 
d="M1792 1408h-1664q-52 0 -90 -38t-38 -90v-896q0 -52 38 -90t90 -38h1664q52 0 90 38t38 90v896q0 52 -38 90t-90 38zM1792 384h-1664v896h1664v-896zM512 640h896v-128h-896v128zM1408 896h128v-128h-128v128zM1152 896h128v-128h-128v128zM896 896h128v-128h-128v128z
M640 896h128v-128h-128v128zM384 896h128v-128h-128v128zM1280 1152h128v-128h-128v128zM1536 1152h128v-128h-128v128zM1024 1152h128v-128h-128v128zM768 1152h128v-128h-128v128zM512 1152h128v-128h-128v128zM256 1152h128v-128h-128v128z" />
    <glyph glyph-name="uniE01A" unicode="&#xe01a;" 
d="M0 1792v-1280h2048v1280h-2048zM1920 640h-1792v1024h1792v-1024zM1344 384h-640l-64 -256l-128 -128h1024l-128 128z" />
    <glyph glyph-name="uniE01B" unicode="&#xe01b;" 
d="M0 1792v-1280h2048v1280h-2048zM1920 640h-1792v1024h1792v-1024zM1344 384h-640l-64 -256l-128 -128h1024l-128 128zM192 1008h1664v-32h-1664v32zM192 1072h1664v-32h-1664v32zM192 944h1664v-32h-1664v32zM192 1136h1664v-32h-1664v32zM192 880h1664v-32h-1664v32z
M192 752h1664v-32h-1664v32zM192 816h1664v-32h-1664v32zM192 1520h1664v-32h-1664v32zM192 1200h1664v-32h-1664v32zM192 1456h1664v-32h-1664v32zM192 1584h1664v-32h-1664v32zM192 1264h1664v-32h-1664v32zM192 1328h1664v-32h-1664v32zM192 1392h1664v-32h-1664v32z" />
    <glyph glyph-name="uniE01C" unicode="&#xe01c;" 
d="M192 976h1140l-56 32h-1084v-32zM192 1040h1028l-56 32h-972v-32zM192 1104h916l-56 32h-860v-32zM192 1168h804l-56 32h-748v-32zM192 912h1252l-56 32h-1196v-32zM192 848h1364l-56 32h-1308v-32zM192 784h1476l-56 32h-1420v-32zM192 1552h132l-56 32h-76v-32z
M192 752v-32h1588l-56 32h-1532zM192 1488h244l-56 32h-188v-32zM192 1424h356l-56 32h-300v-32zM192 1296h580l-56 32h-524v-32zM192 1360h468l-56 32h-412v-32zM192 1232h692l-56 32h-636v-32zM0 1792v-1280h2048v1280h-2048zM1920 640h-1792v1024h1792v-1024zM1344 384
h-640l-64 -256l-128 -128h1024l-128 128z" />
    <glyph glyph-name="uniE01D" unicode="&#xe01d;" 
d="M2048 256v1536h-2048v-1536h896v-128h-384v-128h1024v128h-384v128h896zM256 1536h1536v-1024h-1536v1024z" />
    <glyph glyph-name="uniE01E" unicode="&#xe01e;" 
d="M1792 512v1024q0 52 -38 90t-90 38h-1280q-52 0 -90 -38t-38 -90v-1024h-256v-384h2048v384h-256zM1280 256h-512v128h512v-128zM1664 512h-1280v1024h1280v-1024z" />
    <glyph glyph-name="uniE01F" unicode="&#xe01f;" 
d="M1472 1920h-896q-80 0 -136 -56t-56 -136v-1664q0 -80 56 -136t136 -56h896q80 0 136 56t56 136v1664q0 80 -56 136t-136 56zM768 1824h512v-64h-512v64zM1024 0q-53 0 -90.5 37.5t-37.5 90.5t37.5 90.5t90.5 37.5t90.5 -37.5t37.5 -90.5t-37.5 -90.5t-90.5 -37.5z
M1536 384h-1024v1280h1024v-1280z" />
    <glyph glyph-name="uniE020" unicode="&#xe020;" 
d="M1536 1920h-1152q-52 0 -90 -38t-38 -90v-1792q0 -52 38 -90t90 -38h1152q52 0 90 38t38 90v1792q0 52 -38 90t-90 38zM960 -36q-41 0 -70.5 29.5t-29.5 70.5t29.5 70.5t70.5 29.5t70.5 -29.5t29.5 -70.5t-29.5 -70.5t-70.5 -29.5zM1536 256h-1152v1408h1152v-1408z" />
    <glyph glyph-name="uniE021" unicode="&#xe021;" 
d="M1600 1920h-1280q-80 0 -136 -56t-56 -136v-1664q0 -80 56 -136t136 -56h1280q80 0 136 56t56 136v1664q0 80 -56 136t-136 56zM960 -64q-26 0 -45 19t-19 45t19 45t45 19t45 -19t19 -45t-19 -45t-45 -19zM1536 128h-1152v1536h1152v-1536z" />
    <glyph glyph-name="uniE022" unicode="&#xe022;" 
d="M1344 1920q-26 0 -45 -19t-19 -45v-192h-704q-26 0 -45 -19t-19 -45v-1664q0 -26 19 -45t45 -19h768q26 0 45 19t19 45v1920q0 26 -19 45t-45 19zM768 0h-128v128h128v-128zM768 256h-128v128h128v-128zM768 512h-128v128h128v-128zM1024 0h-128v128h128v-128zM1024 256
h-128v128h128v-128zM1024 512h-128v128h128v-128zM1280 0h-128v128h128v-128zM1280 256h-128v128h128v-128zM1280 512h-128v128h128v-128zM1280 832q0 -26 -19 -45t-45 -19h-512q-26 0 -45 19t-19 45v640q0 26 19 45t45 19h512q26 0 45 -19t19 -45v-640z" />
    <glyph glyph-name="uniE023" unicode="&#xe023;" 
d="M1962 1344q-266 39 -564 54l330 330l-128 128l-449 -449q-42 1 -127 1l-512 512l-128 -128l388 -388q-352 -12 -686 -60q-86 -336 -86 -704t86 -704q448 -64 938 -64t938 64q86 336 86 704t-86 704zM1728 171q-330 -43 -704 -43t-704 43q-64 225 -64 469t64 469
q330 43 704 43t704 -43q64 -225 64 -469t-64 -469z" />
    <glyph glyph-name="uniE024" unicode="&#xe024;" 
d="M1408 1920h-768l-384 -256v-512h1536v512zM1280 1280h-128v85q0 17 -13 30t-30 13h-170q-17 0 -30 -13t-13 -30v-85h-128v213q0 17 13 30t30 13h426q17 0 30 -13t13 -30v-213zM256 512h1536v512h-1536v-512zM768 853q0 17 13 30t30 13h426q17 0 30 -13t13 -30v-213h-128
v85q0 17 -13 30t-30 13h-170q-17 0 -30 -13t-13 -30v-85h-128v213zM256 -128h1536v512h-1536v-512zM768 213q0 17 13 30t30 13h426q17 0 30 -13t13 -30v-213h-128v85q0 17 -13 30t-30 13h-170q-17 0 -30 -13t-13 -30v-85h-128v213z" />
    <glyph glyph-name="uniE025" unicode="&#xe025;" horiz-adv-x="2176" 
d="M512 1792h-384q-52 0 -90 -38t-38 -90v-1536q0 -52 38 -90t90 -38h384q52 0 90 38t38 90v1536q0 52 -38 90t-90 38zM384 304q0 -20 -14 -34t-34 -14h-32q-20 0 -34 14t-14 34v32q0 20 14 34t34 14h32q20 0 34 -14t14 -34v-32zM512 640h-384v640h384v-640zM512 1408h-384
v128h384v-128zM1280 1792h-384q-52 0 -90 -38t-38 -90v-1536q0 -52 38 -90t90 -38h384q52 0 90 38t38 90v1536q0 52 -38 90t-90 38zM1152 304q0 -20 -14 -34t-34 -14h-32q-20 0 -34 14t-14 34v32q0 20 14 34t34 14h32q20 0 34 -14t14 -34v-32zM1280 640h-384v640h384v-640z
M1280 1408h-384v128h384v-128zM2048 1792h-384q-52 0 -90 -38t-38 -90v-1536q0 -52 38 -90t90 -38h384q52 0 90 38t38 90v1536q0 52 -38 90t-90 38zM1920 304q0 -20 -14 -34t-34 -14h-32q-20 0 -34 14t-14 34v32q0 20 14 34t34 14h32q20 0 34 -14t14 -34v-32zM2048 640h-384
v640h384v-640zM2048 1408h-384v128h384v-128z" />
    <glyph glyph-name="uniE026" unicode="&#xe026;" 
d="M1408 1536h-768l-640 -768v-320v-192q0 -53 37.5 -90.5t90.5 -37.5h1792q53 0 90.5 37.5t37.5 90.5v192v320zM1536 768l-256 -256h-512l-256 256h-345l533 640h648l533 -640h-345z" />
    <glyph glyph-name="uniE027" unicode="&#xe027;" 
d="M1408 1536h-768l-640 -768v-512q0 -53 37.5 -90.5t90.5 -37.5h1792q53 0 90.5 37.5t37.5 90.5v512zM1280 512h-512l-128 128h768zM167 768l533 640h648l533 -640h-1714zM570 1152h908l-107 128h-694zM357 896h1334l-106 128h-1122z" />
    <glyph glyph-name="uniE028" unicode="&#xe028;" 
d="M1797 1920l134 -1143l-150 -18l-121 1021h-1272l-121 -1021l-150 18l134 1143h1546zM512 1664h1024v-128h-1024v128zM512 1408h1024v-128h-1024v128zM512 1152h1024v-128h-1024v128zM512 896h1024v-128h-1024v128zM1984 640h-1920q-26 0 -39 -18t-5 -43l216 -646
q8 -25 33 -43t51 -18h1408q26 0 51 18t33 43l216 646q8 25 -5 43t-39 18zM1280 384h-512v128h512v-128z" />
    <glyph glyph-name="uniE029" unicode="&#xe029;" 
d="M128 1664h1792v-256h-1792v256zM256 128h1536v1152h-1536v-1152zM768 1152h512v-128h-512v128z" />
    <glyph glyph-name="uniE02A" unicode="&#xe02a;" 
d="M1664 1792h-1280l-384 -384v-1344q0 -26 19 -45t45 -19h1920q26 0 45 19t19 45v1344zM1024 256l-640 512h384v384h512v-384h384zM309 1536l128 128h1174l128 -128h-1430z" />
    <glyph glyph-name="uniE02B" unicode="&#xe02b;" 
d="M1664 1792h-1280l-384 -384v-1344q0 -26 19 -45t45 -19h1920q26 0 45 19t19 45v1344zM1280 640v-384h-512v384h-384l640 512l640 -512h-384zM309 1536l128 128h1174l128 -128h-1430z" />
    <glyph glyph-name="uniE02C" unicode="&#xe02c;" 
d="M1024 768l512 512h-384v512h-256v-512h-384zM1489 977l-143 -143l520 -194l-842 -314l-842 314l520 194l-143 143l-559 -209v-512l1024 -384l1024 384v512z" />
    <glyph glyph-name="uniE02D" unicode="&#xe02d;" 
d="M896 768h256v512h384l-512 512l-512 -512h384v-512zM1280 1056v-197l586 -219l-842 -314l-842 314l586 219v197l-768 -288v-512l1024 -384l1024 384v512z" />
    <glyph glyph-name="uniE02E" unicode="&#xe02e;" 
d="M1792 1920h-1792v-2048h2048v1792zM1024 1664h256v-512h-256v512zM1792 128h-1536v1536h128v-640h1152v640h150l106 -106v-1430z" />
    <glyph glyph-name="uniE02F" unicode="&#xe02f;" 
d="M1024 1087q-79 0 -135 -56t-56 -135t56 -135t135 -56t135 56t56 135t-56 135t-135 56zM1024 1920q-209 0 -398.5 -81t-326.5 -218t-218 -326.5t-81 -398.5t81 -398.5t218 -326.5t326.5 -218t398.5 -81t398.5 81t326.5 218t218 326.5t81 398.5t-81 398.5t-218 326.5
t-326.5 218t-398.5 81zM1758 1424q-16 22 -24 32q8 -10 24 -32zM1707 1488q-3 3 -7.5 8.5t-6.5 7.5q2 -2 6.5 -7.5t7.5 -8.5zM1692 1505q-4 5 -14 15q3 -2 7.5 -7t6.5 -8zM402 240q3 -2 8.5 -8t8.5 -8q-3 2 -8.5 8t-8.5 8zM420 224q3 -3 9 -8t9 -8q-3 3 -9 8t-9 8zM545 129
q-4 2 -11.5 7t-11.5 8h32zM574 176h-97q3 -2 10.5 -7.5t11.5 -8.5q-28 20 -61 48h156zM522 144q-5 3 -13 9t-9 7q1 -1 9 -7t13 -9zM614 240h-212l-17 17q-20 20 -29 30q3 -3 7.5 -8t6.5 -7h264zM341 304q3 -2 7 -7.5t7 -8.5q-3 3 -7 8.5t-7 7.5zM654 304h-313q-29 34 -51 64
q16 -22 24 -32h360zM694 368h-404q-29 42 -33 49q2 -3 5.5 -8.5t5.5 -8.5h446zM734 432h-452l84 53l-33 -21h421zM774 496h-390l91 57l-40 -25h359zM1696 1316l19 12h-421l-20 -32h390l-51 -32h-359l-20 -32h328l21 13l-79 -49l6 4h-286q26 -18 42 -32h193l-51 -32h-110
q9 -10 25 -32h34l16 10l-40 -25q55 -88 55 -193q0 -151 -106.5 -257.5t-257.5 -106.5q-105 0 -193 55l-17 -27h-328l99 62l-47 -30h286q-26 18 -42 32h-193l126 79q-55 88 -55 193q0 151 106.5 257.5t257.5 106.5q105 0 193 -55l286 458q30 -20 45 -31q-1 1 -9 7t-13 9h-32
l-20 -32h97q-3 2 -11 7.5t-11 8.5q28 -20 61 -48h-156l-20 -32h212q-3 2 -8.5 8t-8.5 8q6 -5 34 -33l15 -15h-264l-20 -32h313q9 -10 27 -32h-360l-20 -32h404q29 -42 33 -49zM1611 1584q3 -2 8.5 -8t8.5 -8q-3 2 -8.5 8t-8.5 8zM1334 1392l-20 -32h452l25 15q-2 3 -5.5 8.5
t-5.5 8.5h-446zM691 688l-51 -32h110q-9 10 -25 32h-34z" />
    <glyph glyph-name="uniE030" unicode="&#xe030;" 
d="M384 128h1280q159 0 271.5 112.5t112.5 271.5h-2048q0 -159 112.5 -271.5t271.5 -112.5zM1664 384h128v-128h-128v128zM1920 1664h-1792l-128 -1024h2048z" />
    <glyph glyph-name="uniE031" unicode="&#xe031;" 
d="M1664 1408h-1280l-384 -512h2048zM0 384h2048v384h-2048v-384zM1792 640h128v-128h-128v128z" />
    <glyph glyph-name="uniE032" unicode="&#xe032;" 
d="M1024 1920q-278 0 -514 -43t-373 -116.5t-137 -160.5v-256q0 -87 137 -160.5t373 -116.5t514 -43t514 43t373 116.5t137 160.5v256q0 87 -137 160.5t-373 116.5t-514 43zM1021 896q-340 0 -608.5 62.5t-367.5 161.5q-45 -45 -45 -96v-256q0 -87 137 -160.5t373 -116.5
t514 -43t514 43t373 116.5t137 160.5v256q0 47 -49 96q-99 -99 -368.5 -161.5t-609.5 -62.5zM1021 320q-340 0 -608.5 62.5t-367.5 161.5q-45 -45 -45 -96v-256q0 -87 137 -160.5t373 -116.5t514 -43t514 43t373 116.5t137 160.5v256q0 47 -49 96q-99 -99 -368.5 -161.5
t-609.5 -62.5z" />
    <glyph glyph-name="uniE033" unicode="&#xe033;" 
d="M2048 1472q0 124 -116 222q-87 73 -231 125q-284 101 -677 101t-677 -101q-144 -52 -231 -125q-116 -98 -116 -222v-576v0v-576q0 -124 116 -222q87 -73 231 -125q284 -101 677 -101t677 101q144 52 231 125q116 98 116 222v576v0v576zM462 1588q237 76 562 76t562 -76
q68 -22 116.5 -48t66 -41.5t22.5 -26.5q-5 -11 -22.5 -26.5t-66 -41.5t-116.5 -48q-237 -76 -562 -76t-562 76q-68 22 -116.5 48t-66 41.5t-22.5 26.5q5 11 22.5 26.5t66 41.5t116.5 48zM1586 204q-237 -76 -562 -76t-562 76q-68 22 -116.5 48t-66 41.5t-22.5 26.5h-1v266
q39 -18 91 -37q284 -101 677 -101t677 101q54 20 90 37v-266q-5 -11 -22.5 -26.5t-66 -41.5t-116.5 -48zM1586 780q-237 -76 -562 -76t-562 76q-68 22 -116.5 48t-66 41.5t-22.5 26.5h-1v266q39 -18 91 -37q284 -101 677 -101t677 101q54 20 90 37v-266q-5 -11 -22.5 -26.5
t-66 -41.5t-116.5 -48z" />
    <glyph glyph-name="uniE034" unicode="&#xe034;" 
d="M1024 1920q-278 0 -514 -51.5t-373 -140t-137 -192.5v-1280q0 -104 137 -192.5t373 -140t514 -51.5t514 51.5t373 140t137 192.5v1280q0 104 -137 192.5t-373 140t-514 51.5zM1920 256q0 -6 -5.5 -16t-20.5 -26t-38 -33t-63 -37.5t-90 -39.5q-128 -48 -300 -75
q-183 -29 -379 -29t-379 29q-172 27 -300 75q-50 19 -90 39.5t-63 37.5t-38 33t-20.5 26t-5.5 16v454q134 -90 372.5 -144t523.5 -54t523.5 54t372.5 144v-454zM1920 896q0 -6 -5.5 -16t-20.5 -26t-38 -33t-63 -37.5t-90 -39.5q-128 -48 -300 -75q-183 -29 -379 -29t-379 29
q-172 27 -300 75q-50 19 -90 39.5t-63 37.5t-38 33t-20.5 26t-5.5 16v454q134 -90 372.5 -144t523.5 -54t523.5 54t372.5 144v-454zM1761 1408q-21 -10 -58 -24q-128 -48 -300 -75q-183 -29 -379 -29t-379 29q-172 27 -300 75q-37 14 -58 24q-58 27 -97 55.5t-50.5 45.5
t-11.5 27q0 6 5.5 16t20.5 26t38 33t63 37.5t90 39.5q128 48 300 75q183 29 379 29t379 -29q172 -27 300 -75q50 -19 90 -39.5t63 -37.5t38 -33t20.5 -26t5.5 -16q0 -10 -11.5 -27t-50.5 -45.5t-97 -55.5z" />
    <glyph glyph-name="uniE035" unicode="&#xe035;" 
d="M1024 1792q-208 0 -395 -79t-329 -221l-300 300v-768h768l-287 287q106 106 246.5 165.5t296.5 59.5q209 0 385.5 -103t279.5 -279.5t103 -385.5q0 -169 -69 -318.5t-191 -257.5l169 -192q163 144 255 343.5t92 424.5q0 209 -81 398.5t-218 326.5t-326.5 218t-398.5 81z
" />
    <glyph glyph-name="uniE036" unicode="&#xe036;" 
d="M0 768q0 -225 92 -424.5t255 -343.5l169 192q-122 108 -191 257.5t-69 318.5q0 209 103 385.5t279.5 279.5t385.5 103q156 0 296.5 -59.5t246.5 -165.5l-287 -287h768v768l-300 -300q-142 142 -329 221t-395 79q-209 0 -398.5 -81t-326.5 -218t-218 -326.5t-81 -398.5z
" />
    <glyph glyph-name="uniE037" unicode="&#xe037;" 
d="M256 768q0 182 71 348t191 286t286 191t348 71t348 -71t286 -191t191 -286t71 -348q0 -256 -132.5 -469t-352.5 -327q163 101 260 278.5t97 389.5q0 156 -55.5 298.5t-150 245t-225 163.5t-273.5 61q-171 0 -320.5 -84t-247.5 -230t-126 -326h246l-384 -448l-384 448h256
z" />
    <glyph glyph-name="uniE038" unicode="&#xe038;" 
d="M1792 768q0 182 -71 348t-191 286t-286 191t-348 71t-348 -71t-286 -191t-191 -286t-71 -348q0 -256 132.5 -469t352.5 -327q-163 101 -260 278.5t-97 389.5q0 156 55.5 298.5t150 245t225 163.5t273.5 61q171 0 320.5 -84t247.5 -230t126 -326h-246l384 -448l384 448
h-256z" />
    <glyph glyph-name="uniE039" unicode="&#xe039;" 
d="M0 1152h2048v768zM2048 0v768h-2048z" />
    <glyph glyph-name="uniE03A" unicode="&#xe03a;" 
d="M1152 1920v-2048h768zM0 -128h768v2048z" />
    <glyph glyph-name="uniE03B" unicode="&#xe03b;" 
d="M1408 1408v512h-1408v-1408h512v-640h1536v1536h-640zM1280 1264h-640v16h640v-16zM1792 1136h-384v16h384v-16zM640 656h640v-16h-640v16zM256 784h256v-16h-256v16zM512 1168v-32h-256v32h256zM256 1200v32h256v-32h-256zM512 1104v-32h-256v32h256zM640 880v32h640
v-32h-640zM1280 848v-32h-640v32h640zM640 944v32h640v-32h-640zM640 1008v32h640v-32h-640zM640 1072v32h640v-32h-640zM512 1040v-32h-256v32h256zM512 976v-32h-256v32h256zM512 912v-32h-256v32h256zM512 848v-32h-256v32h256zM640 784h640v-32h-640v32zM1280 720v-32
h-640v32h640zM768 128v16h1024v-16h-1024zM768 176v32h1024v-32h-1024zM768 240v32h1024v-32h-1024zM768 304v32h1024v-32h-1024zM768 368v32h1024v-32h-1024zM768 432v32h1024v-32h-1024zM768 496v16h640v16h384v-32h-1024zM1408 560v32h384v-32h-384zM1408 624v32h384v-32
h-384zM1408 688v32h384v-32h-384zM1408 752v32h384v-32h-384zM1408 816v32h384v-32h-384zM1408 880v32h384v-32h-384zM1408 944v32h384v-32h-384zM1408 1008v32h384v-32h-384zM1408 1072v32h384v-32h-384zM1280 1136h-640v32h640v-32zM640 1200v32h640v-32h-640zM512 1264
h-256v32h256v-32zM1152 1664v-16h-896v16h896zM1152 1616v-32h-896v32h896zM1152 1552v-32h-896v32h896zM1152 1488v-32h-896v32h896zM1152 1424v-16h-640v-16h-256v32h896zM512 1360v-32h-256v32h256z" />
    <glyph glyph-name="uniE03C" unicode="&#xe03c;" 
d="M1408 1280v640h-1408v-1408h640v-640h1408v1408h-640zM1152 1408h-640v-16h-256v32h896v-16zM256 768v16h256v-16h-256zM256 816v32h256v-32h-256zM256 880v32h256v-32h-256zM256 944v32h256v-32h-256zM256 1008v32h256v-32h-256zM256 1072v32h256v-32h-256zM256 1136v32
h256v-32h-256zM256 1200v32h256v-32h-256zM256 1264v32h256v-32h-256zM256 1328v32h256v-32h-256zM1152 1456h-896v32h896v-32zM1152 1520h-896v32h896v-32zM1152 1584h-896v32h896v-32zM1152 1648h-896v16h896v-16zM1920 0h-1152v1152h1152v-1152z" />
    <glyph glyph-name="uniE03D" unicode="&#xe03d;" 
d="M1408 1408v512h-1408v-1408h512v-640h1536v1536h-640zM1280 1136h-512v16h512v-16zM1280 640h-512v16h512v-16zM1280 688h-512v32h512v-32zM1280 752h-512v32h512v-32zM1280 816h-512v32h512v-32zM1280 880h-512v32h512v-32zM1280 944h-512v32h512v-32zM1280 1008h-512
v32h512v-32zM1280 1072h-512v32h512v-32zM512 640h-384v1152h1152v-384h-768v-768zM1920 0h-1280v384h896v896h384v-1280z" />
    <glyph glyph-name="uniE03E" unicode="&#xe03e;" 
d="M1408 1408v512h-1408v-1408h512v-640h1536v1536h-640zM1792 1136h-384v16h384v-16zM768 128v16h1024v-16h-1024zM768 176v32h1024v-32h-1024zM768 240v32h1024v-32h-1024zM768 304v32h1024v-32h-1024zM768 368v32h1024v-32h-1024zM768 432v32h1024v-32h-1024zM768 496v16
h640v16h384v-32h-1024zM1408 560v32h384v-32h-384zM1408 624v32h384v-32h-384zM1408 688v32h384v-32h-384zM1408 752v32h384v-32h-384zM1408 816v32h384v-32h-384zM1408 880v32h384v-32h-384zM1408 944v32h384v-32h-384zM1408 1008v32h384v-32h-384zM1408 1072v32h384v-32
h-384zM1152 1408h-640v-16h-256v32h896v-16zM256 768v16h256v-16h-256zM256 816v32h256v-32h-256zM256 880v32h256v-32h-256zM256 944v32h256v-32h-256zM256 1008v32h256v-32h-256zM256 1072v32h256v-32h-256zM256 1136v32h256v-32h-256zM256 1200v32h256v-32h-256z
M256 1264v32h256v-32h-256zM256 1328v32h256v-32h-256zM1152 1456h-896v32h896v-32zM1152 1520h-896v32h896v-32zM1152 1584h-896v32h896v-32zM1152 1648h-896v16h896v-16zM640 1280h640v-640h-640v640z" />
    <glyph glyph-name="uniE03F" unicode="&#xe03f;" 
d="M1792 640h-1152v-256h1152v256zM1920 768v-512h-1408v512h1408zM128 1920h256v-2048h-256v2048zM512 1536h896v-512h-896v512z" />
    <glyph glyph-name="uniE040" unicode="&#xe040;" 
d="M1792 768h-640v256h384v512h-384v384h-256v-384h-384v-512h384v-256h-640v-512h640v-384h256v384h640v512zM1664 384h-1280v256h1280v-256z" />
    <glyph glyph-name="uniE041" unicode="&#xe041;" 
d="M256 640h1152v-256h-1152v256zM128 768v-512h1408v512h-1408zM1920 1920h-256v-2048h256v2048zM1536 1536h-896v-512h896v512z" />
    <glyph glyph-name="uniE042" unicode="&#xe042;" 
d="M768 128v1152h-256v-1152h256zM896 0h-512v1408h512v-1408zM2048 1792v-256h-2048v256h2048zM1664 1408v-896h-512v896h512z" />
    <glyph glyph-name="uniE043" unicode="&#xe043;" 
d="M896 128v640h256v-384h512v384h384v256h-384v384h-512v-384h-256v640h-512v-640h-384v-256h384v-640h512zM512 256v1280h256v-1280h-256z" />
    <glyph glyph-name="uniE044" unicode="&#xe044;" 
d="M768 1664v-1152h-256v1152h256zM896 1792h-512v-1408h512v1408zM2048 0v256h-2048v-256h2048zM1664 384v896h-512v-896h512z" />
    <glyph glyph-name="uniE045" unicode="&#xe045;" 
d="M1524 -128q50 91 84 187.5t46.5 198.5t-0.5 195t-64.5 176t-137.5 142.5t-228 92t-328 28.5v-508l-768 768l768 768v-497q195 5 356.5 -34t272.5 -111t187.5 -173.5t109.5 -219t31.5 -249t-40 -262t-112 -260.5t-177.5 -242z" />
    <glyph glyph-name="uniE046" unicode="&#xe046;" 
d="M1152 1423v497l768 -768l-768 -768v508q-186 4 -328 -28.5t-228 -92t-137.5 -142.5t-64.5 -176t-0.5 -195t46.5 -198.5t84 -187.5q-104 112 -177.5 242t-112 260.5t-40 262t31.5 249t109.5 219t187.5 173.5t272.5 111t356.5 34z" />
    <glyph glyph-name="uniE047" unicode="&#xe047;" 
d="M524 1920q-50 -91 -84 -187.5t-46.5 -198.5t0.5 -195t64.5 -176t137.5 -142.5t228 -92t328 -28.5v508l768 -768l-768 -768v497q-195 -5 -356.5 34t-272.5 111t-187.5 173.5t-109.5 219t-31.5 249t40 262t112 260.5t177.5 242z" />
    <glyph glyph-name="uniE048" unicode="&#xe048;" 
d="M896 369v-497l-768 768l768 768v-508q186 -4 328 28.5t228 92t137.5 142.5t64.5 176t0.5 195t-46.5 198.5t-84 187.5q104 -112 177.5 -242t112 -260.5t40 -262t-31.5 -249t-109.5 -219t-187.5 -173.5t-272.5 -111t-356.5 -34z" />
    <glyph glyph-name="uniE049" unicode="&#xe049;" 
d="M1718 1920q51 -93 87.5 -187.5t55.5 -198t12 -195.5t-52 -175.5t-125.5 -143t-219 -92t-324.5 -28.5v508l-768 -768l768 -768v497q164 0 304 42t241.5 115t175 174t109.5 217t39 246t-28.5 258.5t-101.5 257.5t-173 241zM768 1227v181l-768 -768l768 -768v181l-587 587z
" />
    <glyph glyph-name="uniE04A" unicode="&#xe04a;" 
d="M1024 1792q209 0 398.5 -66t326.5 -177t218 -265.5t81 -323.5t-81 -323.5t-218 -265.5t-326.5 -177t-398.5 -66q-86 0 -160 10q-79 -79 -169.5 -132.5t-188.5 -80.5t-184.5 -38t-193.5 -14v54q110 54 183 141.5t73 187.5q0 32 -4 57q-177 117 -278.5 286t-101.5 361
q0 169 81 323.5t218 265.5t326.5 177t398.5 66z" />
    <glyph glyph-name="uniE04B" unicode="&#xe04b;" horiz-adv-x="2304" 
d="M2176 118q0 -67 35 -123t93 -86v-32q-28 -4 -65 -4q-100 0 -189 39.5t-156 109.5q-82 -22 -166 -22q-156 0 -289 68.5t-210 186.5t-77 257t77 257t210 186.5t289 68.5t289 -68.5t210 -186.5t77 -257q0 -163 -107 -297q-21 -45 -21 -97zM1024 1920q205 0 392.5 -64
t324 -172.5t219.5 -258.5t88 -316q-149 67 -320 67q-143 0 -274 -48.5t-234 -139.5q-106 -94 -163 -217t-57 -259q0 -134 55 -256h-31q-86 0 -160 10q-79 -79 -169.5 -132.5t-188.5 -80.5t-184.5 -38t-193.5 -14v54q110 54 183 141.5t73 187.5q0 32 -4 57
q-177 117 -278.5 286t-101.5 361q0 169 81 323.5t218 265.5t326.5 177t398.5 66z" />
    <glyph glyph-name="uniE04C" unicode="&#xe04c;" horiz-adv-x="2304" 
d="M960 1920q156 0 302.5 -39t264.5 -111t207 -167.5t137.5 -214t48.5 -245.5t-48.5 -245.5t-137.5 -214t-207 -167.5t-264.5 -111t-302.5 -39q-68 0 -150 10q-74 -74 -157.5 -124t-173.5 -75.5t-171 -36t-180 -12.5v50q102 50 167 132t65 176q0 30 -4 53
q-166 109 -261 266.5t-95 337.5q0 127 48.5 245.5t137.5 214t207 167.5t264.5 111t302.5 39zM1992 179q0 -83 49.5 -153t134.5 -111v-43q-179 4 -315 47.5t-259 164.5q-67 -8 -130 -8q-285 0 -507 138q217 1 415.5 68.5t353.5 193.5q159 130 245 294q93 177 93 373
q0 31 -3 62q111 -92 173 -211.5t62 -251.5q0 -154 -82 -289t-226 -228q-4 -30 -4 -46z" />
    <glyph glyph-name="uniE04D" unicode="&#xe04d;" 
d="M1024 1536q-166 0 -315 -51q-140 -48 -248 -135q-99 -81 -152 -181.5t-53 -208.5q0 -119 67 -232q72 -119 197 -201q96 -63 113 -176q5 -32 7 -72q15 12 43 40q75 75 181 75q11 0 33 -2q67 -8 127 -8q166 0 315 51q140 48 248 135q99 81 152 181.5t53 208.5t-53 208.5
t-152 181.5q-108 87 -248 135q-148 51 -315 51zM1024 1792q209 0 398.5 -66t326.5 -177t218 -265.5t81 -323.5t-81 -323.5t-218 -265.5t-326.5 -177t-398.5 -66q-86 0 -160 10q-79 -79 -169.5 -132.5t-188.5 -80.5t-184.5 -38t-193.5 -14v54q110 54 183 141.5t73 187.5
q0 32 -4 57q-177 117 -278.5 286t-101.5 361q0 169 81 323.5t218 265.5t326.5 177t398.5 66z" />
    <glyph glyph-name="uniE04E" unicode="&#xe04e;" horiz-adv-x="2304" 
d="M2176 118q0 -67 35 -123t93 -86v-32q-28 -4 -65 -4q-100 0 -189 39.5t-156 109.5q-82 -22 -166 -22q-156 0 -289 68.5t-210 186.5t-77 257t77 257t210 186.5t289 68.5t289 -68.5t210 -186.5t77 -257q0 -163 -107 -297q-21 -45 -21 -97zM461 1478q-99 -81 -152 -181.5
t-53 -208.5q0 -119 67 -232q72 -119 197 -201q96 -63 113 -176q5 -32 7 -72q15 12 43 40q75 75 181 75q11 0 33 -2q67 -8 127 -8v-256q-86 0 -160 10q-79 -79 -169.5 -132.5t-188.5 -80.5t-184.5 -38t-193.5 -14v54q110 54 183 141.5t73 187.5q0 32 -4 57
q-177 117 -278.5 286t-101.5 361q0 169 81 323.5t218 265.5t326.5 177t398.5 66q205 0 392.5 -64t324 -172.5t219.5 -258.5t88 -316q-124 56 -265 65q-36 174 -196 304q-108 87 -248 135q-149 51 -315 51t-315 -51q-140 -48 -248 -135z" />
    <glyph glyph-name="uniE04F" unicode="&#xe04f;" horiz-adv-x="2304" 
d="M960 1664q-152 0 -291 -47q-124 -42 -227 -124q-90 -73 -138 -163t-48 -187q0 -109 60 -208q63 -106 180 -182q96 -63 113 -176q2 -12 4 -36q3 3 9 8.5t8 7.5q75 75 180 75q11 0 33 -2q62 -8 117 -8q152 0 291 47q124 42 227 124q90 73 138 163t48 187t-48 187t-138 163
q-103 82 -227 124q-139 47 -291 47zM960 1920q156 0 302.5 -39t264.5 -111t207 -167.5t137.5 -214t48.5 -245.5t-48.5 -245.5t-137.5 -214t-207 -167.5t-264.5 -111t-302.5 -39q-68 0 -150 10q-74 -74 -157.5 -124t-173.5 -75.5t-171 -36t-180 -12.5v50q102 50 167 132
t65 176q0 30 -4 53q-166 109 -261 266.5t-95 337.5q0 127 48.5 245.5t137.5 214t207 167.5t264.5 111t302.5 39zM1992 179q0 -83 49.5 -153t134.5 -111v-43q-179 4 -315 47.5t-259 164.5q-67 -8 -130 -8q-285 0 -507 138q217 1 415.5 68.5t353.5 193.5q159 130 245 294
q93 177 93 373q0 31 -3 62q111 -92 173 -211.5t62 -251.5q0 -154 -82 -289t-226 -228q-4 -30 -4 -46z" />
    <glyph glyph-name="uniE050" unicode="&#xe050;" 
d="M1024 1920q-209 0 -398.5 -66t-326.5 -177t-218 -265.5t-81 -323.5q0 -192 101.5 -361t278.5 -286q4 -25 4 -57q0 -100 -73 -187.5t-183 -141.5v-54q107 3 193.5 14t184.5 38t188.5 80.5t169.5 132.5q74 -10 160 -10q209 0 398.5 66t326.5 177t218 265.5t81 323.5
t-81 323.5t-218 265.5t-326.5 177t-398.5 66zM1152 640h-256v256h256v-256zM1152 1152h-256v512h256v-512z" />
    <glyph glyph-name="uniE051" unicode="&#xe051;" horiz-adv-x="2304" 
d="M1536 1920q106 0 181 -75t75 -181v-640q0 -106 -75 -181t-181 -75h-1152l-384 -384v1280q0 106 75 181t181 75h1280zM2048 1536q106 0 181 -75t75 -181v-1408l-384 384h-1152q-106 0 -181 75t-75 181v128h256v-128h1280v768h-128v256h128z" />
    <glyph glyph-name="uniE052" unicode="&#xe052;" horiz-adv-x="2304" 
d="M2048 1536q106 0 181 -75t75 -181v-1408l-384 384h-1152q-106 0 -181 75t-75 181v128h256v-128h1280v768h-128v256h128zM1536 1920h-1280q-106 0 -181 -75t-75 -181v-1280l384 384h1152q106 0 181 75t75 181v640q0 106 -75 181t-181 75zM1536 1024h-1280v640h1280v-640z
" />
    <glyph glyph-name="uniE053" unicode="&#xe053;" 
d="M1672 1792q155 0 265.5 -110.5t110.5 -265.5v-656q0 -155 -110.5 -265.5t-265.5 -110.5h-1288l-384 -384v1416q0 155 110.5 265.5t265.5 110.5h1296z" />
    <glyph glyph-name="uniE054" unicode="&#xe054;" 
d="M1672 1792h-1296q-155 0 -265.5 -110.5t-110.5 -265.5v-1416l384 384h499h789q155 0 265.5 110.5t110.5 265.5v656q0 155 -110.5 265.5t-265.5 110.5zM640 896q-53 0 -90.5 37.5t-37.5 90.5t37.5 90.5t90.5 37.5t90.5 -37.5t37.5 -90.5t-37.5 -90.5t-90.5 -37.5z
M1024 896q-53 0 -90.5 37.5t-37.5 90.5t37.5 90.5t90.5 37.5t90.5 -37.5t37.5 -90.5t-37.5 -90.5t-90.5 -37.5zM1408 896q-53 0 -90.5 37.5t-37.5 90.5t37.5 90.5t90.5 37.5t90.5 -37.5t37.5 -90.5t-37.5 -90.5t-90.5 -37.5z" />
    <glyph glyph-name="uniE055" unicode="&#xe055;" 
d="M1672 1792h-1296q-155 0 -265.5 -110.5t-110.5 -265.5v-1416l384 384h499h789q155 0 265.5 110.5t110.5 265.5v656q0 155 -110.5 265.5t-265.5 110.5zM1280 896h-768v128h768v-128zM1536 1152h-1024v128h1024v-128z" />
    <glyph glyph-name="uniE056" unicode="&#xe056;" 
d="M1672 1792h-1296q-155 0 -265.5 -110.5t-110.5 -265.5v-1416l384 384h499h789q155 0 265.5 110.5t110.5 265.5v656q0 155 -110.5 265.5t-265.5 110.5zM1792 760q0 -49 -35.5 -84.5t-84.5 -35.5h-1416v776q0 49 35.5 84.5t84.5 35.5h1296q49 0 84.5 -35.5t35.5 -84.5v-656
z" />
    <glyph glyph-name="uniE057" unicode="&#xe057;" 
d="M1672 1792h-1296q-155 0 -265.5 -110.5t-110.5 -265.5v-1416l384 384h499h789q155 0 265.5 110.5t110.5 265.5v656q0 155 -110.5 265.5t-265.5 110.5zM1792 760q0 -49 -35.5 -84.5t-84.5 -35.5h-1416v776q0 49 35.5 84.5t84.5 35.5h1296q49 0 84.5 -35.5t35.5 -84.5v-656
zM512 1024q0 53 37.5 90.5t90.5 37.5t90.5 -37.5t37.5 -90.5t-37.5 -90.5t-90.5 -37.5t-90.5 37.5t-37.5 90.5zM896 1024q0 53 37.5 90.5t90.5 37.5t90.5 -37.5t37.5 -90.5t-37.5 -90.5t-90.5 -37.5t-90.5 37.5t-37.5 90.5zM1280 1024q0 53 37.5 90.5t90.5 37.5t90.5 -37.5
t37.5 -90.5t-37.5 -90.5t-90.5 -37.5t-90.5 37.5t-37.5 90.5z" />
    <glyph glyph-name="uniE058" unicode="&#xe058;" 
d="M1672 1792h-1296q-155 0 -265.5 -110.5t-110.5 -265.5v-1416l384 384h499h789q155 0 265.5 110.5t110.5 265.5v656q0 155 -110.5 265.5t-265.5 110.5zM1792 760q0 -49 -35.5 -84.5t-84.5 -35.5h-1416v776q0 49 35.5 84.5t84.5 35.5h1296q49 0 84.5 -35.5t35.5 -84.5v-656
zM512 1280h1024v-128h-1024v128zM512 1024h768v-128h-768v128z" />
    <glyph glyph-name="uniE059" unicode="&#xe059;" 
d="M1672 1792h-1296q-155 0 -265.5 -110.5t-110.5 -265.5v-1416l384 384h499h789q155 0 265.5 110.5t110.5 265.5v656q0 155 -110.5 265.5t-265.5 110.5zM1792 1416v-24h-1536v24v8h1536v-8zM1792 752h-1536v32h1536v-24v-8zM256 640v16h1475q-29 -16 -59 -16h-1416z
M256 688v32h1529q-4 -12 -18 -32h-1511zM256 816v32h1536v-32h-1536zM256 880v32h1536v-32h-1536zM256 944v32h1536v-32h-1536zM256 1008v32h1536v-32h-1536zM256 1072v32h1536v-32h-1536zM256 1136v32h1536v-32h-1536zM256 1200v32h1536v-32h-1536zM256 1264v32h1536v-32
h-1536zM256 1328v32h1536v-32h-1536zM1672 1536q30 0 59 -16h-1414q29 16 59 16h1296zM1767 1488q14 -20 18 -32h-1522q4 12 18 32h1486z" />
    <glyph glyph-name="uniE05A" unicode="&#xe05a;" 
d="M1856 1920q80 0 136 -56t56 -136v-1280q0 -80 -56 -136t-136 -56h-567l-329 -384l-329 384h-439q-80 0 -136 56t-56 136v1280q0 80 56 136t136 56h1664z" />
    <glyph glyph-name="uniE05B" unicode="&#xe05b;" 
d="M1856 1536q80 0 136 -56t56 -136v-896q0 -80 -56 -136t-136 -56h-311l-329 -384l-329 384h-311q-80 0 -136 56t-56 136v896q0 80 56 136t136 56h1280zM256 1664v-1024h-64q-80 0 -136 56t-56 136v896q0 80 56 136t136 56h1280q80 0 136 -56t56 -136v-64h-1408z" />
    <glyph glyph-name="uniE05C" unicode="&#xe05c;" 
d="M1856 1920h-1664q-80 0 -136 -56t-56 -136v-1280q0 -80 56 -136t136 -56h439l329 -384l329 384h567q80 0 136 56t56 136v1280q0 80 -56 136t-136 56zM1792 512h-557l-275 -311l-275 311h-429v1152h1536v-1152z" />
    <glyph glyph-name="uniE05D" unicode="&#xe05d;" 
d="M1856 1536h-1280q-80 0 -136 -56t-56 -136v-896q0 -80 56 -136t136 -56h311l329 -384l329 384h311q80 0 136 56t56 136v896q0 80 -56 136t-136 56zM1792 512h-301l-275 -311l-275 311h-301v768h1152v-768zM256 1664v-1024h-64q-80 0 -136 56t-56 136v896q0 80 56 136
t136 56h1280q80 0 136 -56t56 -136v-64h-1408z" />
    <glyph glyph-name="uniE05E" unicode="&#xe05e;" 
d="M1856 1792q80 0 136 -56t56 -136v-1024q0 -80 -56 -136t-136 -56h-730l-614 -512v512h-320q-80 0 -136 56t-56 136v1024q0 80 56 136t136 56h1664z" />
    <glyph glyph-name="uniE05F" unicode="&#xe05f;" 
d="M1856 1792h-1664q-80 0 -136 -56t-56 -136v-1024q0 -80 56 -136t136 -56h320v-512l614 512h730q80 0 136 56t56 136v1024q0 80 -56 136t-136 56zM768 896h-256v256h256v-256zM1152 896h-256v256h256v-256zM1536 896h-256v256h256v-256z" />
    <glyph glyph-name="uniE060" unicode="&#xe060;" 
d="M1856 1792h-1664q-80 0 -136 -56t-56 -136v-1024q0 -80 56 -136t136 -56h320v-512l614 512h730q80 0 136 56t56 136v1024q0 80 -56 136t-136 56zM896 768h-512v128h512v-128zM1408 1024h-1024v128h1024v-128zM1664 1280h-1280v128h1280v-128z" />
    <glyph glyph-name="uniE061" unicode="&#xe061;" 
d="M1856 1792h-1664q-80 0 -136 -56t-56 -136v-1024q0 -80 56 -136t136 -56h320v-512l614 512h730q80 0 136 56t56 136v1024q0 80 -56 136t-136 56zM1792 640h-758l-394 -349v349h-384v896h1536v-896z" />
    <glyph glyph-name="uniE062" unicode="&#xe062;" 
d="M512 1152h256v-256h-256v256zM896 1152h256v-256h-256v256zM1280 1152h256v-256h-256v256zM1856 1792h-1664q-80 0 -136 -56t-56 -136v-1024q0 -80 56 -136t136 -56h320v-512l614 512h730q80 0 136 56t56 136v1024q0 80 -56 136t-136 56zM1792 640h-758l-394 -349v349
h-384v896h1536v-896z" />
    <glyph glyph-name="uniE063" unicode="&#xe063;" 
d="M384 1408h1280v-128h-1280v128zM384 1152h1024v-128h-1024v128zM384 896h512v-128h-512v128zM1856 1792h-1664q-80 0 -136 -56t-56 -136v-1024q0 -80 56 -136t136 -56h320v-512l614 512h730q80 0 136 56t56 136v1024q0 80 -56 136t-136 56zM1792 640h-758l-394 -349v349
h-384v896h1536v-896z" />
    <glyph glyph-name="uniE064" unicode="&#xe064;" horiz-adv-x="2304" 
d="M1600 1920h-1408q-80 0 -136 -56t-56 -136v-640q0 -80 56 -136t136 -56h64v-512l614 512h730q80 0 136 56t56 136v640q0 80 -56 136t-136 56zM1536 1152h-758l-394 -349v349h-128v512h1280v-512zM2112 1536q80 0 136 -56t56 -136v-768q0 -80 -56 -136t-136 -56h-320v-512
l-614 512h-410v256h502l394 -349v349h384v640h-128v256h192z" />
    <glyph glyph-name="uniE065" unicode="&#xe065;" horiz-adv-x="2304" 
d="M1600 1920q80 0 136 -56t56 -136v-640q0 -80 -56 -136t-136 -56h-730l-614 -512v512h-64q-80 0 -136 56t-56 136v640q0 80 56 136t136 56h1408zM2112 1536q80 0 136 -56t56 -136v-768q0 -80 -56 -136t-136 -56h-320v-512l-614 512h-410v256h502l394 -349v349h384v640
h-128v256h192z" />
    <glyph glyph-name="uniE066" unicode="&#xe066;" 
d="M1024 1512q105 0 195 -58l-497 -497q-58 90 -58 195q0 149 105.5 254.5t254.5 105.5zM829 850l497 497q58 -90 58 -195q0 -149 -105.5 -254.5t-254.5 -105.5q-105 0 -195 58zM1856 1920h-1664q-80 0 -136 -56t-56 -136v-1152q0 -80 56 -136t136 -56h320v-512l614 512h730
q80 0 136 56t56 136v1152q0 80 -56 136t-136 56zM1024 640q-212 0 -362 150t-150 362t150 362t362 150t362 -150t150 -362t-150 -362t-362 -150z" />
    <glyph glyph-name="uniE067" unicode="&#xe067;" 
d="M1856 1920h-1664q-80 0 -136 -56t-56 -136v-1152q0 -80 56 -136t136 -56h320v-512l614 512h730q80 0 136 56t56 136v1152q0 80 -56 136t-136 56zM896 1378q-89 -20 -162.5 -79.5t-119.5 -147.5q9 1 26 1q106 0 181 -75t75 -181t-75 -181t-181 -75t-181 75t-75 181
q0 130 44 250t127 213q142 160 341 191v-172zM1664 1378q-89 -20 -162.5 -79.5t-119.5 -147.5q9 1 26 1q106 0 181 -75t75 -181t-75 -181t-181 -75t-181 75t-75 181q0 130 44 250t127 213q142 160 341 191v-172z" />
    <glyph glyph-name="uniE068" unicode="&#xe068;" 
d="M1856 1920h-1664q-80 0 -136 -56t-56 -136v-1152q0 -80 56 -136t136 -56h320v-512l614 512h730q80 0 136 56t56 136v1152q0 80 -56 136t-136 56zM1024 1663q106 0 180.5 -74.5t74.5 -180.5t-74.5 -180.5t-180.5 -74.5t-180.5 74.5t-74.5 180.5t74.5 180.5t180.5 74.5z
M1408 640h-768v128q0 106 75 181t181 75h256q106 0 181 -75t75 -181v-128z" />
    <glyph glyph-name="uniE069" unicode="&#xe069;" 
d="M1856 1920h-1664q-80 0 -136 -56t-56 -136v-1152q0 -80 56 -136t136 -56h320v-512l614 512h730q80 0 136 56t56 136v1152q0 80 -56 136t-136 56zM896 715l-411 474l118 118l293 -230l549 486l118 -118z" />
    <glyph glyph-name="uniE06A" unicode="&#xe06a;" 
d="M1856 1920h-1664q-80 0 -136 -56t-56 -136v-1152q0 -80 56 -136t136 -56h320v-512l614 512h730q80 0 136 56t56 136v1152q0 80 -56 136t-136 56zM1664 896q0 -52 -30 -67t-72 16l-282 307v-256q0 -52 -38 -90t-90 -38h-640q-52 0 -90 38t-38 90v512q0 52 38 90t90 38h640
q52 0 90 -38t38 -90v-256l282 307q42 31 72 16t30 -67v-512z" />
    <glyph glyph-name="uniE06B" unicode="&#xe06b;" 
d="M1856 1920h-1664q-80 0 -136 -56t-56 -136v-1152q0 -80 56 -136t136 -56h320v-512l614 512h730q80 0 136 56t56 136v1152q0 80 -56 136t-136 56zM896 768h-384q-106 0 -181 75t-75 181v128q0 106 75 181t181 75h384v-128h-384q-52 0 -90 -38t-38 -90v-128q0 -52 38 -90
t90 -38h384v-128zM768 1024v128h512v-128h-512zM1792 1024q0 -106 -75 -181t-181 -75h-384v128h384q52 0 90 38t38 90v128q0 52 -38 90t-90 38h-384v128h384q106 0 181 -75t75 -181v-128z" />
    <glyph glyph-name="uniE06C" unicode="&#xe06c;" 
d="M1024 1538q106 0 182 -76t76 -182h-516q0 106 76 182t182 76zM1856 1920h-1664q-80 0 -136 -56t-56 -136v-1152q0 -80 56 -136t136 -56h320v-512l614 512h730q80 0 136 56t56 136v1152q0 80 -56 136t-136 56zM1536 704q0 -26 -19 -45t-45 -19h-896q-26 0 -45 19t-19 45
v512q0 26 19 45t45 19h62q0 160 113 273t273 113t273 -113t113 -273h62q26 0 45 -19t19 -45v-512zM896 896q0 53 37.5 90.5t90.5 37.5t90.5 -37.5t37.5 -90.5t-37.5 -90.5t-90.5 -37.5t-90.5 37.5t-37.5 90.5z" />
    <glyph glyph-name="uniE06D" unicode="&#xe06d;" 
d="M1856 1920h-1664q-80 0 -136 -56t-56 -136v-1152q0 -80 56 -136t136 -56h320v-512l614 512h730q80 0 136 56t56 136v1152q0 80 -56 136t-136 56zM1424 552l-400 328l-400 -328l145 469l-385 259h483l157 501l157 -501h483l-385 -259z" />
    <glyph glyph-name="uniE06E" unicode="&#xe06e;" 
d="M1856 1920h-1664q-80 0 -136 -56t-56 -136v-1152q0 -80 56 -136t136 -56h320v-512l614 512h730q80 0 136 56t56 136v1152q0 80 -56 136t-136 56zM1024 768q-11 5 -29.5 14.5t-71.5 40.5t-101.5 63.5t-107.5 82t-101.5 98.5t-71.5 110t-29 119v11v2q0 1 0.5 4t0.5 4
q8 93 81.5 156t173.5 63q102 0 179 -92t77 -196q0 104 77 196t179 92q100 0 173.5 -63t81.5 -156q0 -1 0.5 -4t0.5 -4v-2v-11q0 -58 -28 -118.5t-73.5 -110.5t-100 -97.5t-109 -83.5t-100 -63t-73.5 -41z" />
    <glyph glyph-name="uniE06F" unicode="&#xe06f;" 
d="M1856 1920h-1664q-80 0 -136 -56t-56 -136v-1152q0 -80 56 -136t136 -56h320v-512l614 512h730q80 0 136 56t56 136v1152q0 80 -56 136t-136 56zM1792 1280q0 -106 -75 -181t-181 -75h-896q-52 0 -90 38t-38 90v128q0 52 38 90t90 38h704q26 0 45 -19t19 -45t-19 -45
t-45 -19h-704v-128h896q52 0 90 38t38 90v128q0 52 -38 90t-90 38h-1024q-52 0 -90 -38t-38 -90v-384q0 -52 38 -90t90 -38h832q26 0 45 -19t19 -45t-19 -45t-45 -19h-832q-106 0 -181 75t-75 181v384q0 106 75 181t181 75h1024q106 0 181 -75t75 -181v-128z" />
    <glyph glyph-name="uniE070" unicode="&#xe070;" 
d="M1856 1920h-1664q-80 0 -136 -56t-56 -136v-1152q0 -80 56 -136t136 -56h320v-512l614 512h730q80 0 136 56t56 136v1152q0 80 -56 136t-136 56zM1408 1372l-220 -220l220 -220v-164h-164l-220 220l-220 -220h-164v164l220 220l-220 220v164h164l220 -220l220 220h164
v-164z" />
    <glyph glyph-name="uniE071" unicode="&#xe071;" 
d="M1856 1920h-1664q-80 0 -136 -56t-56 -136v-1152q0 -80 56 -136t136 -56h320v-512l614 512h730q80 0 136 56t56 136v1152q0 80 -56 136t-136 56zM1536 1024h-384v-384h-256v384h-384v256h384v384h256v-384h384v-256z" />
    <glyph glyph-name="uniE072" unicode="&#xe072;" 
d="M1856 1920h-1664q-80 0 -136 -56t-56 -136v-1152q0 -80 56 -136t136 -56h320v-512l614 512h730q80 0 136 56t56 136v1152q0 80 -56 136t-136 56zM1536 1024h-1024v256h1024v-256z" />
    <glyph glyph-name="uniE073" unicode="&#xe073;" 
d="M1856 1920h-1664q-80 0 -136 -56t-56 -136v-1152q0 -80 56 -136t136 -56h320v-512l614 512h730q80 0 136 56t56 136v1152q0 80 -56 136t-136 56zM1152 640h-256v256h256v-256zM1152 1152h-256v512h256v-512z" />
    <glyph glyph-name="uniE074" unicode="&#xe074;" 
d="M1856 1920h-1664q-80 0 -136 -56t-56 -136v-1152q0 -80 56 -136t136 -56h320v-512l614 512h730q80 0 136 56t56 136v1152q0 80 -56 136t-136 56zM1368 640h-688l-95 640h878zM1536 1408h-1024v128h384v128h256v-128h384v-128z" />
    <glyph glyph-name="uniE075" unicode="&#xe075;" 
d="M1856 1920h-1664q-80 0 -136 -56t-56 -136v-1152q0 -80 56 -136t136 -56h320v-512l614 512h730q80 0 136 56t56 136v1152q0 80 -56 136t-136 56zM896 1664v-384h768v-256h-768v-384l-432 384q-80 71 -80 128t80 128z" />
    <glyph glyph-name="uniE076" unicode="&#xe076;" 
d="M1856 1920h-1664q-80 0 -136 -56t-56 -136v-1152q0 -80 56 -136t136 -56h320v-512l614 512h730q80 0 136 56t56 136v1152q0 80 -56 136t-136 56zM1152 640v384h-768v256h768v384l432 -384q80 -71 80 -128t-80 -128z" />
    <glyph glyph-name="uniE077" unicode="&#xe077;" 
d="M1856 1920h-1664q-80 0 -136 -56t-56 -136v-1152q0 -80 56 -136t136 -56h320v-512l614 512h730q80 0 136 56t56 136v1152q0 80 -56 136t-136 56zM1152 1024v-384h-256v384h-384l384 432q71 80 128 80t128 -80l384 -432h-384z" />
    <glyph glyph-name="uniE078" unicode="&#xe078;" 
d="M1856 1920h-1664q-80 0 -136 -56t-56 -136v-1152q0 -80 56 -136t136 -56h320v-512l614 512h730q80 0 136 56t56 136v1152q0 80 -56 136t-136 56zM1152 720q-71 -80 -128 -80t-128 80l-384 432h384v384h256v-384h384z" />
    <glyph glyph-name="uniE079" unicode="&#xe079;" 
d="M1856 1920h-1664q-80 0 -136 -56t-56 -136v-1152q0 -80 56 -136t136 -56h320v-512l614 512h730q80 0 136 56t56 136v1152q0 80 -56 136t-136 56zM512 640h-128v1024h128v-1024zM1664 1024h-512v-384l-432 384q-80 71 -80 128t80 128l432 384v-384h512v-256z" />
    <glyph glyph-name="uniE07A" unicode="&#xe07a;" 
d="M1856 1920h-1664q-80 0 -136 -56t-56 -136v-1152q0 -80 56 -136t136 -56h320v-512l614 512h730q80 0 136 56t56 136v1152q0 80 -56 136t-136 56zM1328 1024l-432 -384v384h-512v256h512v384l432 -384q80 -71 80 -128t-80 -128zM1664 640h-128v1024h128v-1024z" />
    <glyph glyph-name="uniE07B" unicode="&#xe07b;" 
d="M1856 1920h-1664q-80 0 -136 -56t-56 -136v-1152q0 -80 56 -136t136 -56h320v-512l614 512h730q80 0 136 56t56 136v1152q0 80 -56 136t-136 56zM1519 650q-28 128 -113 220q-92 99 -226.5 134.5t-283.5 5.5v-370l-432 384q-80 71 -80 128t80 128l432 384v-384
q174 0 321 -68.5t233 -186.5t86 -257q0 -59 -17 -118z" />
    <glyph glyph-name="uniE07C" unicode="&#xe07c;" 
d="M1856 1920h-1664q-80 0 -136 -56t-56 -136v-1152q0 -80 56 -136t136 -56h320v-512l614 512h730q80 0 136 56t56 136v1152q0 80 -56 136t-136 56zM1456 1024l-432 -384v370q-149 31 -284 -5t-227 -135q-84 -91 -112 -220q-17 59 -17 118q0 139 86 257t233 186.5t321 68.5
v384l432 -384q80 -71 80 -128t-80 -128z" />
    <glyph glyph-name="uniE07D" unicode="&#xe07d;" 
d="M1856 1920h-1664q-80 0 -136 -56t-56 -136v-1152q0 -80 56 -136t136 -56h320v-512l614 512h730q80 0 136 56t56 136v1152q0 80 -56 136t-136 56zM896 1024v-384l-432 384q-80 71 -80 128t80 128l432 384v-370q149 -30 283.5 5.5t226.5 134.5q85 92 113 220
q17 -59 17 -118q0 -139 -86 -257t-233 -186.5t-321 -68.5z" />
    <glyph glyph-name="uniE07E" unicode="&#xe07e;" 
d="M1856 1920h-1664q-80 0 -136 -56t-56 -136v-1152q0 -80 56 -136t136 -56h320v-512l614 512h730q80 0 136 56t56 136v1152q0 80 -56 136t-136 56zM1456 1024l-432 -384v384q-174 0 -321 68.5t-233 186.5t-86 257q0 59 17 118q28 -129 112 -220q92 -99 227 -135t284 -5v370
l432 -384q80 -71 80 -128t-80 -128z" />
    <glyph glyph-name="uniE07F" unicode="&#xe07f;" 
d="M1246 515q-20 3 -31.5 35t-12.5 62l-2 31q5 5 14 15t33.5 41.5t44 64.5t39.5 83t28 98q37 0 62.5 48t23 108.5t-38.5 91.5q0 3 4 42t5.5 71t-3 85.5t-16.5 95.5t-40 89t-69 78.5t-108.5 52.5t-154.5 21t-154.5 -21t-108.5 -52.5t-69 -78.5t-40 -89t-16.5 -95.5t-3 -85.5
t5.5 -71t4 -42q-36 -31 -38.5 -91.5t23 -108.5t62.5 -48q8 -48 27 -97t41 -84.5t43 -63.5t34 -42l14 -15q0 -14 -1.5 -34t-13 -55.5t-31.5 -38.5q-46 -7 -125 -37t-174 -81t-178.5 -111t-140 -136.5t-56.5 -149.5h896h896q0 73 -56.5 149.5t-140 136.5t-178.5 111t-174 81
t-125 37z" />
    <glyph glyph-name="uniE080" unicode="&#xe080;" 
d="M1470 309q-17 3 -26.5 30.5t-11.5 53.5l-1 26q5 4 12.5 12.5t28 35t37.5 55t34 70.5t24 83q31 0 53.5 41t20 92.5t-33.5 77.5q0 2 3.5 35.5t5 60.5t-2.5 72.5t-14 81t-34 75.5t-59.5 66.5t-93.5 44.5t-132 18t-132 -18t-93.5 -44.5t-59.5 -66.5t-34 -75.5t-14 -81
t-2.5 -72.5t5 -60.5t3.5 -35.5q-31 -26 -33.5 -77.5t20 -92.5t53.5 -41q11 -65 45 -129t62 -96l29 -31q0 -12 -1.5 -29.5t-11 -47.5t-26.5 -33q-51 -8 -142.5 -46.5t-191 -96t-172 -138t-72.5 -156.5h768h768q0 76 -72.5 156.5t-172 138t-191 96t-142.5 46.5zM688 274
q141 87 283 135q-59 83 -88 178q-47 38 -72 106q-25 70 -18 139q6 47 28 90q-26 265 105 410q69 78 175 111q-28 281 -333 281q-74 0 -132 -18t-93.5 -44.5t-59.5 -66.5t-34 -75.5t-14 -81t-2.5 -72.5t5 -60.5t3.5 -35.5q-31 -26 -33.5 -77.5t20 -92.5t53.5 -41
q11 -65 45 -129t62 -96l29 -31q0 -12 -1.5 -29.5t-11 -47.5t-26.5 -33q-51 -8 -142.5 -46.5t-191 -96t-172 -138t-72.5 -156.5h659q9 6 29 18z" />
    <glyph glyph-name="uniE081" unicode="&#xe081;" horiz-adv-x="2176" 
d="M872 448q0 -167 74 -320h-178h-768v229q113 105 285 188t261 98q20 3 31.5 35t12.5 62l2 31q-5 5 -14 15t-33.5 41.5t-44 64.5t-39.5 83t-28 98q-37 0 -62.5 48t-23 108.5t38.5 91.5q0 3 -4 42t-5.5 71t3 85.5t16.5 95.5t40 89t69 78.5t108.5 52.5t154.5 21t154.5 -21
t108.5 -52.5t69 -78.5t40 -89t16.5 -95.5t3 -85.5t-5.5 -71t-4 -42q36 -31 38.5 -91.5t-23 -108.5t-62.5 -48q-13 -73 -47 -142q-64 -72 -105 -152l-7 -8q1 -2 1 -6q-73 -152 -73 -317zM1600 1024q-117 0 -223.5 -45.5t-184 -123t-123 -184t-45.5 -223.5t45.5 -223.5
t123 -184t184 -123t223.5 -45.5t223.5 45.5t184 123t123 184t45.5 223.5t-45.5 223.5t-123 184t-184 123t-223.5 45.5zM1920 384h-256v-256h-128v256h-256v128h256v256h128v-256h256v-128z" />
    <glyph glyph-name="uniE082" unicode="&#xe082;" 
d="M1792 768v256h-256v-256h-256v-256h256v-256h256v256h256v256h-256zM1536 229q-113 105 -285 188t-261 98q-20 3 -31.5 35t-12.5 62l-2 31q5 5 14 15t33.5 41.5t44 64.5t39.5 83t28 98q37 0 62.5 48t23 108.5t-38.5 91.5q0 3 4 42t5.5 71t-3 85.5t-16.5 95.5t-40 89
t-69 78.5t-108.5 52.5t-154.5 21t-154.5 -21t-108.5 -52.5t-69 -78.5t-40 -89t-16.5 -95.5t-3 -85.5t5.5 -71t4 -42q-36 -31 -38.5 -91.5t23 -108.5t62.5 -48q8 -48 27 -97t41 -84.5t43 -63.5t34 -42l14 -15q0 -14 -1.5 -34t-13 -55.5t-31.5 -38.5q-89 -15 -261 -98
t-285 -188v-229h768h768v229z" />
    <glyph glyph-name="uniE083" unicode="&#xe083;" horiz-adv-x="2176" 
d="M872 448q0 -167 74 -320h-178h-768v229q113 105 285 188t261 98q20 3 31.5 35t12.5 62l2 31q-5 5 -14 15t-33.5 41.5t-44 64.5t-39.5 83t-28 98q-37 0 -62.5 48t-23 108.5t38.5 91.5q0 3 -4 42t-5.5 71t3 85.5t16.5 95.5t40 89t69 78.5t108.5 52.5t154.5 21t154.5 -21
t108.5 -52.5t69 -78.5t40 -89t16.5 -95.5t3 -85.5t-5.5 -71t-4 -42q36 -31 38.5 -91.5t-23 -108.5t-62.5 -48q-13 -73 -47 -142q-64 -72 -105 -152l-7 -8q1 -2 1 -6q-73 -152 -73 -317zM1600 1024q-117 0 -223.5 -45.5t-184 -123t-123 -184t-45.5 -223.5t45.5 -223.5
t123 -184t184 -123t223.5 -45.5t223.5 45.5t184 123t123 184t45.5 223.5t-45.5 223.5t-123 184t-184 123t-223.5 45.5zM1920 384h-640v128h640v-128z" />
    <glyph glyph-name="uniE084" unicode="&#xe084;" 
d="M1280 768h768v-256h-768v256zM1536 229q-113 105 -285 188t-261 98q-20 3 -31.5 35t-12.5 62l-2 31q5 5 14 15t33.5 41.5t44 64.5t39.5 83t28 98q37 0 62.5 48t23 108.5t-38.5 91.5q0 3 4 42t5.5 71t-3 85.5t-16.5 95.5t-40 89t-69 78.5t-108.5 52.5t-154.5 21
t-154.5 -21t-108.5 -52.5t-69 -78.5t-40 -89t-16.5 -95.5t-3 -85.5t5.5 -71t4 -42q-36 -31 -38.5 -91.5t23 -108.5t62.5 -48q8 -48 27 -97t41 -84.5t43 -63.5t34 -42l14 -15q0 -14 -1.5 -34t-13 -55.5t-31.5 -38.5q-89 -15 -261 -98t-285 -188v-229h768h768v229z" />
    <glyph glyph-name="uniE085" unicode="&#xe085;" horiz-adv-x="2176" 
d="M1600 1024q-117 0 -223.5 -45.5t-184 -123t-123 -184t-45.5 -223.5t45.5 -223.5t123 -184t184 -123t223.5 -45.5t223.5 45.5t184 123t123 184t45.5 223.5t-45.5 223.5t-123 184t-184 123t-223.5 45.5zM1920 661l-213 -213l213 -213v-107h-107l-213 213l-213 -213h-107
v107l213 213l-213 213v107h107l213 -213l213 213h107v-107zM872 448q0 -167 74 -320h-178h-768v229q113 105 285 188t261 98q20 3 31.5 35t12.5 62l2 31q-5 5 -14 15t-33.5 41.5t-44 64.5t-39.5 83t-28 98q-37 0 -62.5 48t-23 108.5t38.5 91.5q0 3 -4 42t-5.5 71t3 85.5
t16.5 95.5t40 89t69 78.5t108.5 52.5t154.5 21t154.5 -21t108.5 -52.5t69 -78.5t40 -89t16.5 -95.5t3 -85.5t-5.5 -71t-4 -42q36 -31 38.5 -91.5t-23 -108.5t-62.5 -48q-13 -73 -47 -142q-64 -72 -105 -152l-7 -8q1 -2 1 -6q-73 -152 -73 -317z" />
    <glyph glyph-name="uniE086" unicode="&#xe086;" horiz-adv-x="2176" 
d="M872 448q0 -167 74 -320h-178h-768v229q113 105 285 188t261 98q20 3 31.5 35t12.5 62l2 31q-5 5 -14 15t-33.5 41.5t-44 64.5t-39.5 83t-28 98q-37 0 -62.5 48t-23 108.5t38.5 91.5q0 3 -4 42t-5.5 71t3 85.5t16.5 95.5t40 89t69 78.5t108.5 52.5t154.5 21t154.5 -21
t108.5 -52.5t69 -78.5t40 -89t16.5 -95.5t3 -85.5t-5.5 -71t-4 -42q36 -31 38.5 -91.5t-23 -108.5t-62.5 -48q-13 -73 -47 -142q-64 -72 -105 -152l-7 -8q1 -2 1 -6q-73 -152 -73 -317zM1600 1024q-117 0 -223.5 -45.5t-184 -123t-123 -184t-45.5 -223.5t45.5 -223.5
t123 -184t184 -123t223.5 -45.5t223.5 45.5t184 123t123 184t45.5 223.5t-45.5 223.5t-123 184t-184 123t-223.5 45.5zM1176 448q0 115 57 212.5t154.5 154.5t212.5 57q135 0 241 -75l-590 -590q-75 106 -75 241zM1600 24q-135 0 -241 75l590 590q75 -106 75 -241
q0 -115 -57 -212.5t-154.5 -154.5t-212.5 -57z" />
    <glyph glyph-name="uniE087" unicode="&#xe087;" 
d="M612 752q-3 -17 -9 -32h199q-4 13 -7 32h-183zM38 368q-16 -24 -19 -32h780q46 22 68 32h-829zM165 496q-14 -10 -40 -32h811q-3 6 -9 17t-8 15h-754zM553 688q-40 -9 -96 -32h370q-12 25 -15 32h-259zM261 560q-17 -10 -51 -32h694q-4 10 -12 32h-631zM7 304
q-5 -17 -6 -32h683l2 1l2 1q7 4 15.5 9t19 11.5t16.5 9.5h-732zM61 400h885q9 3 25 9q-5 7 -15 23h-866q-16 -16 -29 -32zM497 1616h542q-15 18 -30 32h-482q-15 -14 -30 -32zM434 1424h618q32 14 49 19q0 5 -2 13h-662q-2 -22 -3 -32zM318 592h559q-16 13 -30 32h-464
q-21 -10 -65 -32zM535 912h281l2.5 5l2.5 5q-1 4 -1.5 11t-0.5 11h-300q10 -22 16 -32zM449 1072q16 -13 32 -13q0 -3 1.5 -9.5t2.5 -9.5h332q1 10 3 32h-371zM435 1328q2 -20 3 -32h459q16 22 25 32h-487zM433 1392v-32h521q13 12 41 32h-562zM450 1520q-7 -24 -8 -32h652
q-1 8 -8 32h-636zM476 1584q-9 -14 -15 -32h614q-6 18 -15 32h-584zM792 816h-188l13 -13q0 -8 -1 -19h176q-1 16 0 32zM653 1712q-46 -11 -82 -32h394q-36 21 -82 32h-230zM555 880q11 -17 23 -32h218q4 22 7 32h-248zM817 1008h-324q2 -6 12 -32h312v32zM414 1136
q5 -18 12 -32h398q1 5 3 16t3 16h-416zM434 1264q-13 -15 -19 -32h446q7 16 16 32h-443zM408 1200q-2 -15 0 -32h429q2 7 11 32h-440zM1470 309q-17 3 -26.5 30.5t-11.5 53.5l-1 26q5 4 12.5 12.5t28 35t37.5 55t34 70.5t24 83q31 0 53.5 41t20 92.5t-33.5 77.5
q0 2 3.5 35.5t5 60.5t-2.5 72.5t-14 81t-34 75.5t-59.5 66.5t-93.5 44.5t-132 18t-132 -18t-93.5 -44.5t-59.5 -66.5t-34 -75.5t-14 -81t-2.5 -72.5t5 -60.5t3.5 -35.5q-31 -26 -33.5 -77.5t20 -92.5t53.5 -41q11 -65 45 -129t62 -96l29 -31q0 -12 -1.5 -29.5t-11 -47.5
t-26.5 -33q-51 -8 -142.5 -46.5t-191 -96t-172 -138t-72.5 -156.5h768h768q0 76 -72.5 156.5t-172 138t-191 96t-142.5 46.5z" />
    <glyph glyph-name="uniE088" unicode="&#xe088;" 
d="M1696 -128h-1344q-40 0 -68 28t-28 68q0 103 41.5 221.5t114.5 224.5q123 179 289 259q-72 65 -121 156q-80 149 -80 323q0 246 148 424q74 89 171.5 136.5t204.5 47.5t204.5 -47.5t171.5 -136.5q148 -178 148 -424q0 -174 -80 -323q-49 -91 -121 -156q166 -80 289 -259
q73 -106 114.5 -224.5t41.5 -221.5q0 -40 -28 -68t-68 -28zM460 64h1128q-27 120 -110 241q-62 90 -137 147.5t-154 74.5q-33 8 -54.5 34t-21.5 60v68q0 56 49 84q89 51 142.5 154t53.5 225q0 172 -97.5 294t-234.5 122t-234.5 -122t-97.5 -294q0 -122 53.5 -225t142.5 -154
q49 -28 49 -84v-68q0 -34 -21.5 -60t-54.5 -34q-79 -17 -154 -74.5t-137 -147.5q-83 -121 -110 -241z" />
    <glyph glyph-name="uniE089" unicode="&#xe089;" 
d="M1952 -128h-1344q-40 0 -68 28t-28 68q0 103 41.5 221.5t114.5 224.5q123 179 289 259q-72 65 -121 156q-80 149 -80 323q0 246 148 424q74 89 171.5 136.5t204.5 47.5t204.5 -47.5t171.5 -136.5q148 -178 148 -424q0 -174 -80 -323q-49 -91 -121 -156q166 -80 289 -259
q73 -106 114.5 -224.5t41.5 -221.5q0 -40 -28 -68t-68 -28zM716 64h1128q-27 120 -110 241q-62 90 -137 147.5t-154 74.5q-33 8 -54.5 34t-21.5 60v68q0 56 49 84q89 51 142.5 154t53.5 225q0 172 -97.5 294t-234.5 122t-234.5 -122t-97.5 -294q0 -122 53.5 -225t142.5 -154
q49 -28 49 -84v-68q0 -34 -21.5 -60t-54.5 -34q-79 -17 -154 -74.5t-137 -147.5q-83 -121 -110 -241zM394 192h-190q27 120 110 241q62 90 137 147.5t154 74.5q33 8 54.5 34t21.5 60v68q0 56 -49 84q-89 51 -142.5 154t-53.5 225q0 172 97.5 294t234.5 122q19 0 37 -3
q79 88 177 142q-103 53 -214 53q-107 0 -204.5 -47.5t-171.5 -136.5q-148 -178 -148 -424q0 -174 80 -323q49 -91 121 -156q-166 -80 -289 -259q-73 -106 -114.5 -224.5t-41.5 -221.5q0 -40 28 -68t68 -28h265q5 95 33 192z" />
    <glyph glyph-name="uniE08A" unicode="&#xe08a;" 
d="M1536 768h-128v-256h-256v-128h256v-256h128v256h256v128h-256v256zM828 64h-624q27 120 110 241q62 90 137 147.5t154 74.5q33 8 54.5 34t21.5 60v68q0 56 -49 84q-89 51 -142.5 154t-53.5 225q0 172 97.5 294t234.5 122t234.5 -122t97.5 -294q0 -28 -3 -55
q93 54 194 79q-8 233 -147 400q-74 89 -171.5 136.5t-204.5 47.5t-204.5 -47.5t-171.5 -136.5q-148 -178 -148 -424q0 -174 80 -323q49 -91 121 -156q-166 -80 -289 -259q-73 -106 -114.5 -224.5t-41.5 -221.5q0 -40 28 -68t68 -28h896q-97 80 -164 192zM1472 872
q115 0 212.5 -57t154.5 -154.5t57 -212.5t-57 -212.5t-154.5 -154.5t-212.5 -57t-212.5 57t-154.5 154.5t-57 212.5t57 212.5t154.5 154.5t212.5 57zM1472 1024q-117 0 -223.5 -45.5t-184 -123t-123 -184t-45.5 -223.5t45.5 -223.5t123 -184t184 -123t223.5 -45.5
t223.5 45.5t184 123t123 184t45.5 223.5t-45.5 223.5t-123 184t-184 123t-223.5 45.5z" />
    <glyph glyph-name="uniE08B" unicode="&#xe08b;" 
d="M828 64h-624q27 120 110 241q62 90 137 147.5t154 74.5q33 8 54.5 34t21.5 60v68q0 56 -49 84q-89 51 -142.5 154t-53.5 225q0 172 97.5 294t234.5 122t234.5 -122t97.5 -294q0 -28 -3 -55q93 54 194 79q-8 233 -147 400q-74 89 -171.5 136.5t-204.5 47.5t-204.5 -47.5
t-171.5 -136.5q-148 -178 -148 -424q0 -174 80 -323q49 -91 121 -156q-166 -80 -289 -259q-73 -106 -114.5 -224.5t-41.5 -221.5q0 -40 28 -68t68 -28h896q-97 80 -164 192zM1152 512h640v-128h-640v128zM1472 872q115 0 212.5 -57t154.5 -154.5t57 -212.5t-57 -212.5
t-154.5 -154.5t-212.5 -57t-212.5 57t-154.5 154.5t-57 212.5t57 212.5t154.5 154.5t212.5 57zM1472 1024q-117 0 -223.5 -45.5t-184 -123t-123 -184t-45.5 -223.5t45.5 -223.5t123 -184t184 -123t223.5 -45.5t223.5 45.5t184 123t123 184t45.5 223.5t-45.5 223.5t-123 184
t-184 123t-223.5 45.5z" />
    <glyph glyph-name="uniE08C" unicode="&#xe08c;" 
d="M828 64h-624q27 120 110 241q62 90 137 147.5t154 74.5q33 8 54.5 34t21.5 60v68q0 56 -49 84q-89 51 -142.5 154t-53.5 225q0 172 97.5 294t234.5 122t234.5 -122t97.5 -294q0 -28 -3 -55q93 54 194 79q-8 233 -147 400q-74 89 -171.5 136.5t-204.5 47.5t-204.5 -47.5
t-171.5 -136.5q-148 -178 -148 -424q0 -174 80 -323q49 -91 121 -156q-166 -80 -289 -259q-73 -106 -114.5 -224.5t-41.5 -221.5q0 -40 28 -68t68 -28h896q-97 80 -164 192zM1472 1024q-117 0 -223.5 -45.5t-184 -123t-123 -184t-45.5 -223.5t45.5 -223.5t123 -184t184 -123
t223.5 -45.5t223.5 45.5t184 123t123 184t45.5 223.5t-45.5 223.5t-123 184t-184 123t-223.5 45.5zM1713 797l-241 -242l-241 242q106 75 241 75t241 -75zM1048 448q0 135 75 241l242 -241l-242 -241q-75 106 -75 241zM1231 99l241 242l241 -242q-106 -75 -241 -75t-241 75z
M1821 207l-242 241l242 241q75 -106 75 -241t-75 -241z" />
    <glyph glyph-name="uniE08D" unicode="&#xe08d;" 
d="M828 64h-624q27 120 110 241q62 90 137 147.5t154 74.5q33 8 54.5 34t21.5 60v68q0 56 -49 84q-89 51 -142.5 154t-53.5 225q0 172 97.5 294t234.5 122t234.5 -122t97.5 -294q0 -28 -3 -55q93 54 194 79q-8 233 -147 400q-74 89 -171.5 136.5t-204.5 47.5t-204.5 -47.5
t-171.5 -136.5q-148 -178 -148 -424q0 -174 80 -323q49 -91 121 -156q-166 -80 -289 -259q-73 -106 -114.5 -224.5t-41.5 -221.5q0 -40 28 -68t68 -28h896q-97 80 -164 192zM1472 1024q-117 0 -223.5 -45.5t-184 -123t-123 -184t-45.5 -223.5t45.5 -223.5t123 -184t184 -123
t223.5 -45.5t223.5 45.5t184 123t123 184t45.5 223.5t-45.5 223.5t-123 184t-184 123t-223.5 45.5zM1048 448q0 115 57 212.5t154.5 154.5t212.5 57q135 0 241 -75l-590 -590q-75 106 -75 241zM1472 24q-135 0 -241 75l590 590q75 -106 75 -241q0 -115 -57 -212.5
t-154.5 -154.5t-212.5 -57z" />
    <glyph glyph-name="uniE08E" unicode="&#xe08e;" 
d="M512 1280q0 212 150 362t362 150t362 -150t150 -362t-150 -362t-362 -150t-362 150t-150 362zM1536 640h-1024q-212 0 -362 -150t-150 -362v-128h16h2016h16v128q0 212 -150 362t-362 150z" />
    <glyph glyph-name="uniE08F" unicode="&#xe08f;" 
d="M1024 1664q159 0 271.5 -112.5t112.5 -271.5t-112.5 -271.5t-271.5 -112.5t-271.5 112.5t-112.5 271.5t112.5 271.5t271.5 112.5zM1024 1792q-212 0 -362 -150t-150 -362t150 -362t362 -150t362 150t150 362t-150 362t-362 150zM1536 512q159 0 271.5 -112.5
t112.5 -271.5h-1792q0 159 112.5 271.5t271.5 112.5h1024zM1536 640h-1024q-212 0 -362 -150t-150 -362v-128h16h2016h16v128q0 212 -150 362t-362 150z" />
    <glyph glyph-name="uniE090" unicode="&#xe090;" 
d="M1024 768q212 0 362 150t150 362t-150 362t-362 150t-362 -150t-150 -362t150 -362t362 -150zM640 1280v16h768v-16v-16h-768v16zM753 1552h542q16 -16 29 -32h-600q13 16 29 32zM790 1584q24 19 48 32h372q24 -13 48 -32h-468zM1347 1488q2 -4 18 -32h-682q16 28 18 32
h646zM1380 1424q7 -18 11 -32h-734q4 14 11 32h712zM1400 1360q4 -23 5 -32h-762q1 9 5 32h752zM1405 1232q-1 -9 -5 -32h-752q-4 23 -5 32h762zM1391 1168q-4 -14 -11 -32h-712q-7 18 -11 32h734zM1365 1104q-16 -28 -18 -32h-646q-2 4 -18 32h682zM1295 1008h-542
q-16 15 -29 32h600q-13 -17 -29 -32zM1258 976q-24 -19 -48 -32h-372q-24 13 -48 32h468zM914 912h220q-56 -16 -110 -16t-110 16zM1134 1648h-220q56 16 110 16t110 -16zM1536 640h-1024q-212 0 -362 -150t-150 -362v-128h16h2016h16v128q0 212 -150 362t-362 150zM241 400
h1566q15 -16 29 -32h-1624q14 16 29 32zM278 432q24 19 48 32h1396q24 -13 48 -32h-1492zM1859 336q2 -4 18 -32h-1706q16 28 18 32h1670zM1892 272q7 -18 11 -32h-1758q4 14 11 32h1736zM1912 208q4 -23 5 -32h-1786q1 9 5 32h1776zM1536 512q54 0 110 -16h-1244
q56 16 110 16h1024zM128 128v16h1792v-16h-1792z" />
    <glyph glyph-name="uniE091" unicode="&#xe091;" 
d="M1347 599q-148 -113 -323 -113t-323 113q-203 -42 -361.5 -129.5t-249 -210t-90.5 -259.5h2048q0 137 -90.5 259.5t-249 210t-361.5 129.5zM603 1216h842h-842z" />
    <glyph glyph-name="uniE092" unicode="&#xe092;" 
d="M1152 632v59q59 50 93.5 139t34.5 194q0 159 -75 271.5t-181 112.5t-181 -112.5t-75 -271.5q0 -105 34.5 -194t93.5 -139v-59q-221 -27 -366.5 -132.5t-145.5 -243.5h1280q0 138 -145.5 243.5t-366.5 132.5zM643 701q-82 51 -195 63v30q64 56 64 166q0 80 -37.5 136
t-90.5 56t-90.5 -56t-37.5 -136q0 -110 64 -166v-30q-137 -15 -228.5 -86t-91.5 -166h359q105 121 284 189zM1728 764v30q64 56 64 166q0 80 -37.5 136t-90.5 56t-90.5 -56t-37.5 -136q0 -110 64 -166v-30q-113 -12 -195 -63q179 -68 284 -189h359q0 95 -91.5 166t-228.5 86
z" />
    <glyph glyph-name="uniE093" unicode="&#xe093;" 
d="M640 1536q0 159 112.5 271.5t271.5 112.5t271.5 -112.5t112.5 -271.5t-112.5 -271.5t-271.5 -112.5t-271.5 112.5t-112.5 271.5zM1536 1024h-71l-398 -808l149 744l-192 192l-192 -192l149 -744l-398 808h-71q-62 0 -107.5 -12t-73 -42t-43.5 -57t-22.5 -81t-8 -88
t-1.5 -104v-640h1536v640q0 70 -1.5 104t-8 88t-22.5 81t-43.5 57t-73 42t-107.5 12z" />
    <glyph glyph-name="uniE094" unicode="&#xe094;" 
d="M640 1408q0 159 112.5 271.5t271.5 112.5t271.5 -112.5t112.5 -271.5t-112.5 -271.5t-271.5 -112.5t-271.5 112.5t-112.5 271.5zM1024 896q-209 0 -385.5 -120t-279.5 -326.5t-103 -449.5h256q0 174 68.5 321t186.5 233t257 86t257 -86t186.5 -233t68.5 -321h256
q0 243 -103 449.5t-279.5 326.5t-385.5 120z" />
    <glyph glyph-name="uniE095" unicode="&#xe095;" 
d="M384 1152q0 106 75 181t181 75t181 -75t75 -181t-75 -181t-181 -75t-181 75t-75 181zM1152 1536q0 106 75 181t181 75t181 -75t75 -181t-75 -181t-181 -75t-181 75t-75 181zM640 768q-130 0 -248.5 -61t-204.5 -163.5t-136.5 -245t-50.5 -298.5h192q0 124 39 235
q37 105 104 185q130 156 305 156t305 -156q67 -80 104 -185q39 -111 39 -235h192q0 156 -50.5 298.5t-136.5 245t-204.5 163.5t-248.5 61zM1408 1152q-138 0 -261.5 -67t-213.5 -186q21 -9 43 -20q65 -32 124 -78l3 3q130 156 305 156t305 -156q67 -80 104 -185
q39 -111 39 -235h192q0 156 -50.5 298.5t-136.5 245t-204.5 163.5t-248.5 61z" />
    <glyph glyph-name="uniE096" unicode="&#xe096;" 
d="M1792 1536h-1536q-106 0 -181 -75t-75 -181v-896q0 -106 75 -181t181 -75h1536q106 0 181 75t75 181v896q0 106 -75 181t-181 75zM256 384q0 139 43 257t116.5 186.5t160.5 68.5q-80 0 -136 56t-56 136t56 136t136 56t136 -56t56 -136t-56 -136t-136 -56
q87 0 160.5 -68.5t116.5 -186.5t43 -257h-640zM1792 384h-640v128h640v-128zM1792 768h-640v128h640v-128zM1792 1152h-640v128h640v-128z" />
    <glyph glyph-name="uniE097" unicode="&#xe097;" 
d="M1396 1664l652 -128v-512h-384v-1024h-1280v1024h-384v512l652 128q33 -126 136 -207t236 -81t236 81t136 207z" />
    <glyph glyph-name="uniE098" unicode="&#xe098;" 
d="M1991 234l-839 600v158q0 73 -27.5 102.5t-96.5 29.5h-37q-60 12 -87 39q-20 20 -33.5 54.5t-13.5 68.5t13.5 68.5t33.5 54.5q46 46 112 46t112 -46q31 -30 74 -30t74 30t31 73t-31 73q-109 107 -260 107q-152 0 -261 -107q-50 -49 -79 -121.5t-29 -147.5t29 -147.5
t79 -121.5q58 -58 141 -87v-96l-842 -602q-34 -24 -47.5 -63.5t-0.5 -79.5t46.5 -64.5t75.5 -24.5h1792q53 0 90.5 37.5t37.5 90.5q0 67 -57 106zM463 256l561 387l561 -387h-1122z" />
    <glyph glyph-name="uniE099" unicode="&#xe099;" 
d="M450 1024q185 0 316.5 -131.5t131.5 -316.5t-131.5 -316.5t-316.5 -131.5t-316.5 131.5t-131.5 316.5l-2 64q0 182 71 348t191 286t286 191t348 71v-256q-128 0 -245 -48t-208 -139q-33 -33 -63 -74q29 5 70 5zM1602 1024q185 0 316.5 -131.5t131.5 -316.5t-131.5 -316.5
t-316.5 -131.5t-316.5 131.5t-131.5 316.5l-2 64q0 182 71 348t191 286t286 191t348 71v-256q-128 0 -245 -48t-208 -139q-33 -33 -63 -74q29 5 70 5z" />
    <glyph glyph-name="uniE09A" unicode="&#xe09a;" 
d="M1600 640q-185 0 -316.5 131.5t-131.5 316.5t131.5 316.5t316.5 131.5t316.5 -131.5t131.5 -316.5l2 -64q0 -182 -71 -348t-191 -286t-286 -191t-348 -71v256q128 0 245 48t208 139q33 33 63 74q-29 -5 -70 -5zM448 640q-185 0 -316.5 131.5t-131.5 316.5t131.5 316.5
t316.5 131.5t316.5 -131.5t131.5 -316.5l2 -64q0 -182 -71 -348t-191 -286t-286 -191t-348 -71v256q128 0 245 48t208 139q33 33 63 74q-29 -5 -70 -5z" />
    <glyph glyph-name="uniE09B" unicode="&#xe09b;" 
d="M768 1792v-1792h-768v896zM1920 1792v-1792h-768v896z" />
    <glyph glyph-name="uniE09C" unicode="&#xe09c;" 
d="M1152 0v1792h768v-896zM0 0v1792h768v-896z" />
    <glyph glyph-name="uniE09D" unicode="&#xe09d;" 
d="M1458 896q211 134 336.5 372.5t125.5 523.5q0 69 -7 128h-1778q-7 -59 -7 -128q0 -285 125.5 -523.5t336.5 -372.5q-211 -134 -336.5 -372.5t-125.5 -523.5q0 -69 7 -128h1778q7 59 7 128q0 285 -125.5 523.5t-336.5 372.5zM320 0q0 188 51.5 348.5t153.5 278t243 168.5
v202q-141 51 -243 168.5t-153.5 278t-51.5 348.5h1408q0 -188 -51.5 -348.5t-153.5 -278t-243 -168.5v-202q141 -51 243 -168.5t153.5 -278t51.5 -348.5h-1408zM1239 581q-50 29 -83 63t-46.5 70.5t-17.5 61.5t-4 56v128q0 32 4 56.5t17 60.5t46 70.5t84 63.5
q119 70 195 197h-820q78 -129 195 -197q50 -29 83 -63t46.5 -70.5t17.5 -61.5t4 -56v-128q0 -32 -4 -56.5t-17 -60.5t-46 -70.5t-84 -63.5q-109 -63 -185.5 -183t-101.5 -270h1004q-25 150 -101.5 270t-185.5 183z" />
    <glyph glyph-name="uniE09E" unicode="&#xe09e;" 
d="M1387 662q-57 37 -83.5 54.5t-62.5 45t-51 45.5t-26.5 41.5t-11.5 47.5q0 56 50.5 102t184.5 132q184 115 294.5 326.5t110.5 463.5h-1536q0 -252 110.5 -463.5t294.5 -326.5q57 -37 83.5 -54.5t62.5 -45t51 -45.5t26.5 -41.5t11.5 -47.5q0 -56 -50.5 -102t-184.5 -132
q-184 -115 -294.5 -326.5t-110.5 -463.5h1536q0 252 -110.5 463.5t-294.5 326.5zM519 1532q-54 103 -76 217h1162q-22 -114 -76 -217q-36 -68 -82 -124h-846q-46 56 -82 124zM992 389q0 -29 -55 -73t-121 -84.5t-121 -93t-55 -95.5h-197q22 114 76 217q87 168 232 258l2 1h1
l6 4q59 39 91.5 61.5t73.5 55.5t67 63v-314zM1605 43h-197q0 43 -55 95.5t-121 93t-121 84.5t-55 73v314q26 -30 67 -63t73.5 -55.5t91.5 -61.5l6 -4h1l2 -1q145 -90 232 -258q54 -103 76 -217z" />
    <glyph glyph-name="uniE09F" unicode="&#xe09f;" 
d="M1408 1536h-896l384 -384v-512l-384 -384h896l-384 384v512zM1920 1611v309h-1920v-309l640 -640v-150l-640 -640v-309h1920v309l-640 640v150zM1792 128h-1664l640 640v256l-640 640h1664l-640 -640v-256z" />
    <glyph glyph-name="uniE0A0" unicode="&#xe0a0;" 
d="M760 700q-144 -79 -242 -230.5t-125 -341.5h1262q-27 190 -125 341.5t-242 230.5q-49 35 -78.5 63t-41 53t-14 39.5t-2.5 40.5t2.5 40.5t14 39.5t41 53t78.5 63q144 79 242 230.5t125 341.5h-1262q27 -190 125 -341.5t242 -230.5q49 -35 78.5 -63t41 -53t14 -39.5
t2.5 -40.5t-2.5 -40.5t-14 -39.5t-41 -53t-78.5 -63zM256 0h1536v-128h-1536v128zM256 1920h1536v-128h-1536v128z" />
    <glyph glyph-name="uniE0A1" unicode="&#xe0a1;" 
d="M768 1664q0 106 75 181t181 75t181 -75t75 -181t-75 -181t-181 -75t-181 75t-75 181zM1311 1439q0 106 75 181t181 75t181 -75t75 -181t-75 -181t-181 -75t-181 75t-75 181zM1664 896q0 53 37.5 90.5t90.5 37.5t90.5 -37.5t37.5 -90.5t-37.5 -90.5t-90.5 -37.5
t-90.5 37.5t-37.5 90.5zM1439 353q0 53 37.5 90.5t90.5 37.5t90.5 -37.5t37.5 -90.5t-37.5 -90.5t-90.5 -37.5t-90.5 37.5t-37.5 90.5zM896 128q0 53 37.5 90.5t90.5 37.5t90.5 -37.5t37.5 -90.5t-37.5 -90.5t-90.5 -37.5t-90.5 37.5t-37.5 90.5zM353 353q0 53 37.5 90.5
t90.5 37.5t90.5 -37.5t37.5 -90.5t-37.5 -90.5t-90.5 -37.5t-90.5 37.5t-37.5 90.5zM289 1439q0 79 56.5 135.5t135.5 56.5t135.5 -56.5t56.5 -135.5t-56.5 -135.5t-135.5 -56.5t-135.5 56.5t-56.5 135.5zM112 896q0 59 42.5 101.5t101.5 42.5t101.5 -42.5t42.5 -101.5
t-42.5 -101.5t-101.5 -42.5t-101.5 42.5t-42.5 101.5z" />
    <glyph glyph-name="uniE0A2" unicode="&#xe0a2;" 
d="M2048 896q-5 207 -85 389q-80 184 -226 324q-144 138 -330 211q-184 73 -383 68t-377 -83q-179 -79 -313 -219q-136 -142 -205 -319q-70 -178 -65 -371q5 -192 80 -364q77 -175 212 -304q133 -129 310 -197q171 -68 358 -63t352 78q170 76 293 205q123 127 190 299
q40 102 53 208q1 0 3.5 -0.5t4.5 -0.5q53 0 90.5 37.5t37.5 90.5v11v0zM1845 556q-70 -158 -199 -282q-126 -121 -288 -184t-334 -58q-173 5 -328 73q-153 68 -272 191q-114 119 -176 278q-61 156 -56 322q5 165 71 315q66 149 184 262q116 112 268 170q150 58 309 53
t303 -68q142 -63 251 -178q109 -116 163 -257q55 -146 51 -297v-11q0 -49 33 -85.5t81 -41.5q-18 -103 -61 -202z" />
    <glyph glyph-name="uniE0A3" unicode="&#xe0a3;" 
d="M384 896q0 40 4 72l-370 120q-18 -93 -18 -192q0 -217 85.5 -410.5t237.5 -336.5l229 315q-168 184 -168 432zM1664 896q0 -248 -168 -432l229 -315q152 143 237.5 336.5t85.5 410.5q0 99 -18 192l-370 -120q4 -32 4 -72zM1152 1523q137 -27 249 -109t180 -202l370 120
q-111 235 -323.5 391t-475.5 189v-389zM467 1212q68 120 180 202t249 109v389q-263 -33 -475.5 -189t-323.5 -391zM1289 313q-125 -57 -265 -57t-265 57l-229 -314q229 -127 494 -127t494 127z" />
    <glyph glyph-name="uniE0A4" unicode="&#xe0a4;" 
d="M1024 1920q-209 0 -398.5 -81t-326.5 -218t-218 -326.5t-81 -398.5t81 -398.5t218 -326.5t326.5 -218t398.5 -81t398.5 81t326.5 218t218 326.5t81 398.5t-81 398.5t-218 326.5t-326.5 218t-398.5 81zM1024 1408q212 0 362 -150t150 -362t-150 -362t-362 -150t-362 150
t-150 362t150 362t362 150zM1635 285q-122 -122 -280 -187.5t-331 -65.5t-331 65.5t-280 187.5t-187.5 280t-65.5 331t65.5 331t187.5 280l136 -136q-129 -129 -174.5 -302t0 -346t174.5 -302q95 -95 217.5 -146t257.5 -51q134 0 257 51t218 146q129 129 174.5 302t0 346
t-174.5 302l136 136q122 -122 187.5 -280t65.5 -331t-65.5 -331t-187.5 -280z" />
    <glyph glyph-name="uniE0A5" unicode="&#xe0a5;" 
d="M470 1216q85 146 232 233t322 87t322 -87t232 -233l333 192q-135 234 -371 373t-516 139t-516 -139t-371 -373z" />
    <glyph glyph-name="uniE0A6" unicode="&#xe0a6;" 
d="M1024 1920q296 0 542 -155t374 -411l-458 -229q-64 128 -187 205.5t-271 77.5t-271 -77.5t-187 -205.5l-458 229q128 256 374 411t542 155zM1482 667l458 -229q-128 -256 -374 -411t-542 -155t-542 155t-374 411l458 229q64 -128 187 -205.5t271 -77.5t271 77.5
t187 205.5z" />
    <glyph glyph-name="uniE0A7" unicode="&#xe0a7;" 
d="M1024 1920q296 0 542 -155t374 -411l-458 -229q-64 128 -187 205.5t-271 77.5t-271 -77.5t-187 -205.5l-458 229q128 256 374 411t542 155zM1531 486q-71 -86 -160 -142q-158 -100 -347 -100t-347 100q-89 56 -160 142l-211 -106q100 -140 247 -232q215 -136 471 -136
t471 136q147 92 247 232zM1482 667l458 -229q-128 -256 -374 -411t-542 -155t-542 155t-374 411l458 229q64 -128 187 -205.5t271 -77.5t271 77.5t187 205.5z" />
    <glyph glyph-name="uniE0A8" unicode="&#xe0a8;" 
d="M768 1664q0 106 75 181t181 75t181 -75t75 -181t-75 -181t-181 -75t-181 75t-75 181zM1582 896q0 87 61.5 148.5t148.5 61.5t148.5 -61.5t61.5 -148.5t-61.5 -148.5t-148.5 -61.5t-148.5 61.5t-61.5 148.5zM1377 353q0 79 55.5 134.5t134.5 55.5t134.5 -55.5t55.5 -134.5
t-55.5 -134.5t-134.5 -55.5t-134.5 55.5t-55.5 134.5zM852 128q0 71 50.5 121.5t121.5 50.5t121.5 -50.5t50.5 -121.5t-50.5 -121.5t-121.5 -50.5t-121.5 50.5t-50.5 121.5zM325 353q0 65 45.5 110.5t110.5 45.5t110.5 -45.5t45.5 -110.5t-45.5 -110.5t-110.5 -45.5
t-110.5 45.5t-45.5 110.5zM115 896q0 58 41.5 99.5t99.5 41.5t99.5 -41.5t41.5 -99.5t-41.5 -99.5t-99.5 -41.5t-99.5 41.5t-41.5 99.5zM353 1439q0 53 37.5 90.5t90.5 37.5t90.5 -37.5t37.5 -90.5t-37.5 -90.5t-90.5 -37.5t-90.5 37.5t-37.5 90.5zM1799 1439
q0 -96 -68 -164t-164 -68t-164 68t-68 164t68 164t164 68t164 -68t68 -164z" />
    <glyph glyph-name="uniE0A9" unicode="&#xe0a9;" 
d="M832 64q0 80 56 136t136 56t136 -56t56 -136t-56 -136t-136 -56t-136 56t-56 136zM0 896q0 80 56 136t136 56t136 -56t56 -136t-56 -136t-136 -56t-136 56t-56 136zM1664 896q0 80 56 136t136 56t136 -56t56 -136t-56 -136t-136 -56t-136 56t-56 136zM244 1484
q0 80 56 136t136 56t136 -56t56 -136t-56 -136t-136 -56t-136 56t-56 136zM1420 308q0 80 56 136t136 56t136 -56t56 -136t-56 -136t-136 -56t-136 56t-56 136zM244 308q0 80 56 136t136 56t136 -56t56 -136t-56 -136t-136 -56t-136 56t-56 136zM1420 1484q0 80 56 136
t136 56t136 -56t56 -136t-56 -136t-136 -56t-136 56t-56 136z" />
    <glyph glyph-name="uniE0AA" unicode="&#xe0aa;" 
d="M1024 1920q-205 0 -392.5 -79t-324 -212.5t-219.5 -319t-88 -389.5q6 238 118.5 438.5t302 317t411.5 116.5q169 0 323.5 -71t265.5 -191t177 -286t66 -348q0 -80 56 -136t136 -56t136 56t56 136q0 209 -81 398.5t-218 326.5t-326.5 218t-398.5 81zM1024 -128
q205 0 392.5 79t324 212.5t219.5 319t88 389.5q-6 -238 -118.5 -438.5t-302 -317t-411.5 -116.5q-169 0 -323.5 71t-265.5 191t-177 286t-66 348q0 80 -56 136t-136 56t-136 -56t-56 -136q0 -209 81 -398.5t218 -326.5t326.5 -218t398.5 -81z" />
    <glyph glyph-name="uniE0AB" unicode="&#xe0ab;" 
d="M0 893v-1q0 -12 3 -22q0 -1 0.5 -5.5t0.5 -6.5q0 -4 2 -12q1 -3 1.5 -8t0.5 -8q3 -15 6 -38q2 -7 4.5 -22t3.5 -20q1 -4 3.5 -12.5t2.5 -10.5l6 -24q0 -2 1.5 -6t2.5 -6q0 -2 2 -6.5t2 -6.5q2 -4 4.5 -13t3.5 -13q0 -1 1 -3.5t1 -3.5l3 -6q1 -2 2.5 -7t2.5 -7
q6 -18 10 -27q2 -5 6 -14.5t6 -13.5q1 -2 3 -6.5t3 -7.5l3.5 -7l3.5 -7q3 -5 7.5 -15t6.5 -14q3 -5 8 -14.5t8 -14.5q1 -2 3.5 -6.5t4.5 -7.5t5 -7t4 -7q3 -5 9 -15.5t8 -13.5q38 -58 85 -111q45 -51 101 -99q54 -45 114 -82q49 -30 118 -62l30 -12l15 -6q2 -1 7 -2.5
t8 -2.5q5 -1 14.5 -4.5t14.5 -5.5q10 -3 28 -9q2 -1 7 -2t7 -2q3 -1 7.5 -2t6.5 -1q5 -1 14 -3.5t13 -3.5t13 -2.5t14 -2.5q2 0 6.5 -1t6.5 -2q1 0 3 -0.5t3 -0.5t3 -0.5t3 -0.5q4 -1 12.5 -2t12.5 -1q2 0 6 -1t6 -1q4 -1 11 -1q4 0 11.5 -0.5t11.5 -1.5q7 -1 21 -1h1
q1 -52 38 -89t90 -37h3h1q12 0 23 3q1 0 5 0.5t6 0.5q4 0 12 2q3 1 8.5 1.5t8.5 0.5q15 3 38 6q8 2 22.5 4.5t18.5 3.5t12.5 3.5t10.5 2.5l24 6q2 0 6 2t6 2t6.5 2t6.5 2q4 2 13 4.5t13 3.5q1 0 3.5 1t3.5 1l6 3q2 1 7 2.5t7 2.5q18 6 27 10q5 2 14.5 6t13.5 6q2 1 6.5 3
t7.5 3l7 3.5l7 3.5q5 3 15 7.5t14 6.5q5 3 14.5 8t14.5 8q3 1 7.5 4t6.5 4l15 9q3 2 28 17q58 38 111 85q51 45 99 101q45 54 82 114q34 55 63 118l12 30q1 2 2.5 7t2.5 8l6 15q2 5 5.5 14.5t4.5 14.5q1 4 3.5 13.5t4.5 14.5q1 2 2 7t2 7q1 3 2 7.5t2 6.5l6 27q1 5 2.5 14
t2.5 13q0 2 1 6.5t2 6.5q0 1 0.5 3t0.5 3t0.5 3t0.5 3q1 4 2 12.5t1 12.5q0 2 1 6t1 6q1 4 1 11q0 4 0.5 11.5t1.5 11.5q1 7 1 21v1l1 2q53 0 90 37.5t37 90.5v3v1q0 11 -3 22q0 1 -0.5 5.5t-0.5 6.5q0 4 -2 12q-1 3 -1.5 8t-0.5 8q-3 15 -6 38q-2 7 -4.5 22t-3.5 20
q-1 4 -3.5 12.5t-2.5 10.5l-6 24q0 2 -2 6t-2 6t-2 6.5t-2 6.5q-2 4 -4.5 13t-3.5 13q0 1 -1 3.5t-1 3.5l-3 6q-1 2 -2.5 7t-2.5 7q-6 18 -10 27q-2 4 -6 14t-6 14q-1 2 -3 6.5t-3 7.5l-3.5 7l-3.5 7q-3 5 -7.5 15t-6.5 14q-3 5 -8.5 14.5t-7.5 14.5q-1 3 -3.5 7t-4.5 7
q-1 3 -4 7.5t-5 6.5q-3 5 -9 15.5t-8 13.5q-38 58 -85 111q-45 51 -101 99q-54 45 -114 82q-49 30 -118 62l-30 12l-15 6q-2 1 -7 2.5t-8 2.5q-5 2 -14.5 5t-14.5 5q-10 3 -28 9q-2 1 -6.5 2t-7.5 2q-2 1 -7 2t-7 1q-4 1 -13 3.5t-14 3.5t-14 2.5t-13 2.5q-2 0 -6.5 1
t-6.5 2q-1 0 -3 0.5t-3 0.5t-3 0.5t-3 0.5q-4 1 -12.5 2t-12.5 1q-2 0 -6 1t-6 1q-4 1 -11 1q-4 0 -11.5 0.5t-11.5 1.5q-7 1 -21 1h-5q-1 52 -38 89t-90 37h-3h-1q-12 0 -22 -3q-1 0 -5.5 -0.5t-6.5 -0.5q-4 0 -12 -2q-3 -1 -8 -1.5t-8 -0.5q-15 -3 -38 -6q-7 -2 -22 -4.5
t-20 -3.5q-4 -1 -12.5 -3.5t-10.5 -2.5l-24 -6q-2 -1 -6 -2.5t-6 -1.5t-6.5 -2t-6.5 -2q-4 -2 -13 -4.5t-13 -3.5q-1 0 -3 -1t-3 -1t-3.5 -1t-3.5 -2q-2 -1 -6.5 -2.5t-6.5 -2.5q-22 -7 -28 -10q-4 -2 -14 -6t-14 -6q-3 -1 -7 -3t-7 -3l-7 -3.5l-7 -3.5q-5 -3 -15 -7.5
t-14 -6.5q-5 -2 -14 -7.5t-14 -8.5q-3 -2 -8 -4.5l-7 -3.5t-7 -4t-7 -5q-5 -3 -15.5 -9t-13.5 -8q-55 -36 -110 -85t-100 -101q-45 -54 -82 -114q-30 -49 -62 -118l-12 -30l-6 -15q-1 -2 -2.5 -7t-2.5 -8q-1 -5 -4.5 -14.5t-5.5 -14.5q-3 -10 -9 -28q-1 -2 -2 -7t-2 -7
t-2 -7t-1 -7q-1 -5 -3.5 -14t-3.5 -13t-2.5 -13.5t-2.5 -13.5q0 -2 -1 -6.5t-1 -6.5q0 -1 -1 -3t-1 -3v-6q0 -4 -1.5 -12.5t-2.5 -12.5q0 -2 -1 -6t-1 -6q-1 -4 -1 -11q0 -4 -0.5 -11.5t-1.5 -11.5q-1 -7 -1 -21v-3q-52 -1 -88 -38.5t-36 -89.5v-3zM147 1023v1q1 6 5 20
l6 21q0 2 1 5t2 5t2 5.5t2 5.5q5 18 7 23q0 1 1 3t1 3t1 2.5t1 2.5q1 4 5 12l9 24q2 4 5.5 12t5.5 12l6 12q1 2 3 6.5t3 6.5l12 24q6 13 14 25q1 2 3.5 6.5t3.5 6.5q2 4 8 12q3 4 8 12.5t8 12.5q30 45 75 95q49 53 89 85q45 37 99 70q48 28 104 53q5 1 13 4.5t13 5.5
q8 4 12 5q2 0 6.5 2t6.5 2q4 1 12.5 4t12.5 4t12.5 3.5t12.5 3.5q2 1 6 2t6 2t6 1t6 1l24 6q4 1 11.5 2t11.5 2q2 1 5.5 1t5.5 1q1 0 2.5 0.5t2.5 0.5h6l21 3q2 0 5 0.5t5 0.5t5 0.5t5 0.5q4 0 10 1t9 1t9 0.5t9 0.5h33q5 0 13.5 -0.5t12.5 -0.5h11q2 0 6 -0.5t6 -0.5h11
q14 -2 20 -2h3v0q46 1 81 32t43 76h1l2 -1q6 -1 20 -5l21 -6q2 0 5 -1t5 -2t5.5 -2.5t5.5 -1.5q18 -5 23 -7q1 0 3 -1t3 -1t2.5 -1t2.5 -1q4 -1 12 -5l24 -9q4 -2 12 -5.5t12 -5.5q2 -1 6 -2.5t6 -2.5t6.5 -3.5t6.5 -3.5l24 -12q13 -6 25 -14q2 -1 6.5 -3.5t6.5 -3.5
q4 -2 12 -8q4 -2 12.5 -7.5t12.5 -8.5q49 -33 95 -74q49 -46 85 -90q37 -45 70 -99q28 -48 53 -104q1 -5 5 -12.5t5 -12.5q3 -7 5 -13q0 -2 2 -6.5t2 -6.5q2 -4 4.5 -12.5t3.5 -12.5t3.5 -12.5t3.5 -12.5q1 -2 2.5 -6t1.5 -6q1 -2 1 -6t1 -6q1 -4 3 -11.5t3 -11.5t2 -11.5
t2 -11.5q1 -2 1 -6t1 -6q0 -1 0.5 -2.5t0.5 -2.5v-5q0 -4 1 -11.5t2 -10.5q0 -2 0.5 -5t0.5 -5t0.5 -5t0.5 -5q0 -4 1 -10t1 -9t0.5 -9t0.5 -9v-33q0 -5 -0.5 -13.5t-0.5 -12.5v-10q0 -2 -0.5 -6t-0.5 -6v-12q-2 -14 -2 -20v-3v0q1 -46 31 -80.5t74 -42.5v-2q-1 -6 -5 -20
l-6 -21q0 -2 -1 -5t-2 -5q0 -2 -1.5 -5.5t-2.5 -5.5q-5 -18 -7 -23q0 -1 -1 -3t-1 -3t-1 -2.5t-1 -2.5q-1 -4 -5 -12l-9 -24q-2 -4 -5.5 -12t-5.5 -12q-1 -2 -2.5 -6t-2.5 -6t-3 -6.5t-3 -6.5q-2 -4 -6.5 -12t-6.5 -12q-6 -13 -14 -25q-1 -2 -3.5 -6.5t-3.5 -6.5
q-2 -4 -8 -12q-3 -4 -8.5 -12.5t-7.5 -12.5q-33 -49 -74 -95q-46 -49 -90 -85q-45 -37 -99 -70q-51 -30 -103 -53q-5 -1 -13.5 -5t-12.5 -5q-7 -3 -13 -5q-2 0 -6.5 -2t-6.5 -2q-4 -2 -12.5 -4t-12.5 -4q-4 -1 -12.5 -3.5t-12.5 -3.5q-2 -1 -6 -2t-6 -2t-6 -1t-6 -1
q-4 -1 -11.5 -3t-11.5 -3t-11.5 -2t-11.5 -2q-2 -1 -5.5 -1t-5.5 -1q-1 0 -3 -0.5t-3 -0.5h-5l-21 -3q-1 0 -5 -0.5t-6 -0.5t-5 -0.5t-5 -0.5q-4 0 -10 -1t-9 -1t-9 -0.5t-9 -0.5h-33q-5 0 -13 0.5t-12 0.5h-11q-2 0 -6 0.5t-6 0.5h-12q-14 2 -20 2h-3v0q-46 -1 -80.5 -31.5
t-42.5 -75.5q-6 1 -20 5l-21 6q-2 0 -5 1t-5 2t-5.5 2t-5.5 2q-18 5 -23 7q-1 0 -3 1t-3 1t-2.5 1t-2.5 1q-4 1 -12 5l-24 9q-4 2 -12 5.5t-12 5.5q-2 1 -6 2.5t-6 2.5t-6.5 3.5t-6.5 3.5l-24 12q-13 7 -25 14q-2 1 -6.5 3.5t-6.5 3.5q-4 2 -12 8q-4 2 -12.5 7.5t-12.5 8.5
q-49 33 -95 74q-49 46 -85 90q-37 45 -70 99q-28 48 -53 104q-2 5 -5.5 13t-4.5 12q-3 7 -5 13q0 2 -2 6.5t-2 6.5q-2 4 -4 12.5t-4 12.5q-1 4 -3.5 12.5t-3.5 12.5q-1 2 -2 6t-2 6t-1 6t-1 6q-1 4 -3 11.5t-3 11.5t-2 11.5t-2 11.5q-1 2 -1 5.5t-1 5.5q0 1 -0.5 3t-0.5 3v5
q0 3 -1 11t-2 11q0 2 -0.5 5t-0.5 5t-0.5 5t-0.5 5q0 4 -1 10t-1 9t-0.5 9t-0.5 9v33q0 5 0.5 13.5t0.5 12.5v10q0 2 0.5 6t0.5 6v12q2 14 2 20v3v0q-1 47 -32 82t-77 42z" />
    <glyph glyph-name="uniE0AC" unicode="&#xe0ac;" 
d="M2048 1152h-768l287 287q-109 109 -249 167t-294 58t-294 -58t-249 -167t-167 -249t-58 -294t58 -294t167 -249t249 -167t294 -58t294 58t249 167q24 24 35 37l193 -168q-144 -164 -344.5 -257t-426.5 -93q-209 0 -398.5 81t-326.5 218t-218 326.5t-81 398.5t81 398.5
t218 326.5t326.5 218t398.5 81q208 0 395 -79t329 -221l300 300v-768z" />
    <glyph glyph-name="uniE0AD" unicode="&#xe0ad;" 
d="M1024 64q-153 0 -295 54q-89 -106 -89 -246h768q0 140 -89 246q-142 -54 -295 -54zM1280 768v-256h173q-7 -8 -22 -23q-82 -82 -187 -125.5t-220 -43.5t-220 43.5t-187 125.5t-125.5 187t-43.5 220q0 108 40.5 210t114.5 183l470 -366l158 202l-1023 795l-208 -162
l451 -351q-91 -104 -143 -236.5t-52 -274.5q0 -209 103 -385.5t279.5 -279.5t385.5 -103q210 0 387 104.5t278 279.5h359v256h-768z" />
    <glyph glyph-name="uniE0AE" unicode="&#xe0ae;" 
d="M128 1920h768v-128h-768v128zM1152 1920h768v-128h-768v128zM1904 1280h-112v512h-512v-512h-512v512h-512v-512h-112q-59 0 -101.5 -42.5t-42.5 -101.5v-1120q0 -59 42.5 -101.5t101.5 -42.5h608q59 0 101.5 42.5t42.5 101.5v752h256v-752q0 -59 42.5 -101.5
t101.5 -42.5h608q59 0 101.5 42.5t42.5 101.5v1120q0 59 -42.5 101.5t-101.5 42.5zM696 0h-496q-30 0 -51 19t-21 45t21 45t51 19h496q30 0 51 -19t21 -45t-21 -45t-51 -19zM1088 896h-128q-26 0 -45 19t-19 45t19 45t45 19h128q26 0 45 -19t19 -45t-19 -45t-45 -19zM1848 0
h-496q-30 0 -51 19t-21 45t21 45t51 19h496q30 0 51 -19t21 -45t-21 -45t-51 -19z" />
    <glyph glyph-name="uniE0AF" unicode="&#xe0af;" 
d="M1920 1024h-128l-128 640h-160l32 256h-384l32 -256h-320l32 256h-384l32 -256h-160l-128 -640h-128l-128 -1024v-128h768v1152h128v128h256v-128h128v-1152h768v128z" />
    <glyph glyph-name="uniE0B0" unicode="&#xe0b0;" 
d="M1763 32l-509 748q-10 15 -28 18.5t-33 -5.5l-65 -38q-15 -9 -20 -27t3 -34l422 -800q8 -16 25 -20.5t32 4.5l160 96q15 9 19 26t-6 32zM1185 856q95 61 131 178t7 263t-119 286q-115 181 -274.5 271t-299.5 58q-68 -13 -152 -66q-80 -51 -124 -110
q-89 -111 -74.5 -294.5t129.5 -364.5q137 -214 330 -298.5t337 7.5zM1116 965q-47 -32 -111 -25.5t-129.5 39t-131.5 94.5t-117 142q-104 163 -110 326t89 224t240 -13.5t249 -237.5t110 -325.5t-89 -223.5z" />
    <glyph glyph-name="uniE0B1" unicode="&#xe0b1;" 
d="M1796 43l-458 673q130 102 197 252t58 315.5t-96 309.5q-94 157 -252 243.5t-337.5 84t-336.5 -96.5t-244 -252t-84 -338t97 -337q64 -106 160.5 -181.5t206 -111.5t230.5 -33t233 48l381 -724q9 -17 26.5 -22t34.5 5l171 103q16 10 20 28t-7 34zM1155 852
q-107 -64 -229 -66t-229 57t-171 166t-66 229t57 229t166 171t229 66t229 -57t171 -166t66 -229t-57 -229t-166 -171z" />
    <glyph glyph-name="uniE0B2" unicode="&#xe0b2;" 
d="M768 1536h-128v-256h-256v-128h256v-256h128v256h256v128h-256v256zM1275 804q133 184 133 412q0 143 -55.5 273.5t-150 225t-225 150t-273.5 55.5t-273.5 -55.5t-225 -150t-150 -225t-55.5 -273.5t55.5 -273.5t150 -225t225 -150t273.5 -55.5q228 0 412 133l676 -773
l256 256zM704 704q-212 0 -362 150t-150 362t150 362t362 150t362 -150t150 -362t-150 -362t-362 -150z" />
    <glyph glyph-name="uniE0B3" unicode="&#xe0b3;" 
d="M384 1280h640v-128h-640v128zM1275 804q133 184 133 412q0 143 -55.5 273.5t-150 225t-225 150t-273.5 55.5t-273.5 -55.5t-225 -150t-150 -225t-55.5 -273.5t55.5 -273.5t150 -225t225 -150t273.5 -55.5q228 0 412 133l676 -773l256 256zM704 704q-212 0 -362 150
t-150 362t150 362t362 150t362 -150t150 -362t-150 -362t-362 -150z" />
    <glyph glyph-name="uniE0B4" unicode="&#xe0b4;" 
d="M1985 177l-486 413q-75 67 -147 64q88 102 136 230t48 268q0 209 -103 385.5t-279.5 279.5t-385.5 103t-385.5 -103t-279.5 -279.5t-103 -385.5t103 -385.5t279.5 -279.5t385.5 -103q140 0 268 48t230 136q-3 -72 64 -147l413 -486q53 -58 128.5 -62.5t127.5 48.5
q53 52 48.5 127.5t-62.5 128.5zM768 640q-212 0 -362 150t-150 362t150 362t362 150t362 -150t150 -362t-150 -362t-362 -150z" />
    <glyph glyph-name="uniE0B5" unicode="&#xe0b5;" 
d="M1985 177l-486 413q-75 67 -147 64q88 102 136 230t48 268q0 209 -103 385.5t-279.5 279.5t-385.5 103t-385.5 -103t-279.5 -279.5t-103 -385.5t103 -385.5t279.5 -279.5t385.5 -103q140 0 268 48t230 136q-3 -72 64 -147l413 -486q53 -58 128.5 -62.5t127.5 48.5
q53 52 48.5 127.5t-62.5 128.5zM1149 752h-762q-11 10 -31 32h824q-20 -22 -31 -32zM606 624q-48 15 -81 32h486q-33 -17 -81 -32h-324zM468 688q-22 14 -44 32h688q-22 -18 -44 -32h-600zM329 816q-13 16 -23 32h924q-10 -16 -23 -32h-878zM287 880q-10 17 -17 32h996
q-7 -15 -17 -32h-962zM256 944q-2 6 -6 16t-6 16h1048q-2 -6 -6 -16t-6 -16h-1024zM234 1008q-4 13 -7 32h1082q-3 -19 -7 -32h-1068zM215 1152v16h1106v-16v-16h-1106v16zM387 1552h762q11 -10 31 -32h-824q20 22 31 32zM930 1680q48 -15 81 -32h-486q33 17 81 32h324z
M1068 1616q22 -14 44 -32h-688q22 18 44 32h600zM1207 1488q13 -16 23 -32h-924q10 16 23 32h878zM1249 1424q10 -17 17 -32h-996q7 15 17 32h962zM1280 1360q2 -5 6 -16t6 -16h-1048q2 6 6 16.5t6 15.5h1024zM1302 1296q4 -13 7 -32h-1082q3 19 7 32h1068zM1315 1232
q2 -12 4 -32h-1102q2 20 4 32h1094zM1319 1104q-2 -20 -4 -32h-1094q-2 12 -4 32h1102z" />
    <glyph glyph-name="uniE0B6" unicode="&#xe0b6;" 
d="M1985 177l-486 413q-75 67 -147 64q88 102 136 230t48 268q0 209 -103 385.5t-279.5 279.5t-385.5 103t-385.5 -103t-279.5 -279.5t-103 -385.5t103 -385.5t279.5 -279.5t385.5 -103q140 0 268 48t230 136q-3 -72 64 -147l413 -486q53 -58 128.5 -62.5t127.5 48.5
q53 52 48.5 127.5t-62.5 128.5zM768 640q-212 0 -362 150t-150 362t150 362t362 150t362 -150t150 -362t-150 -362t-362 -150zM896 1536h-256v-256h-256v-256h256v-256h256v256h256v256h-256v256z" />
    <glyph glyph-name="uniE0B7" unicode="&#xe0b7;" 
d="M1985 177l-486 413q-75 67 -147 64q88 102 136 230t48 268q0 209 -103 385.5t-279.5 279.5t-385.5 103t-385.5 -103t-279.5 -279.5t-103 -385.5t103 -385.5t279.5 -279.5t385.5 -103q140 0 268 48t230 136q-3 -72 64 -147l413 -486q53 -58 128.5 -62.5t127.5 48.5
q53 52 48.5 127.5t-62.5 128.5zM768 640q-212 0 -362 150t-150 362t150 362t362 150t362 -150t150 -362t-150 -362t-362 -150zM384 1280h768v-256h-768v256z" />
    <glyph glyph-name="uniE0B8" unicode="&#xe0b8;" 
d="M640 1920q130 0 248.5 -51t204 -136.5t136.5 -204t51 -248.5q0 -193 -106 -353l141 -141q54 29 98.5 33t70.5 -20l543 -544q37 -38 10.5 -117t-101.5 -154t-154 -101.5t-117 10.5l-543 543q-25 26 -21 70.5t33 98.5l-141 141q-160 -106 -353 -106q-130 0 -248.5 51
t-204 136.5t-136.5 204t-51 248.5t51 248.5t136.5 204t204 136.5t248.5 51zM278 918q150 -150 362 -150t362 150t150 362t-150 362t-362 150t-362 -150t-150 -362t150 -362zM1024 1280q0 -86 -35 -161q-22 201 -165.5 344.5t-344.5 165.5q75 35 161 35q159 0 271.5 -112.5
t112.5 -271.5z" />
    <glyph glyph-name="uniE0B9" unicode="&#xe0b9;" 
d="M2048 1920v-768l-277 277l-424 -424l-214 214l424 424l-277 277h768zM491 1643l424 -424l-214 -214l-424 424l-277 -277v768h768zM1771 363l277 277v-768h-768l277 277l-424 424l214 214zM915 573l-424 -424l277 -277h-768v768l277 -277l424 424z" />
    <glyph glyph-name="uniE0BA" unicode="&#xe0ba;" 
d="M128 768h768v-768l-277 277l-404 -404l-214 214l404 404zM1643 491l404 -404l-214 -214l-404 404l-277 -277v768h768zM1920 1024h-768v768l277 -277l404 404l214 -214l-404 -404zM619 1515l277 277v-768h-768l277 277l-404 404l214 214z" />
    <glyph glyph-name="uniE0BB" unicode="&#xe0bb;" 
d="M0 1920v-2048h2048v2048h-2048zM1920 0h-1792v1792h1792v-1792zM1344 1600l576 192l-192 -576zM672 1408h64v-128h-64v128zM800 1408h64v-128h-64v128zM928 1408h64v-128h-64v128zM1056 1408h64v-128h-64v128zM1184 1408h64v-128h-64v128zM1312 1408h64v-128h-64v128z
M672 512h64v-128h-64v128zM800 512h64v-128h-64v128zM928 512h64v-128h-64v128zM1056 512h64v-128h-64v128zM1184 512h64v-128h-64v128zM1312 512h64v-128h-64v128zM512 608h128v-64h-128v64zM512 736h128v-64h-128v64zM512 864h128v-64h-128v64zM512 992h128v-64h-128v64z
M512 1120h128v-64h-128v64zM512 1248h128v-64h-128v64zM1408 608h128v-64h-128v64zM1408 736h128v-64h-128v64zM1408 864h128v-64h-128v64zM1408 992h128v-64h-128v64zM1408 1120h128v-64h-128v64zM1408 1248h128v-64h-128v64zM320 1216l-192 576l576 -192zM704 192
l-576 -192l192 576zM1728 576l192 -576l-576 192z" />
    <glyph glyph-name="uniE0BC" unicode="&#xe0bc;" 
d="M1856 1344l-576 -192l192 576zM1056 1920h64v-128h-64v128zM1184 1920h64v-128h-64v128zM1312 1920h64v-128h-64v128zM1440 1920h64v-128h-64v128zM1568 1920h64v-128h-64v128zM1696 1920h64v-128h-64v128zM1828 1920h64v-128h-64v128zM288 1920h64v-128h-64v128z
M416 1920h64v-128h-64v128zM544 1920h64v-128h-64v128zM672 1920h64v-128h-64v128zM800 1920h64v-128h-64v128zM928 1920h64v-128h-64v128zM576 1728l192 -576l-576 192zM192 448l576 192l-192 -576zM1472 64l-192 576l576 -192zM160 1920h64v-128h-64v128zM1056 0h64v-128
h-64v128zM1184 0h64v-128h-64v128zM1312 0h64v-128h-64v128zM1440 0h64v-128h-64v128zM1568 0h64v-128h-64v128zM1696 0h64v-128h-64v128zM1828 0h64v-128h-64v128zM288 0h64v-128h-64v128zM416 0h64v-128h-64v128zM544 0h64v-128h-64v128zM672 0h64v-128h-64v128zM800 0h64
v-128h-64v128zM928 0h64v-128h-64v128zM160 0h64v-128h-64v128zM2 990h128v-64h-128v64zM2 1118h128v-64h-128v64zM2 1246h128v-64h-128v64zM2 1374h128v-64h-128v64zM2 1502h128v-64h-128v64zM2 1630h128v-64h-128v64zM2 1762h128v-64h-128v64zM2 222h128v-64h-128v64z
M2 350h128v-64h-128v64zM2 478h128v-64h-128v64zM2 606h128v-64h-128v64zM2 734h128v-64h-128v64zM2 862h128v-64h-128v64zM2 94h128v-64h-128v64zM1922 990h128v-64h-128v64zM1922 1118h128v-64h-128v64zM1922 1246h128v-64h-128v64zM1922 1374h128v-64h-128v64zM1922 1502
h128v-64h-128v64zM1922 1630h128v-64h-128v64zM1922 1762h128v-64h-128v64zM1922 222h128v-64h-128v64zM1922 350h128v-64h-128v64zM1922 478h128v-64h-128v64zM1922 606h128v-64h-128v64zM1922 734h128v-64h-128v64zM1922 862h128v-64h-128v64zM1922 94h128v-64h-128v64z
M1280 1152h-512v-512h512v512zM1408 1280v-768h-768v768h768z" />
    <glyph glyph-name="uniE0BD" unicode="&#xe0bd;" 
d="M0 1152l768 768h-768v-768zM1280 1920l768 -768v768h-768zM2048 -128v768l-768 -768h768zM0 -128h768l-768 768v-768z" />
    <glyph glyph-name="uniE0BE" unicode="&#xe0be;" 
d="M768 1152v768l-768 -768h768zM1280 1920v-768h768zM1280 -128l768 768h-768v-768zM768 -128v768h-768z" />
    <glyph glyph-name="uniE0BF" unicode="&#xe0bf;" 
d="M0 1792v-1920h1920v1920h-1920zM1792 0h-1664v1664h1664v-1664zM1632 1504h-1344v-1344h1344v1344zM1568 224h-1216v1216h1216v-1216zM896 768h-256v128h256v256h128v-256h256v-128h-256v-256h-128v256z" />
    <glyph glyph-name="uniE0C0" unicode="&#xe0c0;" 
d="M1536 1408h-1152v-1152h1152v1152zM1408 384h-896v896h896v-896zM160 1632v-1600h1600v1600h-1600zM1696 96h-1472v1472h1472v-1472zM640 896h640v-128h-640v128z" />
    <glyph glyph-name="uniE0C1" unicode="&#xe0c1;" 
d="M0 1664v-1536h2048v1536h-2048zM1920 896v-640h-896h-896v640v640h896h896v-640zM896 1280v-256h256v256h192l-320 256l-320 -256h192zM1152 512v256h-256v-256h-192l320 -256l320 256h-192zM384 768h256v256h-256v192l-256 -320l256 -320v192zM1664 1024h-256v-256h256
v-192l256 320l-256 320v-192z" />
    <glyph glyph-name="uniE0C2" unicode="&#xe0c2;" 
d="M2048 1920v-832l-320 320l-384 -384l-192 192l384 384l-320 320h832zM896 576l-384 -384l320 -320h-832v832l320 -320l384 384z" />
    <glyph glyph-name="uniE0C3" unicode="&#xe0c3;" 
d="M896 768v-832l-320 320l-384 -384l-192 192l384 384l-320 320h832zM2048 1728l-384 -384l320 -320h-832v832l320 -320l384 384z" />
    <glyph glyph-name="uniE0C4" unicode="&#xe0c4;" 
d="M1408 1920q-130 0 -248.5 -51t-204 -136.5t-136.5 -204t-51 -248.5q0 -57 11 -117l-779 -779v-384q0 -53 37.5 -90.5t90.5 -37.5h128v128h256v256h256v256h256l166 166q103 -38 218 -38q130 0 248.5 51t204 136.5t136.5 204t51 248.5t-51 248.5t-136.5 204t-204 136.5
t-248.5 51zM1600 1280q-80 0 -136 56t-56 136t56 136t136 56t136 -56t56 -136t-56 -136t-136 -56z" />
    <glyph glyph-name="uniE0C5" unicode="&#xe0c5;" 
d="M2004 1292l-202 202l-180 180l-202 202q-37 37 -95.5 43t-101.5 -23l-553 -369q-44 -29 -58 -83.5t9 -101.5l141 -282q2 -5 7.5 -13.5t7.5 -13.5l-713 -713l-64 -448h384v128h256v256h256v256h256v142q5 -3 36 -20l282 -141q47 -23 101.5 -9t83.5 58l369 553
q29 43 23 101.5t-43 95.5zM301 211l-90 90l623 623l90 -90zM1834 1072l-90 -90q-19 -19 -45.5 -19t-45.5 19l-543 543q-19 19 -19 45.5t19 45.5l90 90q19 19 45.5 19t45.5 -19l543 -543q19 -19 19 -45.5t-19 -45.5z" />
    <glyph glyph-name="uniE0C6" unicode="&#xe0c6;" 
d="M1344 1920q-117 0 -223.5 -45.5t-184 -123t-123 -184t-45.5 -223.5q0 -187 110 -338l-859 -859q-19 -19 -19 -45.5t19 -45.5l37 -37q19 -19 45.5 -19t45.5 19l237 237l128 -128l-109 -109q-19 -19 -19 -45.5t19 -45.5l37 -37q19 -19 45.5 -19t45.5 19l346 346
q19 19 19 45.5t-19 45.5l-37 37q-19 19 -45.5 19t-45.5 -19l-109 -109l-128 128l494 494q151 -110 338 -110q117 0 223.5 45.5t184 123t123 184t45.5 223.5t-45.5 223.5t-123 184t-184 123t-223.5 45.5zM1344 918q-176 0 -301 125t-125 301t125 301t301 125t301 -125
t125 -301t-125 -301t-301 -125z" />
    <glyph glyph-name="uniE0C7" unicode="&#xe0c7;" 
d="M1344 1888q-148 0 -273 -73t-198 -198t-73 -273q0 -169 98 -310l-838 -838q-28 -28 -28 -68t28 -68t68 -28t68 28l44 44l204 -204q28 -28 68 -28t68 28t28 68t-28 68l-204 204l108 108l204 -204q28 -28 68 -28t68 28t28 68t-28 68l-204 204l414 414q141 -98 310 -98
q148 0 273 73t198 198t73 273t-73 273t-198 198t-273 73zM1344 992q-146 0 -249 103t-103 249t103 249t249 103t249 -103t103 -249t-103 -249t-249 -103z" />
    <glyph glyph-name="uniE0C8" unicode="&#xe0c8;" 
d="M1920 1152h-965q-68 117 -185.5 186.5t-257.5 69.5q-212 0 -362 -150t-150 -362t150 -362t362 -150q140 0 257.5 69.5t185.5 186.5h69l128 128h128v-128h128l128 128h128v-128h128l256 256zM384 715q-75 0 -128 53t-53 128t53 128t128 53t128 -53t53 -128t-53 -128
t-128 -53zM1024 960v64h768l32 -64h-800z" />
    <glyph glyph-name="uniE0C9" unicode="&#xe0c9;" 
d="M1536 1408q0 212 -150 362t-362 150t-362 -150t-150 -362q0 -145 74 -265.5t197 -186.5l-271 -1084h1024l-271 1084q123 66 197 186.5t74 265.5z" />
    <glyph glyph-name="uniE0CA" unicode="&#xe0ca;" 
d="M1792 1152h-128v640q0 52 -38 90t-90 38h-1024q-52 0 -90 -38t-38 -90v-640h-128q-52 0 -90 -38t-38 -90v-1024q0 -52 38 -90t90 -38h1536q52 0 90 38t38 90v1024q0 52 -38 90t-90 38zM1152 256h-256l56 278q-56 38 -56 106q0 53 37.5 90.5t90.5 37.5t90.5 -37.5
t37.5 -90.5q0 -68 -56 -106zM1408 1152h-768v512h768v-512z" />
    <glyph glyph-name="uniE0CB" unicode="&#xe0cb;" 
d="M1664 1024h-128v384q0 212 -150 362t-362 150t-362 -150t-150 -362v-384h-128q-52 0 -90 -38t-38 -90v-896q0 -52 38 -90t90 -38h1280q52 0 90 38t38 90v896q0 52 -38 90t-90 38zM1024 256q-53 0 -90.5 37.5t-37.5 90.5t37.5 90.5t90.5 37.5t90.5 -37.5t37.5 -90.5
t-37.5 -90.5t-90.5 -37.5zM1280 1024h-512v384q0 106 75 181t181 75t181 -75t75 -181v-384z" />
    <glyph glyph-name="uniE0CC" unicode="&#xe0cc;" 
d="M1664 1024h-128v384q0 212 -150 362t-362 150t-362 -150t-150 -362v-384h-128q-52 0 -90 -38t-38 -90v-896q0 -52 38 -90t90 -38h1280q52 0 90 38t38 90v896q0 52 -38 90t-90 38zM768 1408q0 106 75 181t181 75t181 -75t75 -181v-384h-512v384zM1664 640l-640 -64
l640 -64l-640 -64l640 -64l-640 -64l640 -64l-640 -64l640 -64l-640 -64l640 -64h-1280l640 64l-640 64l640 64l-640 64l640 64l-640 64l640 64l-640 64l640 64l-640 64l640 64l-640 64l640 64l-640 64h1280l-640 -64l640 -64l-640 -64z" />
    <glyph glyph-name="uniE0CD" unicode="&#xe0cd;" 
d="M1184 1024h-32v384q0 159 -112.5 271.5t-271.5 112.5h-256q-159 0 -271.5 -112.5t-112.5 -271.5v-384h-32q-40 0 -68 -28t-28 -68v-960q0 -40 28 -68t68 -28h1088q40 0 68 28t28 68v960q0 40 -28 68t-68 28zM384 1408q0 53 37.5 90.5t90.5 37.5h256q53 0 90.5 -37.5
t37.5 -90.5v-384h-512v384z" />
    <glyph glyph-name="uniE0CE" unicode="&#xe0ce;" 
d="M1536 1792q159 0 271.5 -112.5t112.5 -271.5v-384h-256v384q0 53 -37.5 90.5t-90.5 37.5h-256q-53 0 -90.5 -37.5t-37.5 -90.5v-384h32q40 0 68 -28t28 -68v-960q0 -40 -28 -68t-68 -28h-1088q-40 0 -68 28t-28 68v960q0 40 28 68t68 28h800v384q0 159 112.5 271.5
t271.5 112.5h256z" />
    <glyph glyph-name="uniE0CF" unicode="&#xe0cf;" 
d="M1184 1024h-32v384q0 159 -112.5 271.5t-271.5 112.5h-256q-159 0 -271.5 -112.5t-112.5 -271.5v-384h-32q-40 0 -68 -28t-28 -68v-960q0 -40 28 -68t68 -28h1088q40 0 68 28t28 68v960q0 40 -28 68t-68 28zM768 128h-256l56 278q-56 38 -56 106q0 53 37.5 90.5
t90.5 37.5t90.5 -37.5t37.5 -90.5q0 -68 -56 -106zM896 1024h-512v384q0 53 37.5 90.5t90.5 37.5h256q53 0 90.5 -37.5t37.5 -90.5v-384z" />
    <glyph glyph-name="uniE0D0" unicode="&#xe0d0;" 
d="M1536 1792h-256q-159 0 -271.5 -112.5t-112.5 -271.5v-384h-800q-40 0 -68 -28t-28 -68v-960q0 -40 28 -68t68 -28h1088q40 0 68 28t28 68v960q0 40 -28 68t-68 28h-32v384q0 53 37.5 90.5t90.5 37.5h256q53 0 90.5 -37.5t37.5 -90.5v-384h256v384q0 159 -112.5 271.5
t-271.5 112.5zM768 128h-256l56 278q-56 38 -56 106q0 53 37.5 90.5t90.5 37.5t90.5 -37.5t37.5 -90.5q0 -68 -56 -106z" />
    <glyph glyph-name="uniE0D1" unicode="&#xe0d1;" 
d="M2006 284l-921 790q67 126 67 270q0 117 -45.5 223.5t-123 184t-184 123t-223.5 45.5q-84 0 -167 -25l332 -332q37 -37 37 -91t-37 -91l-202 -202q-37 -37 -91 -37t-91 37l-332 332q-25 -83 -25 -167q0 -117 45.5 -223.5t123 -184t184 -123t223.5 -45.5q144 0 270 67
l790 -921q35 -40 85.5 -42t88.5 35l203 203q37 38 35 88.5t-42 85.5z" />
    <glyph glyph-name="uniE0D2" unicode="&#xe0d2;" 
d="M1682 -128q-79 0 -133 62l-708 826q-111 -48 -237 -48q-164 0 -303 81t-220 220t-81 303q0 88 26 175l31 103l387 -388q16 -16 40 -16t40 16l190 190q16 16 16 40t-16 40l-388 387l103 31q87 26 175 26q164 0 303 -81t220 -220t81 -303q0 -126 -48 -237l826 -708
q59 -51 62 -126q3 -76 -52 -131l-190 -190q-52 -52 -124 -52zM873 920l773 -903q14 -17 36 -17q19 0 33 14l191 191q14 14 14 35q0 20 -17 34l-903 773l24 46q56 106 56 223q0 196 -140 336t-336 140q-4 0 -12.5 -0.5t-12.5 -0.5l225 -225q54 -54 54 -130t-54 -130
l-190 -190q-54 -54 -130 -54t-130 54l-225 225q0 -4 -0.5 -12.5t-0.5 -12.5q0 -196 140 -336t336 -140q117 0 223 56z" />
    <glyph glyph-name="uniE0D3" unicode="&#xe0d3;" 
d="M1924 457l-746 608q-38 30 -72 54q46 109 46 225q0 117 -45.5 223.5t-123 184t-184 123t-223.5 45.5q-84 0 -167 -25l359 -359v-384h-384l-359 359q-25 -83 -25 -167q0 -117 45.5 -223.5t123 -184t184 -123t223.5 -45.5q116 0 225 46q24 -34 54 -72l608 -746
q95 -116 238 -124t249 98t98 249t-124 238zM1728 0l-192 192l192 192l192 -192z" />
    <glyph glyph-name="uniE0D4" unicode="&#xe0d4;" 
d="M2032 1648l-240 -240l-256 256l240 240q-51 16 -112 16q-159 0 -271.5 -112.5t-112.5 -271.5q0 -61 16 -112l-800 -800q-51 16 -112 16q-159 0 -271.5 -112.5t-112.5 -271.5q0 -61 16 -112l240 240l256 -256l-240 -240q51 -16 112 -16q159 0 271.5 112.5t112.5 271.5
q0 61 -16 112l800 800q51 -16 112 -16q159 0 271.5 112.5t112.5 271.5q0 61 -16 112z" />
    <glyph glyph-name="uniE0D5" unicode="&#xe0d5;" 
d="M896 1664v32q0 40 -28 68t-68 28h-320q-40 0 -68 -28t-28 -68v-32h-384v-256h384v-32q0 -40 28 -68t68 -28h320q40 0 68 28t28 68v32h1152v256h-1152zM512 1408v256h256v-256h-256zM1664 1056q0 40 -28 68t-68 28h-320q-40 0 -68 -28t-28 -68v-32h-1152v-256h1152v-32
q0 -40 28 -68t68 -28h320q40 0 68 28t28 68v32h384v256h-384v32zM1280 768v256h256v-256h-256zM896 416q0 40 -28 68t-68 28h-320q-40 0 -68 -28t-28 -68v-32h-384v-256h384v-32q0 -40 28 -68t68 -28h320q40 0 68 28t28 68v32h1152v256h-1152v32zM512 128v256h256v-256h-256
z" />
    <glyph glyph-name="uniE0D6" unicode="&#xe0d6;" 
d="M1792 1024h32q40 0 68 28t28 68v320q0 40 -28 68t-68 28h-32v384h-256v-384h-32q-40 0 -68 -28t-28 -68v-320q0 -40 28 -68t68 -28h32v-1152h256v1152zM1536 1408h256v-256h-256v256zM1184 256q40 0 68 28t28 68v320q0 40 -28 68t-68 28h-32v1152h-256v-1152h-32
q-40 0 -68 -28t-28 -68v-320q0 -40 28 -68t68 -28h32v-384h256v384h32zM896 640h256v-256h-256v256zM544 1024q40 0 68 28t28 68v320q0 40 -28 68t-68 28h-32v384h-256v-384h-32q-40 0 -68 -28t-28 -68v-320q0 -40 28 -68t68 -28h32v-1152h256v1152h32zM256 1408h256v-256
h-256v256z" />
    <glyph glyph-name="uniE0D7" unicode="&#xe0d7;" 
d="M576 1280h-256q-26 0 -45 -19t-19 -45v-128q0 -26 19 -45t45 -19h256q26 0 45 19t19 45v128q0 26 -19 45t-45 19zM384 1664h128v-320h-128v320zM384 960h128v-832h-128v832zM1088 768h-256q-26 0 -45 -19t-19 -45v-128q0 -26 19 -45t45 -19h256q26 0 45 19t19 45v128
q0 26 -19 45t-45 19zM896 1664h128v-832h-128v832zM896 448h128v-320h-128v320zM1600 1152h-256q-26 0 -45 -19t-19 -45v-128q0 -26 19 -45t45 -19h256q26 0 45 19t19 45v128q0 26 -19 45t-45 19zM1408 1664h128v-448h-128v448zM1408 832h128v-704h-128v704zM1760 1920
h-1600q-66 0 -113 -47t-47 -113v-1728q0 -66 47 -113t113 -47h1600q66 0 113 47t47 113v1728q0 66 -47 113t-113 47zM1792 32q0 -14 -9 -23t-23 -9h-1600q-14 0 -23 9t-9 23v1728q0 14 9 23t23 9h1600q14 0 23 -9t9 -23v-1728z" />
    <glyph glyph-name="uniE0D8" unicode="&#xe0d8;" 
d="M1920 1792h-1792q-52 0 -90 -38t-38 -90v-1536q0 -52 38 -90t90 -38h1792q52 0 90 38t38 90v1536q0 52 -38 90t-90 38zM1920 128h-1792v1536h1792v-1536zM864 512h-96v1024h-256v-1024h-96q-14 0 -23 -9t-9 -23v-192q0 -14 9 -23t23 -9h448q14 0 23 9t9 23v192
q0 14 -9 23t-23 9zM1184 1280h96v-1024h256v1024h96q14 0 23 9t9 23v192q0 14 -9 23t-23 9h-448q-14 0 -23 -9t-9 -23v-192q0 -14 9 -23t23 -9z" />
    <glyph glyph-name="uniE0D9" unicode="&#xe0d9;" 
d="M1868 700q-80 139 -38 295t182 237l-201 349q-90 -53 -196 -53q-161 0 -275 115t-114 277h-403q2 -104 -52 -196q-53 -91 -144.5 -143t-191.5 -51.5t-198 52.5l-201 -349q91 -52 144 -143q51 -97 51.5 -196.5t-51.5 -190.5t-144 -145l202 -349q92 53 195 53
q161 0 274.5 -114t114.5 -276h402q0 103 52 194q80 139 236.5 180.5t296.5 -38.5l201 349q-89 51 -142 143zM1024 481q-172 0 -293.5 121.5t-121.5 293.5t121.5 293.5t293.5 121.5t293.5 -121.5t121.5 -293.5t-121.5 -293.5t-293.5 -121.5z" />
    <glyph glyph-name="uniE0DA" unicode="&#xe0da;" 
d="M727 476l83 116l-90 90l-116 -83q-32 18 -69 29l-23 140h-128l-23 -140q-37 -11 -69 -29l-116 83l-90 -90l83 -116q-18 -32 -29 -69l-140 -23v-128l140 -23q11 -37 29 -69l-83 -116l90 -90l116 83q32 -18 69 -29l23 -140h128l23 140q37 11 69 29l116 -83l90 90l-83 116
q18 32 29 69l140 23v128l-140 23q-11 37 -29 69zM448 192q-53 0 -90.5 37.5t-37.5 90.5t37.5 90.5t90.5 37.5t90.5 -37.5t37.5 -90.5t-37.5 -90.5t-90.5 -37.5zM2048 1152v128l-135 24q-3 24 -9 48l115 74l-49 119l-134 -29q-11 19 -27 40l78 113l-90 90l-113 -78
q-21 16 -40 27l29 134l-119 49l-74 -115q-25 6 -47 9l-25 135h-128l-25 -135q-22 -3 -47 -9l-74 115l-119 -49l29 -134q-19 -11 -40 -27l-113 78l-90 -90l78 -113q-16 -21 -27 -40l-134 29l-49 -119l115 -74q-6 -25 -9 -47l-135 -25v-128l135 -24q3 -24 9 -48l-115 -74
l49 -119l134 29q11 -19 27 -40l-78 -113l90 -90l113 78q21 -16 40 -27l-29 -134l119 -49l74 115q25 -6 47 -9l25 -135h128l25 135q22 3 47 9l74 -115l119 49l-29 134q19 11 40 27l113 -78l90 90l-78 113q16 21 27 40l134 -29l49 119l-115 74q6 24 9 48zM1344 938
q-116 0 -197 81t-81 197t81 197t197 81t197 -81t81 -197t-81 -197t-197 -81z" />
    <glyph glyph-name="uniE0DB" unicode="&#xe0db;" 
d="M2048 704v384l-294 49q-19 57 -43 105l173 242l-272 272l-241 -173q-52 26 -106 44l-49 293h-384l-49 -293q-54 -18 -106 -44l-241 173l-272 -272l173 -242q-24 -48 -43 -105l-294 -49v-384l294 -49q18 -53 44 -104l-174 -243l272 -272l243 174q46 -24 104 -43l49 -295
h384l49 295q58 19 104 43l243 -174l272 272l-174 243q26 51 44 104zM1024 640q-106 0 -181 75t-75 181t75 181t181 75t181 -75t75 -181t-75 -181t-181 -75z" />
    <glyph glyph-name="uniE0DC" unicode="&#xe0dc;" 
d="M1266 -128h-484l-49 293q-4 2 -10.5 4t-9.5 4l-242 -172l-342 342l172 241l-9 21l-292 49v484l291 49l9 21l-171 241l342 342l240 -171q4 1 11 4t11 5l49 291h484l49 -291q3 -1 11 -4t11 -5l240 171l342 -342l-171 -241l9 -21l291 -49v-484l-292 -49l-9 -21l172 -241
l-342 -342l-242 172q-3 -2 -9.5 -4t-10.5 -4zM910 24h228l42 255l44 14q42 14 85 36l41 20l210 -150l161 161l-150 210l21 41q17 34 35 86l15 43l254 42v228l-254 42l-14 43q-15 45 -36 87l-20 41l149 209l-161 161l-208 -149l-42 21q-42 21 -87 36l-43 14l-42 253h-228
l-42 -253l-43 -14q-45 -15 -87 -36l-42 -21l-208 149l-161 -161l149 -209l-20 -41q-21 -42 -36 -87l-14 -43l-254 -42v-228l254 -42l15 -43q18 -52 35 -86l21 -41l-150 -210l161 -161l210 150l41 -20q43 -22 85 -36l44 -14zM1088 1152h-128q-80 0 -136 -56t-56 -136v-128
q0 -80 56 -136t136 -56h128q80 0 136 56t56 136v128q0 80 -56 136t-136 56zM1152 832q0 -26 -19 -45t-45 -19h-128q-26 0 -45 19t-19 45v128q0 26 19 45t45 19h128q26 0 45 -19t19 -45v-128z" />
    <glyph glyph-name="uniE0DD" unicode="&#xe0dd;" 
d="M2048 1088l-451 45l287 351l-272 272l-351 -287l-45 451h-384l-45 -451l-351 287l-272 -272l287 -351l-451 -45v-384l451 -45l-287 -351l272 -272l351 287l45 -451h384l45 451l351 -287l272 272l-287 351l451 45v384zM1408 1055v-318l-225 -225h-318l-225 225v318
l225 225h318z" />
    <glyph glyph-name="uniE0DE" unicode="&#xe0de;" 
d="M2048 1088l-451 45l287 351l-272 272l-351 -287l-45 451h-384l-45 -451l-351 287l-272 -272l287 -351l-451 -45v-384l451 -45l-287 -351l272 -272l351 287l45 -451h384l45 451l351 -287l272 272l-287 351l451 45v384zM1408 1055v-318l-225 -225h-318l-225 225v318
l225 225h318zM896 1024h256v-256h-256v256z" />
    <glyph glyph-name="uniE0DF" unicode="&#xe0df;" 
d="M2048 1024l-482 96l273 410l-181 181l-410 -273l-96 482h-256l-96 -482l-410 273l-181 -181l273 -410l-482 -96v-256l482 -96l-273 -410l181 -181l410 273l96 -482h256l96 482l410 -273l181 181l-273 410l482 96v256zM1408 1055v-318l-225 -225h-318l-225 225v318
l225 225h318z" />
    <glyph glyph-name="uniE0E0" unicode="&#xe0e0;" 
d="M2048 1024l-482 96l273 410l-181 181l-410 -273l-96 482h-256l-96 -482l-410 273l-181 -181l273 -410l-482 -96v-256l482 -96l-273 -410l181 -181l410 273l96 -482h256l96 482l410 -273l181 181l-273 410l482 96v256zM1408 1055v-318l-225 -225h-318l-225 225v318
l225 225h318zM896 1024h256v-256h-256v256z" />
    <glyph glyph-name="uniE0E1" unicode="&#xe0e1;" 
d="M1920 128v1152l-512 -384v384l-512 -384v512l-512 -384v768h-256v-1664h-128v-128h2048v128h-128z" />
    <glyph glyph-name="uniE0E2" unicode="&#xe0e2;" 
d="M2020 262l-603 603q-28 28 -68 28t-68 -28l-45 -45l-368 368l604 604h-640l-284 -284l-28 28h-136v-136l28 -28l-412 -412l320 -320l412 412l368 -368l-45 -45q-28 -28 -28 -68t28 -68l603 -603q28 -28 68 -28t68 28l226 226q28 28 28 68t-28 68z" />
    <glyph glyph-name="uniE0E3" unicode="&#xe0e3;" horiz-adv-x="2560" 
d="M985 511l294 -294l-233 -300q-32 -42 -81.5 -45t-87.5 34l-203 203q-37 38 -34 87.5t45 81.5zM2547 1395l-307 -307l-384 384l307 307q-60 13 -115 13q-212 0 -362 -150t-150 -362q0 -150 81 -277l-286 -222l-435 435l576 576h-640l-284 -284l-28 28h-136v-136l28 -28
l-412 -412l320 -320l384 384l676 -676l476 -476l192 192l-499 499l222 286q127 -81 277 -81q212 0 362 150t150 362q0 55 -13 115z" />
    <glyph glyph-name="uniE0E4" unicode="&#xe0e4;" 
d="M2029 339l-794 794q-34 32 -107 10t-155 -89l-589 589l-64 149l-205 128l-115 -115l128 -205l149 -64l589 -589q-67 -82 -89 -155t10 -107l794 -794q39 -39 132 -1t186 131t131 186t-1 132zM1782 138q-22 -22 -54 -22t-54 22l-640 640q-22 22 -22 54t22 54t54 22t54 -22
l640 -640q22 -22 22 -54t-22 -54z" />
    <glyph glyph-name="uniE0E5" unicode="&#xe0e5;" 
d="M2029 339l-436 436q-64 -15 -127 2.5t-111 65.5t-65.5 111t-2.5 127l-52 52q-34 32 -107 10t-155 -89l-589 589l-64 149l-205 128l-115 -115l128 -205l149 -64l589 -589q-67 -82 -89 -155t10 -107l52 -52q64 15 127 -2.5t111 -65.5t65.5 -111t2.5 -127l436 -436
q39 -39 132 -1t186 131t131 186t-1 132zM1782 138q-22 -22 -54 -22t-54 22l-640 640q-22 22 -22 54t22 54t54 22t54 -22l640 -640q22 -22 22 -54t-22 -54z" />
    <glyph glyph-name="uniE0E6" unicode="&#xe0e6;" 
d="M512 1536l-256 256h-128v-128l256 -256zM640 1920h128v-256h-128v256zM1152 1280h256v-128h-256v128zM1280 1664v128h-128l-256 -256l128 -128zM0 1280h256v-128h-256v128zM640 768h128v-256h-128v256zM128 768v-128h128l256 256l-128 128zM2020 156l-1272 1272
q-28 28 -68 28t-68 -28l-120 -120q-28 -28 -28 -68t28 -68l1272 -1272q28 -28 68 -28t68 28l120 120q28 28 28 68t-28 68zM960 832l-384 384l128 128l384 -384z" />
    <glyph glyph-name="uniE0E7" unicode="&#xe0e7;" 
d="M1033 1016l377 118l-386 273v513l-414 -298l-482 170l170 -482l-298 -414h512l274 -386l118 377l888 -1015l256 256zM809 1111l-78 -252l-152 212h-264l158 211l-85 250l250 -85l211 158v-264l212 -152z" />
    <glyph glyph-name="uniE0E8" unicode="&#xe0e8;" 
d="M1664 640l-128 -128l-256 640l-256 -768l-384 1408l-256 -1280h-384v-128h489l170 851l242 -885l111 -408l279 838l126 -316l72 -180l228 228h331v128h-384z" />
    <glyph glyph-name="uniE0E9" unicode="&#xe0e9;" 
d="M1792 1408h-384v256q0 52 -38 90t-90 38h-512q-52 0 -90 -38t-38 -90v-256h-384q-106 0 -181 -75t-75 -181v-1024q0 -106 75 -181t181 -75h1536q106 0 181 75t75 181v1024q0 106 -75 181t-181 75zM768 1664h512v-256h-512v256zM1536 512h-384v-384h-256v384h-384v256h384
v384h256v-384h384v-256z" />
    <glyph glyph-name="uniE0EA" unicode="&#xe0ea;" 
d="M256 256h128v-128h-128v128zM1536 1536h128v-128h-128v128zM1408 1664h128v-128h-128v128zM256 512h128v-128h-128v128zM512 256h128v-128h-128v128zM1664 1408h128v-128h-128v128zM1664 1664h128v-128h-128v128zM1915 1787q-133 133 -320 133q-83 0 -158 -29
q-93 -35 -161 -103l-1 -1l-1142 -1142l-1 -1q-68 -68 -103 -161q-29 -75 -29 -158q0 -187 133 -320t320 -133q83 0 158 29q93 35 161 103l1 1l1142 1142l1 1q68 68 103 161q29 75 29 158q0 187 -133 320zM768 128h-128v-128h-128v128h-128v-128h-128v128h-128v128h128v128
h-128v128h128v128h128v-128h128v-128h128v-128h128v-128zM896 384l-384 384l128 128l384 -384zM1408 896l-384 384l128 128l384 -384zM1920 1536h-128v-128h128v-128h-128v-128h-128v128h-128v128h-128v128h-128v128h128v128h128v-128h128v128h128v-128h128v-128zM384 384
h128v-128h-128v128z" />
    <glyph glyph-name="uniE0EB" unicode="&#xe0eb;" 
d="M1920 1280l128 256v256l-192 -384h-228q-23 26 -78 57l-284 142q-47 23 -118.5 40t-123.5 17t-123.5 -17t-118.5 -40l-284 -142q-55 -31 -78 -57h-228l-192 384v-256l128 -256h256v-256l-384 -128v-128l384 128v-384h-128l-256 -640h128l205 512h67q30 -84 84 -127
l440 -352q42 -33 100 -33q60 0 100 33l440 352q54 43 84 127h67l205 -512h128l-256 640h-128v384l384 -128v128l-384 128v256h256zM1088 128h-128v1280h128v-1280zM1280 1671v121q0 52 -38 90t-90 38h-256q-52 0 -90 -38t-38 -90v-121q56 24 128 40.5t128 16.5t128 -16.5
t128 -40.5z" />
    <glyph glyph-name="uniE0EC" unicode="&#xe0ec;" 
d="M2048 768v128h-387q-18 218 -143 384h324l140 561l-124 31l-116 -463h-349q-1 1 -3 2t-3 2q21 63 21 124q0 159 -112.5 271t-271.5 112t-271.5 -112t-112.5 -271q0 -61 21 -124l-3 -3t-3 -2h-349l-116 464l-124 -31l140 -561h324q-125 -166 -143 -384h-387v-128h387
q12 -137 67 -256h-248l-140 -560l124 -31l116 463h225q89 -119 217.5 -187t275.5 -68t275.5 68t217.5 187h225l116 -463l124 31l-140 560h-248q55 119 67 256h387z" />
    <glyph glyph-name="uniE0ED" unicode="&#xe0ed;" 
d="M1984 1152l64 256l-512 512l-256 -64l126 -126l-209 -209l-286 286l-158 -158l193 -193q-8 -6 -13 -11l-714 -714q-37 -37 -37 -91t37 -91l37 -37v-128l83 -83l-339 -338l91 -91l338 339l83 -83h128l37 -37q38 -38 91 -38t91 38l714 714q5 5 11 13l193 -193l158 158
l-286 286l209 209zM493 847l4 4l510 -454l-60 -60zM943 333l-60 -60l-454 510l4 4zM557 911l4 4l510 -454l-60 -60zM621 975l4 4l510 -454l-60 -60zM685 1039l4 4l510 -454l-60 -60zM749 1103l4 4l510 -454l-60 -60zM813 1167l4 4l510 -454l-60 -60zM877 1231l4 4l510 -454
l-60 -60zM941 1295l4 4l510 -454l-60 -60zM768 165q-6 0 -11 5l-459 459q-5 5 -5 11t5 11l7 8l510 -454l-36 -35q-5 -5 -11 -5zM819 209l-454 510l4 4l510 -454zM1494 885l-35 -36l-454 510l8 7q5 5 11 5t11 -5l459 -459q11 -11 0 -22zM1581 1137l-316 316l209 209l316 -316
z" />
    <glyph glyph-name="uniE0EE" unicode="&#xe0ee;" 
d="M1984 1152l64 256l-512 512l-256 -64l126 -126l-209 -209l-286 286l-158 -158l193 -193q-8 -6 -13 -11l-714 -714q-37 -37 -37 -91t37 -91l37 -37v-128l83 -83l-339 -338l91 -91l338 339l83 -83h128l37 -37q38 -38 91 -38t91 38l714 714q5 5 11 13l193 -193l158 158
l-286 286l209 209zM1494 885l-715 -715q-5 -5 -11 -5t-11 5l-459 459q-5 5 -5 11t5 11l715 715q5 5 11 5t11 -5l459 -459q11 -11 0 -22zM1581 1137l-316 316l209 209l316 -316zM798 414l-256 256l68 68l256 -256zM1182 798l-256 256l68 68l256 -256zM990 606l-256 256l68 68
l256 -256z" />
    <glyph glyph-name="uniE0EF" unicode="&#xe0ef;" 
d="M2048 1088v512q0 26 -19 45t-45 19h-1920q-26 0 -45 -19t-19 -45v-512q0 -26 19 -45t45 -19h241l-305 -896h384l131 384h1018l131 -384h384l-305 896h241q26 0 45 19t19 45zM1664 1536l-384 -384h-384l384 384h384zM512 1536h384l-384 -384h-384zM1490 640h-932l131 384
h670zM1920 1152h-256l256 256v-256z" />
    <glyph glyph-name="uniE0F0" unicode="&#xe0f0;" 
d="M1792 128l-537 1670q-17 50 -56 86t-79 36h-192q-40 0 -79 -36t-56 -86l-537 -1670h-256v-256h2048v256h-256zM843 1536h362l82 -256h-526zM678 1024h692l82 -256h-856zM432 256l82 256h1020l82 -256h-1184z" />
    <glyph glyph-name="uniE0F1" unicode="&#xe0f1;" 
d="M896 768v896q-182 0 -348 -71t-286 -191t-191 -286t-71 -348t71 -348t191 -286t286 -191t348 -71t348 71t286 191t191 286t71 348q0 211 -94 401zM1826 1425q-112 224 -327.5 359.5t-474.5 135.5v-896z" />
    <glyph glyph-name="uniE0F2" unicode="&#xe0f2;" 
d="M896 1664q-182 0 -348 -71t-286 -191t-191 -286t-71 -348t71 -348t191 -286t286 -191t348 -71t348 71t286 191t191 286t71 348h-896v896zM1152 1920v-896h896q0 182 -71 348t-191 286t-286 191t-348 71z" />
    <glyph glyph-name="uniE0F3" unicode="&#xe0f3;" 
d="M1024 1920q-209 0 -398.5 -81t-326.5 -218t-218 -326.5t-81 -398.5t81 -398.5t218 -326.5t326.5 -218t398.5 -81t398.5 81t326.5 218t218 326.5t81 398.5t-81 398.5t-218 326.5t-326.5 218t-398.5 81zM590 112q-25 14 -53 32h974q-28 -18 -53 -32h-868zM1395 80
q-43 -20 -81 -32h-580q-38 13 -80 32h741zM491 176q-20 15 -41 32h1148q-21 -17 -41 -32h-1066zM381 272h1176l32 -32h-1175q-11 10 -33 32zM1173 656l32 -32h-1035q-2 6 -5 16.5t-4 15.5h1012zM152 688q-4 13 -7 32h964l32 -32h-989zM1237 592l32 -32h-1076q-2 6 -6 16.5
t-6 15.5h1056zM1301 528l32 -32h-1111q-2 6 -7 16l-8 16h1094zM1365 464l32 -32h-1140q-3 6 -9 16.5t-9 15.5h1126zM1429 400l32 -32h-1161q-8 10 -22 32h1151zM1493 336l32 -32h-1174q-5 6 -14.5 18t-11.5 14h1168zM1061 768l16 -16h-937q0 2 -1 8t-2 8h924zM1024 1792
v-896h-896q0 182 71 348t191 286t286 191t348 71zM855 16h338q-88 -16 -169 -16t-169 16z" />
    <glyph glyph-name="uniE0F4" unicode="&#xe0f4;" 
d="M1024 1920q209 0 398.5 -81t326.5 -218t218 -326.5t81 -398.5h-1024v1024zM896 1912q-187 -23 -352.5 -112.5t-285 -223t-189 -311t-69.5 -369.5q0 -209 81 -398.5t218 -326.5t326.5 -218t398.5 -81q192 0 369.5 69.5t311 189t223 285t112.5 352.5h-1144v1144zM734 1744
h34v-32h-114q42 19 80 32zM590 1680h178v-32h-231q28 18 53 32zM491 1616h277v-32h-318q21 17 41 32zM414 1552h354v-32h-387q22 22 33 32zM351 1488h417v-32h-443q2 2 11.5 14t14.5 18zM300 1424h468v-32h-490q9 14 22 32zM257 1360h511v-32h-529q3 6 9 16.5t9 15.5z
M222 1296h546v-32h-561l8 16t7 16zM193 1232h575v-32h-587q2 5 6 15.5t6 16.5zM170 1168h598v-32h-607q1 5 4 16t5 16zM152 1104h616v-32h-623q3 19 7 32zM140 1040h628v-32h-633q1 9 5 32zM132 976h636v-32h-639q1 5 2 15.5t1 16.5zM128 896v16h640v-32h-640v16zM129 848
h639v-32h-636q0 6 -1 16.5t-2 15.5zM135 784h633v-32h-628q-4 23 -5 32zM145 720h623v-32h-616q-4 13 -7 32zM1024 0q-89 0 -169 16h338q-80 -16 -169 -16zM1313 48h-579q-40 14 -59 22l-11 5.5t-11 4.5h741q-39 -18 -81 -32zM1458 112h-868q-25 14 -53 32h974
q-28 -18 -53 -32zM1557 176h-1067q-14 10 -40 32h1148q-21 -17 -41 -32zM1634 240h-1220q-16 14 -24 22q-1 2 -4 5.5t-5 4.5h1286q-22 -22 -33 -32zM1697 304h-1346q-5 6 -14.5 18t-11.5 14h1398q-2 -2 -11.5 -14t-14.5 -18zM1748 368h-1448q-13 18 -22 32h1492
q-9 -14 -22 -32zM1791 432h-1534q-3 6 -9 16.5t-9 15.5h1570q-3 -5 -9 -15.5t-9 -16.5zM1826 496h-1604q-2 6 -7 16l-8 16h1634q-3 -6 -8 -16.5t-7 -15.5zM1855 560h-1662q-2 6 -6 16.5t-6 15.5h1686q-2 -5 -6 -16t-6 -16zM1883 640q-1 -3 -2.5 -8.5t-2.5 -7.5h-1708
l-5.5 16.5t-4.5 15.5h608v-16h1115z" />
    <glyph glyph-name="uniE0F5" unicode="&#xe0f5;" 
d="M896 768v1144q-187 -23 -352.5 -112.5t-285 -223t-189 -311t-69.5 -369.5q0 -209 81 -398.5t218 -326.5t326.5 -218t398.5 -81q192 0 369.5 69.5t311 189t223 285t112.5 352.5h-1144zM1619 226q-123 -109 -276.5 -167.5t-318.5 -58.5q-185 0 -349 70q-161 68 -285 192
t-192 285q-70 164 -70 349q0 165 58.5 318.5t167.5 276.5q171 192 414 264v-1115h1115q-72 -243 -264 -414zM1024 1920q209 0 398.5 -81t326.5 -218t218 -326.5t81 -398.5h-1024v1024z" />
    <glyph glyph-name="uniE0F6" unicode="&#xe0f6;" 
d="M896 1912v-1144h1144q-23 -187 -112.5 -352.5t-223 -285t-311 -189t-369.5 -69.5q-209 0 -398.5 81t-326.5 218t-218 326.5t-81 398.5q0 192 69.5 369.5t189 311t285 223t352.5 112.5zM1024 1920v-1024h1024q0 209 -81 398.5t-218 326.5t-326.5 218t-398.5 81zM1152 1040
h757q1 -3 1 -8t1 -8h-759v16zM1314 1744q40 -14 59 -22q3 -2 11 -5t11 -5h-243v32h162zM1152 1776v7q28 -4 42 -7h-42zM1458 1680q25 -14 53 -32h-359v32h306zM1558 1616q14 -10 40 -32h-446v32h406zM1634 1552q16 -14 24 -22q2 -2 5 -5.5t4 -4.5h-515v32h482zM1697 1488
q5 -6 14.5 -18t11.5 -14h-571v32h545zM1748 1424q13 -18 22 -32h-618v32h596zM1791 1360q3 -6 9 -16t9 -16h-657v32h639zM1826 1296q3 -5 8 -15.5t7 -16.5h-689v32h674zM1855 1232q2 -6 6 -16.5t6 -15.5h-715v32h703zM1878 1168q2 -5 5 -16t5 -16h-736v32h726zM1896 1104
q4 -13 7 -32h-751v32h744z" />
    <glyph glyph-name="uniE0F7" unicode="&#xe0f7;" 
d="M896 768h1144q-23 -187 -112.5 -352.5t-223 -285t-311 -189t-369.5 -69.5q-209 0 -398.5 81t-326.5 218t-218 326.5t-81 398.5q0 192 69.5 369.5t189 311t285 223t352.5 112.5v-1144zM1152 1783v-759h759q-17 117 -61 221q-68 160 -192 285q-125 124 -285 192
q-104 44 -221 61zM1024 1920q209 0 398.5 -81t326.5 -218t218 -326.5t81 -398.5h-1024v1024z" />
    <glyph glyph-name="uniE0F8" unicode="&#xe0f8;" 
d="M256 128h1792v-256h-2048v2048h256v-1792zM576 256q-80 0 -136 56t-56 136t56 136t136 56q3 0 8.5 -0.5t8.5 -0.5l206 344q-31 47 -31 105q0 80 56 136t136 56t136 -56t56 -136q0 -58 -31 -105l206 -344q3 0 8.5 0.5t8.5 0.5h13l340 596q-33 49 -33 108q0 80 56 136
t136 56t136 -56t56 -136t-56 -136t-136 -56h-13l-340 -596q33 -49 33 -108q0 -80 -56 -136t-136 -56t-136 56t-56 136q0 58 31 105l-206 344q-3 0 -8.5 -0.5t-8.5 -0.5t-8.5 0.5t-8.5 0.5l-206 -344q31 -47 31 -105q0 -80 -56 -136t-136 -56z" />
    <glyph glyph-name="uniE0F9" unicode="&#xe0f9;" 
d="M1952 1536q40 0 68 28t28 68v192q0 40 -28 68t-68 28h-192q-40 0 -68 -28t-28 -68v-32h-1280v32q0 40 -28 68t-68 28h-192q-40 0 -68 -28t-28 -68v-192q0 -40 28 -68t68 -28h32v-1280h-32q-40 0 -68 -28t-28 -68v-192q0 -40 28 -68t68 -28h192q40 0 68 28t28 68v32h1280
v-32q0 -40 28 -68t68 -28h192q40 0 68 28t28 68v192q0 40 -28 68t-68 28h-32v1280h32zM1792 1792h128v-128h-128v128zM128 1792h128v-128h-128v128zM256 0h-128v128h128v-128zM1920 0h-128v128h128v-128zM1792 256h-32q-40 0 -68 -28t-28 -68v-32h-1280v32q0 40 -28 68
t-68 28h-32v1280h32q40 0 68 28t28 68v32h1280v-32q0 -40 28 -68t68 -28h32v-1280zM512 1408h256v-1024h-256v1024zM896 896h256v-512h-256v512zM1280 1152h256v-768h-256v768z" />
    <glyph glyph-name="uniE0FA" unicode="&#xe0fa;" 
d="M1952 1536q40 0 68 28t28 68v192q0 40 -28 68t-68 28h-192q-40 0 -68 -28t-28 -68v-32h-1280v32q0 40 -28 68t-68 28h-192q-40 0 -68 -28t-28 -68v-192q0 -40 28 -68t68 -28h32v-1280h-32q-40 0 -68 -28t-28 -68v-192q0 -40 28 -68t68 -28h192q40 0 68 28t28 68v32h1280
v-32q0 -40 28 -68t68 -28h192q40 0 68 28t28 68v192q0 40 -28 68t-68 28h-32v1280h32zM1792 1792h128v-128h-128v128zM128 1792h128v-128h-128v128zM256 0h-128v128h128v-128zM1920 0h-128v128h128v-128zM1792 256h-32q-40 0 -68 -28t-28 -68v-32h-1280v32q0 40 -28 68
t-68 28h-32v1280h32q40 0 68 28t28 68v32h1280v-32q0 -40 28 -68t68 -28h32v-1280zM1024 1408v-512h512q0 212 -150 362t-362 150zM896 768v624q-168 -43 -276 -181t-108 -315q0 -212 150 -362t362 -150q177 0 315 108t181 276h-624z" />
    <glyph glyph-name="uniE0FB" unicode="&#xe0fb;" 
d="M0 256h2048v-256h-2048v256zM256 768h256v-384h-256v384zM640 1280h256v-896h-256v896zM1024 896h256v-512h-256v512zM1408 1664h256v-1280h-256v1280z" />
    <glyph glyph-name="uniE0FC" unicode="&#xe0fc;" 
d="M1408 1152v768h-896v-512h-512v-1536h1920v1280h-512zM640 128h-384v1024h384v-1024zM1152 128h-384v1536h384v-1536zM1664 128h-384v768h384v-768z" />
    <glyph glyph-name="uniE0FD" unicode="&#xe0fd;" 
d="M1280 1408h-512v-1536h512v1536zM896 1264v16h256v-16h-256zM896 1200v32h256v-32h-256zM896 1136v32h256v-32h-256zM896 1072v32h256v-32h-256zM896 1008v32h256v-32h-256zM896 944v32h256v-32h-256zM896 880v32h256v-32h-256zM896 816v32h256v-32h-256zM896 752v32h256
v-32h-256zM896 688v32h256v-32h-256zM896 624v32h256v-32h-256zM896 560v32h256v-32h-256zM896 496v32h256v-32h-256zM896 432v32h256v-32h-256zM896 368v32h256v-32h-256zM896 304v32h256v-32h-256zM896 240v32h256v-32h-256zM896 176v32h256v-32h-256zM896 112v32h256v-32
h-256zM896 48v32h256v-32h-256zM896 0v16h256v-16h-256zM0 768h512v-896h-512v896zM1536 1920h512v-2048h-512v2048z" />
    <glyph glyph-name="uniE0FE" unicode="&#xe0fe;" 
d="M576 1152h-384q-26 0 -45 -19t-19 -45v-1152q0 -26 19 -45t45 -19h384q26 0 45 19t19 45v1152q0 26 -19 45t-45 19zM576 0h-384v512h384v-512zM1216 1408h-384q-26 0 -45 -19t-19 -45v-1408q0 -26 19 -45t45 -19h384q26 0 45 19t19 45v1408q0 26 -19 45t-45 19zM1216 0
h-384v640h384v-640zM1856 1664h-384q-26 0 -45 -19t-19 -45v-1664q0 -26 19 -45t45 -19h384q26 0 45 19t19 45v1664q0 26 -19 45t-45 19zM1856 0h-384v768h384v-768z" />
    <glyph glyph-name="uniE0FF" unicode="&#xe0ff;" 
d="M1216 1408h-384q-26 0 -45 -19t-19 -45v-1408q0 -26 19 -45t45 -19h384q26 0 45 19t19 45v1408q0 26 -19 45t-45 19zM1216 0h-384v656h384v-656zM1216 688h-384v32h384v-32zM1216 752h-384v32h384v-32zM1216 816h-384v32h384v-32zM1216 880h-384v32h384v-32zM1216 944
h-384v32h384v-32zM1216 1008h-384v32h384v-32zM1216 1072h-384v32h384v-32zM1216 1136h-384v32h384v-32zM1216 1200h-384v32h384v-32zM1216 1264h-384v16h384v-16zM576 1152h-384q-26 0 -45 -19t-19 -45v-1152q0 -26 19 -45t45 -19h384q26 0 45 19t19 45v1152q0 26 -19 45
t-45 19zM576 0h-384v528h384v-528zM576 560h-384v32h384v-32zM576 624h-384v32h384v-32zM576 688h-384v32h384v-32zM576 752h-384v32h384v-32zM576 816h-384v32h384v-32zM576 880h-384v32h384v-32zM576 944h-384v32h384v-32zM576 1008h-384v16h384v-16zM1856 1664h-384
q-26 0 -45 -19t-19 -45v-1664q0 -26 19 -45t45 -19h384q26 0 45 19t19 45v1664q0 26 -19 45t-45 19zM1856 0h-384v784h384v-784zM1856 816h-384v32h384v-32zM1856 880h-384v32h384v-32zM1856 944h-384v32h384v-32zM1856 1008h-384v32h384v-32zM1856 1072h-384v32h384v-32z
M1856 1136h-384v32h384v-32zM1856 1200h-384v32h384v-32zM1856 1264h-384v32h384v-32zM1856 1328h-384v32h384v-32zM1856 1392h-384v32h384v-32zM1856 1456h-384v32h384v-32zM1856 1520h-384v16h384v-16z" />
    <glyph glyph-name="uniE100" unicode="&#xe100;" 
d="M576 1152h-384q-26 0 -45 -19t-19 -45v-1152q0 -26 19 -45t45 -19h384q26 0 45 19t19 45v1152q0 26 -19 45t-45 19zM576 512v-16h-384v16h384zM192 112v32h384v-32h-384zM576 80v-32h-384v32h384zM192 176v32h384v-32h-384zM192 240v32h384v-32h-384zM192 304v32h384v-32
h-384zM192 368v32h384v-32h-384zM192 432v32h384v-32h-384zM192 0v16h384v-16h-384zM1216 1408h-384q-26 0 -45 -19t-19 -45v-1408q0 -26 19 -45t45 -19h384q26 0 45 19t19 45v1408q0 26 -19 45t-45 19zM1216 640v-16h-384v16h384zM832 112v32h384v-32h-384zM1216 80v-32
h-384v32h384zM832 176v32h384v-32h-384zM832 240v32h384v-32h-384zM832 304v32h384v-32h-384zM832 368v32h384v-32h-384zM832 432v32h384v-32h-384zM832 496v32h384v-32h-384zM832 560v32h384v-32h-384zM832 0v16h384v-16h-384zM1856 1664h-384q-26 0 -45 -19t-19 -45v-1664
q0 -26 19 -45t45 -19h384q26 0 45 19t19 45v1664q0 26 -19 45t-45 19zM1856 768v-16h-384v16h384zM1472 112v32h384v-32h-384zM1856 80v-32h-384v32h384zM1472 176v32h384v-32h-384zM1472 240v32h384v-32h-384zM1472 304v32h384v-32h-384zM1472 368v32h384v-32h-384z
M1472 432v32h384v-32h-384zM1472 496v32h384v-32h-384zM1472 560v32h384v-32h-384zM1472 624v32h384v-32h-384zM1472 688v32h384v-32h-384zM1472 0v16h384v-16h-384z" />
    <glyph glyph-name="uniE101" unicode="&#xe101;" 
d="M128 384h384v-512h-384v512zM640 640h384v-768h-384v768zM1152 768h384v-896h-384v896zM1664 1152h384v-1280h-384v1280zM2048 1920v-576l-220 220l-676 -676l-384 384l-504 -504h-136v136l640 640l384 -384l540 540l-220 220h576z" />
    <glyph glyph-name="uniE102" unicode="&#xe102;" 
d="M1536 384h384v-512h-384v512zM1024 640h384v-768h-384v768zM512 768h384v-896h-384v896zM0 1152h384v-1280h-384v1280zM1920 1344v-576h-576l220 220l-412 412l-384 -384l-768 768v136h136l632 -632l384 384l548 -548z" />
    <glyph glyph-name="uniE103" unicode="&#xe103;" 
d="M1536 1664v-384h-384v-384h-384v-384h-384v-384h-384v-256h640v384h384v384h384v384h384v384h256v256h-512zM128 640l948 960l204 -192v512h-512l180 -192l-948 -960z" />
    <glyph glyph-name="uniE104" unicode="&#xe104;" 
d="M512 1664v-384h384v-384h384v-384h384v-384h384v-256h-640v384h-384v384h-384v384h-384v384h-256v256h512zM896 1920l948 -960l204 192v-512h-512l180 192l-948 960z" />
    <glyph glyph-name="uniE105" unicode="&#xe105;" 
d="M1984 0h-448v64h-64v-64h-640v64h-64v-64h-448v64h-64v-64h-128v576h64v64h-64v448h64v64h-64v448h64v64h-64v256h-128v-2048h2048v192h-64v-64zM880 1136l-32 -32v-504l32 32v504zM816 1072l-32 -32v-504l32 32v504zM752 504v528l-32 16v-533l29 -14zM1072 1328l-32 -32
v-504l32 32v504zM944 1200l-32 -32v-504l32 32v504zM688 1064l-32 16v-533l32 -16v533zM1008 1264l-32 -32v-504l32 32v504zM496 1160l-32 16v-533l32 -16v533zM368 1224l-32 16v-533l32 -16v533zM624 1096l-32 16v-533l32 -16v533zM432 1192l-32 16v-533l32 -16v533z
M304 1256l-32 16v-533l32 -16v533zM1136 1392l-32 -32v-504l32 32v504zM560 1128l-32 16v-533l32 -16v533zM1648 1264l-32 -32v-683l32 48v667zM1712 1328l-32 -32v-651l32 48v635zM1776 1392l-32 -32v-619l32 48v603zM1904 1520l-32 -32v-555l32 48v539zM1840 1456l-32 -32
v-587l32 48v571zM2032 1648l-32 -32v-491l32 48v475zM1968 1584l-32 -32v-523l32 48v507zM1392 1248l-32 21v-618l32 -43v640zM1328 1291l-32 21v-576l32 -43v598zM1200 1376l-32 21v-490l32 -43v512zM1264 1333l-32 22v-534l32 -42v554zM1456 1205l-32 22v-662l32 -42v682z
M1584 1200l-32 -32v-715l32 48v699zM1520 1163l-32 21v-704l32 -43v726zM1536 256l-384 512l-384 -384l-512 256v-512h1792v896z" />
    <glyph glyph-name="uniE106" unicode="&#xe106;" 
d="M640 1664l-128 -128v-256l-256 -256v-384l-256 -256v-384h1408l128 128v256h-1408l256 256h1280l128 128v256h-1408l256 256h1280l128 128v256h-1408z" />
    <glyph glyph-name="uniE107" unicode="&#xe107;" 
d="M2048 1280v384h-1408l-128 -128v-256l-256 -256v-384l-256 -256v-384h1408l128 128v256h-1408l16 16h1419l31 32h-1418l32 32h1416l31 32h-1415l32 32h1413l30 32h-1411l32 32h1410l30 32h-1408l16 16h1408v384h-1408l16 16h1411l32 32h-1411l32 32h1410l32 32h-1410
l32 32h1409l32 32h-1409l32 32h1408l32 32h-1408l16 16h1408z" />
    <glyph glyph-name="uniE108" unicode="&#xe108;" 
d="M1536 1920q-53 0 -90.5 -37.5t-37.5 -90.5v-256h-768v256q0 53 -37.5 90.5t-90.5 37.5t-90.5 -37.5t-37.5 -90.5v-1792q0 -53 37.5 -90.5t90.5 -37.5t90.5 37.5t37.5 90.5v256h768v-256q0 -53 37.5 -90.5t90.5 -37.5t90.5 37.5t37.5 90.5v1792q0 53 -37.5 90.5
t-90.5 37.5zM1408 512h-768v256h768v-256zM1408 1024h-768v256h768v-256z" />
    <glyph glyph-name="uniE109" unicode="&#xe109;" 
d="M1152 1278v194q0 26 -19 45t-45 19h-128q-26 0 -45 -19t-19 -45v-194q-250 -10 -455 -54.5t-323 -114t-118 -149.5v-768q0 -87 137 -160.5t373 -116.5t514 -43t514 43t373 116.5t137 160.5v768q0 80 -118 149.5t-323 114t-455 54.5zM214 989q74 39 192 70q213 55 490 66
v-165q0 -26 19 -45t45 -19h128q26 0 45 19t19 45v165q277 -11 490 -66q118 -31 192 -70q28 -15 46 -29q-18 -14 -46 -29q-74 -39 -192 -70q-262 -69 -618 -69t-618 69q-118 31 -192 70q-28 15 -46 29q18 14 46 29zM1920 393q-134 -75 -373 -120t-523 -45t-523 45t-373 120
v180q134 -75 373 -120t523 -45t523 45t373 120v-180zM1024 1600q-53 0 -90.5 37.5t-37.5 90.5v7q1 34 15 66t32.5 52.5t37 36.5t31.5 23l12 7q5 -3 13.5 -7.5t30 -22t38 -37t31 -52t15.5 -66.5v-7q0 -53 -37.5 -90.5t-90.5 -37.5z" />
    <glyph glyph-name="uniE10A" unicode="&#xe10a;" 
d="M1543 1280q61 44 103 86q104 104 126 232q12 67 -5 127.5t-59 102.5q-68 68 -174 68q-74 0 -149.5 -34.5t-137.5 -96.5q-160 -160 -252 -447q-67 284 -212 429q-97 97 -224 97q-102 0 -169 -67q-75 -75 -66 -189.5t97 -202.5q58 -58 141 -105h-434v-512h128v-896h1536
v896h128v512h-377zM1349 1664q41 41 90.5 64.5t94.5 23.5q47 0 73 -26q39 -39 20 -116.5t-83 -141.5q-111 -111 -309 -188h-101q80 249 215 384zM468 1598q-3 50 24 77q25 25 67 25q67 0 122 -55q102 -102 161 -312q0 -2 1 -5.5t2 -5.5q-2 0 -5.5 1t-5.5 2q-208 58 -312 162
q-49 49 -54 111zM896 0h-512v832h512v-832zM896 896h-640v256h640v-256zM1664 0h-512v832h512v-832zM1792 896h-640v256h640v-256z" />
    <glyph glyph-name="uniE10B" unicode="&#xe10b;" 
d="M1543 1280q61 44 103 86q104 104 126 232q12 67 -5 127.5t-59 102.5q-68 68 -174 68q-74 0 -149.5 -34.5t-137.5 -96.5q-160 -160 -252 -447q-67 284 -212 429q-97 97 -224 97q-102 0 -169 -67q-75 -75 -66 -189.5t97 -202.5q58 -58 141 -105h-434v-512h128v-896h1536
v896h128v512h-377zM1349 1664q41 41 90.5 64.5t94.5 23.5q47 0 73 -26q39 -39 20 -116.5t-83 -141.5q-111 -111 -309 -188h-101q80 249 215 384zM522 1487q-49 49 -54 111q-3 50 24 77q25 25 67 25q67 0 122 -55q102 -102 161 -312q0 -2 1 -5.5t2 -5.5q-2 0 -5.5 1t-5.5 2
q-208 58 -312 162zM1792 832h-640v-832h-256v832h-640v64h640v256h256v-256h640v-64z" />
    <glyph glyph-name="uniE10C" unicode="&#xe10c;" 
d="M1792 1024q0 243 -103 449.5t-279.5 326.5t-385.5 120t-385.5 -120t-279.5 -326.5t-103 -449.5q0 -219 84.5 -409.5t231 -315t327.5 -159.5l-67 -268h384l-67 268q181 35 327.5 159.5t231 315t84.5 409.5zM565 896h-192q-9 63 -9 128q0 131 39 256h192q-39 -125 -39 -256
q0 -65 9 -128z" />
    <glyph glyph-name="uniE10D" unicode="&#xe10d;" 
d="M128 256v-256l896 448l896 -448v256l-896 448z" />
    <glyph glyph-name="uniE10E" unicode="&#xe10e;" 
d="M128 256v-256l896 448l896 -448v256l-896 448zM128 768v-256l896 448l896 -448v256l-896 448z" />
    <glyph glyph-name="uniE10F" unicode="&#xe10f;" 
d="M128 256v-256l896 448l896 -448v256l-896 448zM128 768v-256l896 448l896 -448v256l-896 448zM1024 1728l-896 -448v-256l896 448l896 -448v256z" />
    <glyph glyph-name="uniE110" unicode="&#xe110;" 
d="M1408 1024v512h-768v-384h-640v-1024h2048v896h-640zM512 512h-256v-128h256v-128h-384v384h256v128h-256v128h384v-384zM1152 640h-128v512h-128v128h256v-640zM1920 256h-384v128h256v128h-256v128h256v128h-256v128h384v-640z" />
    <glyph glyph-name="uniE111" unicode="&#xe111;" 
d="M1664 1280q0 75 -51.5 130.5t-126.5 60.5q49 56 47 132t-56 130t-130 56t-132 -47q-5 75 -60.5 126.5t-130.5 51.5t-130.5 -51.5t-60.5 -126.5q-56 49 -132 47t-130 -56t-56 -130t47 -132q-75 -5 -126.5 -60.5t-51.5 -130.5t51.5 -130.5t126.5 -60.5q-49 -56 -47 -132
t56 -130q39 -39 93 -51t104 5v-909l256 256l256 -256v909q50 -17 104 -5t93 51q54 54 56 130t-47 132q75 5 126.5 60.5t51.5 130.5zM1024 896q-159 0 -271.5 112.5t-112.5 271.5t112.5 271.5t271.5 112.5t271.5 -112.5t112.5 -271.5t-112.5 -271.5t-271.5 -112.5z" />
    <glyph glyph-name="uniE112" unicode="&#xe112;" 
d="M1792 1088q0 209 -103 385.5t-279.5 279.5t-385.5 103t-385.5 -103t-279.5 -279.5t-103 -385.5q0 -184 81 -344t221 -267l-302 -605l384 256l128 -256l179 452q33 -4 77 -4t77 4l179 -452l128 256l384 -256l-302 605q140 107 221 267t81 344zM1386 726
q-150 -150 -362 -150t-362 150t-150 362t150 362t362 150t362 -150t150 -362t-150 -362z" />
    <glyph glyph-name="uniE113" unicode="&#xe113;" 
d="M1792 1088q0 209 -103 385.5t-279.5 279.5t-385.5 103t-385.5 -103t-279.5 -279.5t-103 -385.5q0 -184 81 -344t221 -267l-302 -605l384 256l128 -256l179 452q33 -4 77 -4t77 4l179 -452l128 256l384 -256l-302 605q140 107 221 267t81 344zM1386 726
q-150 -150 -362 -150t-362 150t-150 362t150 362t362 150t362 -150t150 -362t-150 -362zM1152 896v512h-256v-128h128v-384h-128v-128h384v128h-128z" />
    <glyph glyph-name="uniE114" unicode="&#xe114;" 
d="M1792 1088q0 209 -103 385.5t-279.5 279.5t-385.5 103t-385.5 -103t-279.5 -279.5t-103 -385.5q0 -184 81 -344t221 -267l-302 -605l384 256l128 -256l179 452q33 -4 77 -4t77 4l179 -452l128 256l384 -256l-302 605q140 107 221 267t81 344zM1386 726
q-150 -150 -362 -150t-362 150t-150 362t150 362t362 150t362 -150t150 -362t-150 -362zM768 1280h384v-128h-384v-384h512v128h-384v128h384v384h-512v-128z" />
    <glyph glyph-name="uniE115" unicode="&#xe115;" 
d="M1792 1088q0 209 -103 385.5t-279.5 279.5t-385.5 103t-385.5 -103t-279.5 -279.5t-103 -385.5q0 -184 81 -344t221 -267l-302 -605l384 256l128 -256l179 452q33 -4 77 -4t77 4l179 -452l128 256l384 -256l-302 605q140 107 221 267t81 344zM1386 726
q-150 -150 -362 -150t-362 150t-150 362t150 362t362 150t362 -150t150 -362t-150 -362zM768 1280h384v-128h-384v0v-128h384v-128h-384v-128h512v640h-512v-128z" />
    <glyph glyph-name="uniE116" unicode="&#xe116;" 
d="M512 384h1024v-256h-1024v256zM1920 1536q-53 0 -90.5 -37.5t-37.5 -90.5q0 -40 22 -71l-470 -313l-48 385q48 6 80 42.5t32 84.5q0 53 -37.5 90.5t-90.5 37.5t-90.5 -37.5t-37.5 -90.5q0 -37 19.5 -67.5t51.5 -46.5l-199 -398l-199 398q32 16 51.5 46.5t19.5 67.5
q0 53 -37.5 90.5t-90.5 37.5t-90.5 -37.5t-37.5 -90.5q0 -48 32 -84.5t80 -42.5l-48 -385l-469 313q21 30 21 71q0 53 -37.5 90.5t-90.5 37.5t-90.5 -37.5t-37.5 -90.5t37.5 -90.5t90.5 -37.5q29 0 50 10l334 -778h1024l334 778q21 -10 50 -10q53 0 90.5 37.5t37.5 90.5
t-37.5 90.5t-90.5 37.5z" />
    <glyph glyph-name="uniE117" unicode="&#xe117;" 
d="M2048 1792h-640v-256h-768v256h-640q0 -186 56 -390t149.5 -384t208.5 -334t241.5 -258t240.5 -138v-160q-96 0 -176 -40t-80 -88h768q0 48 -80 88t-176 40v160q114 34 240.5 138t241.5 258t208.5 334t149.5 384t56 390zM1535 1467l1 69v128h377q-16 -153 -73 -326
q-76 -232 -205 -444q-125 -207 -270 -348q-9 -9 -27 -25q184 368 197 946zM683 546q-145 141 -270 348q-129 212 -205 444q-57 173 -73 326h377v-128l1 -69q13 -578 197 -946q-18 16 -27 25z" />
    <glyph glyph-name="uniE118" unicode="&#xe118;" 
d="M1664 1536v256h-1280v-256h-384v-128v-128q0 -159 112.5 -271.5t271.5 -112.5q56 0 115 18q70 -100 172.5 -168.5t224.5 -92.5v-397h-128q-106 0 -181 -75t-75 -181h1024q0 106 -75 181t-181 75h-128v397q122 24 224.5 92.5t172.5 168.5q59 -18 115 -18
q159 0 271.5 112.5t112.5 271.5v128v128h-384zM384 1048q-96 0 -164 68t-68 164v128h232v-128q0 -118 42 -228q-28 -4 -42 -4zM1896 1280q0 -96 -68 -164t-164 -68q-14 0 -42 4q42 110 42 228v128h232v-128z" />
    <glyph glyph-name="uniE119" unicode="&#xe119;" 
d="M1664 1536v256h-1280v-256h-384v-128v-128q0 -159 112.5 -271.5t271.5 -112.5q56 0 115 18q70 -100 172.5 -168.5t224.5 -92.5v-397h-128q-106 0 -181 -75t-75 -181h1024q0 106 -75 181t-181 75h-128v397q122 24 224.5 92.5t172.5 168.5q59 -18 115 -18
q159 0 271.5 112.5t112.5 271.5v128v128h-384zM384 1048q-96 0 -164 68t-68 164v128h232v-128q0 -118 42 -228q-28 -4 -42 -4zM1219 1178l122 -373l-317 231l-317 -231l122 373l-318 230l393 -1l120 373l120 -373l393 1zM1896 1280q0 -96 -68 -164t-164 -68q-14 0 -42 4
q42 110 42 228v128h232v-128z" />
    <glyph glyph-name="uniE11A" unicode="&#xe11a;" 
d="M1430 1408l266 -266l-672 -757l-672 757l266 266h812zM1536 1664h-1024l-512 -512l1024 -1152l1024 1152z" />
    <glyph glyph-name="uniE11B" unicode="&#xe11b;" 
d="M1536 1664h-1024l-512 -512l1024 -1152l1024 1152zM1024 363v5h-5l-28 32h33v32h-62l-28 32h90v32h-119l-28 32h147v32h-175l-29 32h204v32h-232l-29 32h261v32h-289l-29 32h318v32h-346l-29 32h375v32h-403l-28 32h431v32h-460l-28 32h488v32h-517l-28 32h545v32h-574
l-28 32h602v32h-631l-28 32h659v32h-687l-15 17l278 278h424v-7h431l32 -32h-463v-32h495l32 -32h-527v-32h559l32 -32h-591v-32h623l32 -32h-655v-32h687l15 -15z" />
    <glyph glyph-name="uniE11C" unicode="&#xe11c;" 
d="M1536 1280q0 -82 -21 -156.5t-55 -132.5t-75 -113t-82 -109t-75 -110t-55 -126.5t-21 -148.5v-384h192q80 0 136 -37.5t56 -90.5h-1024q0 53 56 90.5t136 37.5h192v384q0 78 -21 148.5t-55 126.5t-75 110t-82 109t-75 113t-55 132.5t-21 156.5q0 123 20 332.5t45 307.5
h894q25 -98 45 -307.5t20 -332.5z" />
    <glyph glyph-name="uniE11D" unicode="&#xe11d;" 
d="M1216 1152q-48 -48 -56 -64t-8 -64v-896h256q53 0 90.5 -37.5t37.5 -90.5h-1024q0 53 37.5 90.5t90.5 37.5h256v896q0 48 -8 64t-56 64l-549 549q-37 37 -26.5 64t63.5 27h1408q53 0 63.5 -27t-26.5 -64z" />
    <glyph glyph-name="uniE11E" unicode="&#xe11e;" 
d="M1152 1280v512h32q14 0 23 9t9 23v64q0 14 -9 23t-23 9h-320q-14 0 -23 -9t-9 -23v-64q0 -14 9 -23t23 -9h32v-512q0 -56 -26.5 -105t-64 -86l-75 -74t-64 -84t-26.5 -100v-895q0 -26 19 -45t45 -19h640q26 0 45 19t19 45v895q0 53 -26.5 100t-64 84l-75 74t-64 86
t-26.5 105z" />
    <glyph glyph-name="uniE11F" unicode="&#xe11f;" 
d="M1152 1280v512h32q14 0 23 9t9 23v64q0 14 -9 23t-23 9h-320q-14 0 -23 -9t-9 -23v-64q0 -14 9 -23t23 -9h32v-512q0 -56 -26.5 -105t-64 -86l-75 -74t-64 -84t-26.5 -100v-895q0 -26 19 -45t45 -19h640q26 0 45 19t19 45v895q0 53 -26.5 100t-64 84l-75 74t-64 86
t-26.5 105zM1280 33q-112 -33 -256 -33t-256 33v640q112 -33 256 -33t256 33v-640z" />
    <glyph glyph-name="uniE120" unicode="&#xe120;" 
d="M1664 1280h-128v192q0 87 -103 160.5t-279.5 116.5t-385.5 43t-385.5 -43t-279.5 -116.5t-103 -160.5v-1152q0 -87 103 -160.5t279.5 -116.5t385.5 -43t385.5 43t279.5 116.5t103 160.5v192h128q158 0 271 113t113 271t-113 271t-271 113zM352 1541q180 59 416 59
t416 -59q90 -29 143 -69q-53 -40 -143 -69q-180 -59 -416 -59t-416 59q-90 29 -143 69q53 40 143 69zM1809 783q-47 -47 -113 -47h-160v320h160q66 0 113 -47t47 -113t-47 -113z" />
    <glyph glyph-name="uniE121" unicode="&#xe121;" 
d="M1728 1920q-133 0 -226.5 -93.5t-93.5 -226.5v-960h256v-768h384v1728q0 133 -93.5 226.5t-226.5 93.5zM832 1920q-26 0 -45 -19t-19 -45v-448q0 -13 -19 -22.5t-45 -9.5t-45 9.5t-19 22.5v448q0 26 -19 45t-45 19t-45 -19t-19 -45v-448q0 -13 -19 -22.5t-45 -9.5
t-45 9.5t-19 22.5v448q0 26 -19 45t-45 19t-45 -19t-19 -45v-448q0 -13 -19 -22.5t-45 -9.5t-45 9.5t-19 22.5v448q0 26 -19 45t-45 19t-45 -19t-19 -45v-448v-128q0 -25 14 -47t32.5 -37t47.5 -36q8 -5 12 -8q33 -24 54 -42.5t46 -49.5t37.5 -72t12.5 -92v-1024h384v1024
q0 51 12.5 92t37.5 72t46 49.5t54 42.5q65 47 82 66q24 29 24 62v128v448q0 26 -19 45t-45 19z" />
    <glyph glyph-name="uniE122" unicode="&#xe122;" 
d="M448 1920q-159 0 -271.5 -131.5t-112.5 -316.5q0 -157 83.5 -278.5t211.5 -157.5l-63 -1036q-3 -53 32.5 -90.5t87.5 -37.5h64q52 0 87.5 37.5t32.5 90.5l-63 1036q128 36 211.5 157.5t83.5 278.5q0 185 -112.5 316.5t-271.5 131.5zM1739 1920l-107 -640h-80l-53 640h-54
l-53 -640h-80l-107 640h-53v-832q0 -26 19 -45t45 -19h167l-63 -1024q-3 -53 32.5 -90.5t87.5 -37.5h64q52 0 87.5 37.5t32.5 90.5l-63 1024h167q26 0 45 19t19 45v832h-53z" />
    <glyph glyph-name="uniE123" unicode="&#xe123;" 
d="M1024 0q278 0 514 51.5t373 140t137 192.5h-2048q0 -104 137 -192.5t373 -140t514 -51.5zM1856 1152h-1664q-80 0 -136 -56t-56 -136t56 -136t136 -56h1664q80 0 136 56t56 136t-56 136t-136 56zM1024 1792q-206 0 -397.5 -36.5t-327.5 -95.5t-217.5 -136t-81.5 -156v-88
h2048v88q0 79 -81.5 156t-217.5 136t-327.5 95.5t-397.5 36.5zM320 1408q-26 0 -45 19t-19 45t19 45t45 19t45 -19t19 -45t-19 -45t-45 -19zM576 1536q-26 0 -45 19t-19 45t19 45t45 19t45 -19t19 -45t-19 -45t-45 -19zM832 1408q-26 0 -45 19t-19 45t19 45t45 19t45 -19
t19 -45t-19 -45t-45 -19zM1216 1408q-26 0 -45 19t-19 45t19 45t45 19t45 -19t19 -45t-19 -45t-45 -19zM1472 1536q-26 0 -45 19t-19 45t19 45t45 19t45 -19t19 -45t-19 -45t-45 -19zM1728 1408q-26 0 -45 19t-19 45t19 45t45 19t45 -19t19 -45t-19 -45t-45 -19zM0 640h2048
v-128h-2048v128z" />
    <glyph glyph-name="uniE124" unicode="&#xe124;" 
d="M1728 896h-64v32v23v9q0 123 -153 222t-397 139q-14 25 -37 59q-19 28 -28 42.5t-17 36.5t-8 41q0 74 109 183q19 19 19 45t-19 45t-45 19t-45 -19q-59 -59 -94 -115t-46 -98t-5.5 -85.5t18 -72t34.5 -62.5q-52 4 -118 4q-39 0 -113 -4q-4 7 -26 40q-19 28 -28 42.5
t-17 36.5t-8 41q0 74 109 183q19 19 19 45t-19 45t-45 19t-45 -19q-62 -62 -97 -120.5t-45 -101.5t-1 -88.5t22.5 -73.5t37.5 -64q-254 -38 -415 -138t-161 -227v-9v-23q0 -172 42 -333t119 -291t179 -227.5t229 -151t263 -53.5q190 0 357.5 102t284.5 282h254
q133 0 226.5 93.5t93.5 226.5t-93.5 226.5t-226.5 93.5zM832 768q-156 0 -289 25.5t-210 70t-77 96.5q0 61 104 110t270 70q-25 -61 -99 -135q-19 -19 -19 -45t19 -45t45 -19t45 19q126 126 144 236q22 1 67 1q88 0 183 -10q-22 -59 -100 -137q-19 -19 -19 -45t19 -45
t45 -19t45 19q109 109 137 207q122 -26 194 -69t72 -93q0 -52 -77 -96.5t-210 -70t-289 -25.5zM1728 384h-183q85 177 110 384h73q68 0 118 -60t50 -132t-50 -132t-118 -60z" />
    <glyph glyph-name="uniE125" unicode="&#xe125;" 
d="M1728 896h-64v32v23v9q0 104 -111 192.5t-303 140t-418 51.5t-418 -51.5t-303 -140t-111 -192.5v-9v-23q0 -172 42 -333t119 -291t179 -227.5t229 -151t263 -53.5q190 0 357.5 102t284.5 282h254q133 0 226.5 93.5t93.5 226.5t-93.5 226.5t-226.5 93.5zM832 768
q-156 0 -289 25.5t-210 70t-77 96.5t77 96.5t210 70t289 25.5t289 -25.5t210 -70t77 -96.5t-77 -96.5t-210 -70t-289 -25.5zM1728 384h-183q85 177 110 384h73q68 0 118 -60t50 -132t-50 -132t-118 -60z" />
    <glyph glyph-name="uniE126" unicode="&#xe126;" 
d="M1435 1920q-69 -114 -140.5 -192t-137 -118.5t-132 -66.5t-137 -46.5t-139 -47t-150 -80.5t-159.5 -134q-100 -103 -153.5 -218t-56.5 -219.5t28 -201t95.5 -170.5t151.5 -118q221 113 429.5 356.5t367.5 590.5q2 -8 6 -21.5t11.5 -60t11 -95.5t0 -123t-17 -148
t-44.5 -166t-77.5 -180.5t-121.5 -188.5t-171 -192q71 -83 159.5 -122.5t178 -35.5t180.5 47.5t168 118.5t139 186.5t96 243.5q153 602 -385 1402zM194 -12q0 -5 1.5 -14.5t10.5 -28.5t23.5 -34t45 -27t70.5 -12q24 0 69 17.5t109.5 57.5t137 97t154 144t157.5 189
t150.5 241.5t130.5 293.5q-84 -149 -186.5 -280t-195.5 -220.5t-194 -165t-176 -119.5t-149.5 -77.5t-105.5 -44.5t-52 -17z" />
    <glyph glyph-name="uniE127" unicode="&#xe127;" 
d="M1431 1690q119 -198 188 -377q163 -421 77 -763q-47 -187 -177 -288q-116 -90 -267 -90q-103 0 -196.5 43t-160.5 122l-70 82l-78 -47h-7q-63 0 -183 53q-72 32 -122.5 100.5t-67.5 156.5q-21 107 15 223q40 128 150 241q53 55 104.5 94t108 65.5t92.5 40t101 33.5
q62 19 99 31.5t93.5 39t104.5 58.5q108 73 196 182zM1435 1920q-69 -114 -140.5 -192t-137 -118.5t-132 -66.5t-137 -46.5t-139 -47t-150 -80.5t-159.5 -134q-100 -102 -153 -219.5t-55.5 -224t28.5 -203.5t95.5 -169.5t149.5 -110.5q144 -64 235 -64q18 0 32.5 2.5
t19.5 5.5l6 2q87 -102 206.5 -156t247.5 -54q93 0 180.5 29.5t164 86.5t135 149t88.5 209q153 602 -385 1402zM194 -12q0 -5 1.5 -14.5t10.5 -28.5t23.5 -34t45 -27t70.5 -12q41 0 104 30.5t143.5 92.5t168 148.5t180.5 207t177 258t160.5 312t129.5 359.5
q-68 -168 -179 -338t-233 -306t-251.5 -257t-241 -203.5t-193 -132t-116.5 -55.5z" />
    <glyph glyph-name="uniE128" unicode="&#xe128;" 
d="M1024 1285q-32 33 -87 60t-124.5 45t-146.5 17.5t-153.5 -17.5t-146 -65.5t-122.5 -120.5t-84.5 -189.5t-31.5 -265.5q0 -122 49 -253t126.5 -240.5t177.5 -198.5t198 -137.5t191 -47t154 63.5q61 -62 154 -63.5t191 47t198 137.5t177.5 198.5t126.5 240.5t49 253
q0 148 -31.5 265.5t-84.5 189.5t-122.5 120.5t-146 65.5t-153.5 17.5t-146.5 -17.5t-124.5 -45t-87 -60zM1666 555q-35 -134 -141 -259t-254 -221q100 119 165 277.5t79 330t-44 326.5q-52 136 -118 233q60 -20 110.5 -49.5t96 -71.5t76 -98t47.5 -124.5t13 -156t-30 -187.5
zM961 1512q41 11 77 25q-14 -64 -14 -129h43q14 66 46.5 132t78.5 121t108.5 89t129.5 34q0 67 -39.5 101.5t-98.5 34.5q-104 -51 -178 -183q-50 -91 -72 -183q-4 27 -16 61q-29 82 -92.5 147.5t-146 103.5t-180.5 50.5t-195 -12.5q-45 -10 -84 -27q5 -39 18 -76
q29 -82 92.5 -147.5t146.5 -103.5t181 -50.5t195 12.5z" />
    <glyph glyph-name="uniE129" unicode="&#xe129;" 
d="M1152 256h768l-384 512h256l-384 384h256l-384 384h256l-512 384l-512 -384h256l-384 -384h256l-384 -384h256l-384 -512h768q0 -34 -0.5 -54t-1.5 -59.5t-4.5 -65t-9.5 -60.5t-15.5 -58t-22.5 -44.5t-32 -32t-42 -10.5h512q-23 0 -42 10.5t-32 32t-22.5 44.5t-15.5 58
t-9.5 60.5t-4.5 65t-1.5 59.5t-0.5 54z" />
    <glyph glyph-name="uniE12A" unicode="&#xe12a;" 
d="M1024 1750l391 -342h-293l257 -224l182 -160h-98h-341l257 -224l182 -160h-293l257 -224l182 -160h-405h-144l16 -143q9 -73 16 -113h-332q7 40 16 113l16 143h-144h-405l182 160l257 224h-293l182 160l257 224h-341h-98l182 160l257 224h-293zM1024 1920l-731 -640h292
l-439 -384h439l-439 -384h293l-439 -384h746q-5 -43 -8.5 -69t-9.5 -59.5t-13.5 -53t-17.5 -38.5t-24.5 -27.5t-32.5 -8.5h768q-18 0 -32.5 8.5t-24.5 27.5t-17.5 38.5t-13.5 53t-9.5 59.5t-8.5 69h746l-439 384h293l-439 384h439l-439 384h292z" />
    <glyph glyph-name="uniE12B" unicode="&#xe12b;" 
d="M1069 816q-80 0 -149 -15t-141.5 -53.5t-133.5 -101t-119 -162t-103 -231.5q-32 -93 -37.5 -164.5t11.5 -113.5t51.5 -67.5t79 -32t97 -1t102.5 20t99 35.5q87 38 138 53.5t114.5 17t127.5 -19t160 -66.5q87 -42 167 -43.5t130.5 34t70 101.5t-13.5 159
q-26 76 -72.5 162.5t-112 173t-139 156.5t-160 114t-167.5 44zM595 1833q-107 -26 -156.5 -153t-12.5 -281q38 -154 140 -244.5t209 -65.5q1 0 1 0.5t1 0.5q70 17 118 82t60.5 155t-10.5 196q-31 131 -114 220q-52 56 -113 80t-121 10h-2zM1422 1840q-108 22 -207 -71.5
t-131 -248.5q-18 -91 -7.5 -171.5t45.5 -142.5q54 -96 145 -115q1 0 1 -0.5t1 -0.5q108 -22 207 72t131 249t-21.5 280.5t-161.5 148.5h-2zM41 773q59 -137 168 -205t204 -27q53 23 85.5 76t39.5 125q11 113 -39 228v1q-59 137 -168 205t-204 27q-62 -27 -95.5 -94
t-31.5 -156.5t41 -179.5zM1635 573q109 -48 232 45q89 69 140 185q39 89 42 179t-30.5 157.5t-95.5 94.5h-2q-94 41 -203 -26t-169 -204q-39 -89 -42 -178.5t30.5 -157t95.5 -94.5q1 0 1 -0.5t1 -0.5z" />
    <glyph glyph-name="uniE12C" unicode="&#xe12c;" 
d="M1604 1452q69 -50 122 -143.5t83.5 -205t50.5 -213t36 -203t27 -139.5l-458 -181q-11 71 -49 148t-87 140.5t-104.5 137.5t-102 140.5t-79 148.5t-36.5 161q-5 98 32 168.5t101 103t142.5 38t163.5 -21t158 -79.5zM1882 -105q-78 -27 -136.5 -22t-100 35t-69.5 72.5
t-44 90.5t-24.5 88.5t-10.5 67.5l-2 27l476 194q3 -6 7.5 -15.5t17 -41t22 -62.5t18.5 -74.5t11.5 -83t-4.5 -83t-24.5 -78.5t-52 -66t-84.5 -49zM4 1538q15 89 56 168t101 130.5t128 74t144 -2t142 -96.5q63 -69 99.5 -168.5t50.5 -201.5t26 -203.5t40.5 -201.5t78.5 -168
l-452 -196q-19 35 -79.5 118t-118.5 169t-115 186t-86 204t-15 188zM909 240q-64 -28 -119.5 -25.5t-101.5 29.5t-83.5 66.5t-65.5 84.5t-46.5 83.5t-28.5 63.5l-9 26l474 200q4 -5 11 -13t26.5 -34.5t36 -53t34 -65t26.5 -74.5t8 -77.5t-16.5 -77.5t-52 -71.5t-93.5 -61.5z
" />
    <glyph glyph-name="uniE12D" unicode="&#xe12d;" 
d="M2023 1165q-39 120 -116.5 190.5t-171 83.5t-198 -28.5t-196.5 -133.5q47 93 62 184.5t-5 168t-67 135.5t-126.5 92t-180.5 33t-180.5 -33t-126.5 -92t-67 -135.5t-5 -168t62 -184.5q-92 92 -196.5 133.5t-198 28.5t-171 -83.5t-116.5 -190.5q-31 -96 -24 -182.5
t48 -148.5t109 -106t158 -56.5t195 1.5q-93 -48 -158.5 -113t-94.5 -138.5t-26 -148.5t48 -148.5t127 -133.5q102 -74 206 -85.5t187 32.5t143 138.5t81 223.5q21 -129 81 -223.5t143 -138.5t187 -32.5t206 85.5q82 60 127 133.5t48 148.5t-26 148.5t-94.5 138.5t-158.5 113
q103 -16 195 -1.5t158 56t109 106.5t48.5 148.5t-24.5 182.5zM1024 548q-123 0 -209.5 86.5t-86.5 209.5t86.5 209.5t209.5 86.5t209.5 -86.5t86.5 -209.5t-86.5 -209.5t-209.5 -86.5z" />
    <glyph glyph-name="uniE12E" unicode="&#xe12e;" 
d="M1408 1792l-640 -640h-384l-384 -512q9 2 24 6t62 15t93.5 19.5t111 17.5t122.5 13t120.5 2t110.5 -13l-644 -828l844 656q33 -75 37.5 -170.5t-13 -177.5t-39.5 -153.5t-41 -112.5l-20 -42l512 384v384l640 640l128 640z" />
    <glyph glyph-name="uniE12F" unicode="&#xe12f;" 
d="M1024 1792q209 0 398.5 -81t326.5 -218t218 -326.5t81 -398.5q0 -285 -143.5 -523.5t-384.5 -372.5h-992q-241 134 -384.5 372.5t-143.5 523.5q0 209 81 398.5t218 326.5t326.5 218t398.5 81zM1604 188q116 116 178 266t62 314h-180v128h170q-21 134 -85 256h-213v128
h129q-27 34 -61 68q-137 137 -324 199v-139h-128v170q-60 10 -128 10t-128 -10v-170h-128v139q-187 -62 -324 -199q-34 -34 -61 -68h129v-128h-213q-64 -122 -85 -256h170v-128h-180q0 -164 62 -314t178 -266q27 -27 67 -60h385l73 1024h110l73 -1024h385q40 33 67 60z" />
    <glyph glyph-name="uniE130" unicode="&#xe130;" 
d="M1024 1920q-209 0 -398.5 -81t-326.5 -218t-218 -326.5t-81 -398.5t81 -398.5t218 -326.5t326.5 -218t398.5 -81t398.5 81t326.5 218t218 326.5t81 398.5t-81 398.5t-218 326.5t-326.5 218t-398.5 81zM606 252q34 94 34 196q0 184 -105 331.5t-273 209.5q31 262 219 450
q109 109 249 167t294 58t294 -58t249 -167q188 -188 219 -450q-168 -62 -273 -209.5t-105 -331.5q0 -102 34 -196q-191 -124 -418 -124t-418 124zM1104 638q21 -5 34.5 -22.5t13.5 -39.5v-128q0 -26 -19 -45t-45 -19h-128q-26 0 -45 19t-19 45v128q0 22 13.5 39.5t34.5 22.5
l48 898h64z" />
    <glyph glyph-name="uniE131" unicode="&#xe131;" 
d="M1024 1408q-209 0 -398.5 -81t-326.5 -218t-218 -326.5t-81 -398.5h128q0 172 71 323t196 259l434 -542q-4 -17 -4 -40q0 -82 58.5 -140.5t140.5 -58.5t140.5 58.5t58.5 140.5t-58.5 140.5t-140.5 58.5q-23 0 -40 -4l-536 429q199 144 448 144q209 0 385.5 -103
t279.5 -279.5t103 -385.5h384q0 209 -81 398.5t-218 326.5t-326.5 218t-398.5 81z" />
    <glyph glyph-name="uniE132" unicode="&#xe132;" 
d="M1024 1408q-209 0 -398.5 -81t-326.5 -218t-218 -326.5t-81 -398.5h128q0 209 103 385.5t279.5 279.5t385.5 103q38 0 85 -5l-67 -597q-41 -28 -65 -71t-24 -95q0 -82 58.5 -140.5t140.5 -58.5t140.5 58.5t58.5 140.5q0 52 -24 95t-65 71l-65 582q258 -59 426.5 -268
t168.5 -480h384q0 209 -81 398.5t-218 326.5t-326.5 218t-398.5 81z" />
    <glyph glyph-name="uniE133" unicode="&#xe133;" 
d="M1664 384h384q0 209 -81 398.5t-218 326.5t-326.5 218t-398.5 81t-398.5 -81t-326.5 -218t-218 -326.5t-81 -398.5h128q0 209 103 385.5t279.5 279.5t385.5 103q166 0 313.5 -66.5t255.5 -185.5l-401 -321q-17 4 -40 4q-82 0 -140.5 -58.5t-58.5 -140.5t58.5 -140.5
t140.5 -58.5t140.5 58.5t58.5 140.5q0 23 -4 40l313 391q132 -196 132 -431z" />
    <glyph glyph-name="uniE134" unicode="&#xe134;" 
d="M1024 1920q-209 0 -398.5 -81t-326.5 -218t-218 -326.5t-81 -398.5t81 -398.5t218 -326.5t326.5 -218t398.5 -81t398.5 81t326.5 218t218 326.5t81 398.5t-81 398.5t-218 326.5t-326.5 218t-398.5 81zM1024 128q-209 0 -385.5 103t-279.5 279.5t-103 385.5t103 385.5
t279.5 279.5t385.5 103t385.5 -103t279.5 -279.5t103 -385.5t-103 -385.5t-279.5 -279.5t-385.5 -103zM896 1408q0 53 37.5 90.5t90.5 37.5t90.5 -37.5t37.5 -90.5t-37.5 -90.5t-90.5 -37.5t-90.5 37.5t-37.5 90.5zM1280 1280q0 53 37.5 90.5t90.5 37.5t90.5 -37.5
t37.5 -90.5t-37.5 -90.5t-90.5 -37.5t-90.5 37.5t-37.5 90.5zM512 1280q0 53 37.5 90.5t90.5 37.5t90.5 -37.5t37.5 -90.5t-37.5 -90.5t-90.5 -37.5t-90.5 37.5t-37.5 90.5zM896 512v-128h256v128l-128 640z" />
    <glyph glyph-name="uniE135" unicode="&#xe135;" 
d="M2020 88l-1097 999l51 52q63 63 68 151l6 3l206 129q21 25 19.5 58.5t-24.5 56.5l-358 359q-23 23 -56.5 24t-58.5 -20l-128 -206l-3 -6q-88 -5 -151 -68l-195 -196q-62 -62 -67 -151l-6 -3l-206 -129q-21 -25 -20 -58t24 -56l358 -360q23 -23 56.5 -24t58.5 20l129 206
q0 1 1 3t1 3q88 5 151 68l57 57l996 -1100q22 -24 50.5 -27.5t48.5 15.5l101 101q19 20 15.5 48.5t-27.5 50.5z" />
    <glyph glyph-name="uniE136" unicode="&#xe136;" 
d="M113 1024l207 331l207 -331h113l-320 512l-320 -512h113zM512 640l128 128v128h-640v-128l128 -128h384zM1393 1024l207 331l207 -331h113l-320 512l-320 -512h113zM1280 768l128 -128h384l128 128v128h-640v-128zM1024 256v1163q41 14 72 45t45 72h459h64v128h-523
q-20 57 -69.5 92.5t-111.5 35.5t-111.5 -35.5t-69.5 -92.5h-523v-128h64h459q14 -41 45 -72t72 -45v-1163h-640l-128 -256h1664l-128 256h-640zM867 1600q0 38 27.5 65.5t65.5 27.5t65.5 -27.5t27.5 -65.5t-27.5 -65.5t-65.5 -27.5t-65.5 27.5t-27.5 65.5z" />
    <glyph glyph-name="uniE137" unicode="&#xe137;" 
d="M2048 1792v-53l-75 -75l75 -75v-53h-128v-128h-53l-75 75l-75 -75h-53v128h-128v2q-43 2 -75 15q-27 11 -55 32.5t-42.5 37t-41.5 45.5q-26 29 -40 43.5t-38 32.5t-48 26q-141 48 -215 -5q-43 -32 -64 -101h11q40 0 68 -28t28 -68v-54q182 -43 328 -159.5t229 -287
t83 -363.5q0 -169 -66 -323.5t-177 -265.5t-265.5 -177t-323.5 -66t-323.5 66t-265.5 177t-177 265.5t-66 323.5q0 193 83 363.5t229 287t328 159.5v54q0 40 28 68t68 28h48q32 140 122 205q126 91 330 23q39 -13 76 -39t55.5 -45t50.5 -55q24 -27 35 -38.5t30 -26.5
t33.5 -18.5t36 -3t46.5 9.5l-63 63v53h128v128h53l75 -75l75 75h53v-128h128z" />
    <glyph glyph-name="uniE138" unicode="&#xe138;" 
d="M1185 -128q319 231 336 564q-18 -36 -44.5 -66t-51.5 -48t-47.5 -30.5t-36.5 -17.5l-14 -5q21 55 22 121t-21 137t-64.5 136t-115 123t-165.5 94q95 -207 0 -367q-21 45 -51 84t-58.5 62.5t-53.5 40.5t-40 24l-16 6l18 -97q38 -248 -43 -285q-59 -24 -172 66
q-6 -55 10.5 -114.5t47 -111t69 -101t78 -87.5t72 -67.5t53.5 -44.5l21 -16q-56 0 -119 7.5t-148.5 32t-161.5 63t-149.5 108.5t-122 161t-69.5 228t-1 301q45 -49 89 -85.5t74.5 -54.5t54.5 -28.5t36 -12.5l12 -2q30 126 35 232.5t-23.5 199.5t-95.5 143q116 25 217.5 -30
t133.5 -152q54 61 62 174.5t-29.5 223t-105.5 162.5q111 -6 195.5 -76t115.5 -148q168 271 0 601q71 -51 123 -102t87 -111t56 -102.5t36 -118.5t20 -113t14 -130q1 -5 1 -8q57 63 118 108t99.5 64t83.5 29t51 10h21q-68 -82 -104 -186t-37.5 -199t15 -175.5t47.5 -130.5
q61 23 113 55.5t82 62.5t51.5 56.5t29.5 42.5l8 16q5 -14 13 -39t26.5 -101t28.5 -150t9.5 -174.5t-19 -187t-68.5 -174.5t-128.5 -150t-209 -101t-300.5 -39z" />
    <glyph glyph-name="uniE139" unicode="&#xe139;" 
d="M642 -128q-40 83 -57.5 157.5t-17.5 132t17.5 115.5t40.5 100.5t58 94.5q51 75 87.5 158.5t47.5 129.5l10 46q2 -2 5 -7t11.5 -20.5t16 -33t15 -45t11.5 -55.5t3 -65t-8 -75q57 63 97 149t54.5 162t20 148.5t-6.5 109.5q133 -93 228.5 -237.5t139 -306t29.5 -336
t-90 -322.5q226 128 361.5 283.5t174 302t24 299t-70.5 278.5t-128.5 236t-132 175t-97.5 92q25 -55 33 -123t-9.5 -137.5t-63.5 -110.5q-34 128 -83.5 238t-102 185t-108.5 135.5t-105 95.5t-88 58.5t-62 32.5l-23 8q58 -389 -390 -937q-7 115 -22 185t-61 154
q-5 -79 -37.5 -168.5t-70.5 -159t-77.5 -161t-55.5 -168.5q-33 -158 0 -292t150 -257t333 -244z" />
    <glyph glyph-name="uniE13A" unicode="&#xe13a;" 
d="M1913 311l-633 1054v427h64q26 0 45 19t19 45t-19 45t-45 19h-640q-26 0 -45 -19t-19 -45t19 -45t45 -19h64v-427l-633 -1054q-53 -89 -61 -170t25 -140t107 -94t178 -35h1280q104 0 178 35t107 94t25 140t-61 170zM482 640l414 690v462h256v-462l414 -690h-1084z" />
    <glyph glyph-name="uniE13B" unicode="&#xe13b;" 
d="M1664 1507zM1668 896q160 153 226 289.5t17 222.5q-58 99 -247 99v-96q135 0 164 -51q17 -30 -3 -91q-29 -86 -112 -185q-49 -59 -116 -123q-93 79 -198 152q-11 132 -33 247q173 51 298 51v96q-138 0 -318 -53q-52 214 -137 340t-185 126t-185 -126t-137 -340
q-180 53 -318 53q-189 0 -247 -99q-49 -86 17 -222.5t226 -289.5q-160 -153 -226 -289.5t-17 -222.5q58 -99 247 -99q138 0 318 53q52 -214 137 -340t185 -126t185 126t137 340q180 -53 318 -53q189 0 247 99q49 86 -17 222.5t-226 289.5zM1525 896q-49 -42 -119 -94
q2 62 2 94t-2 94q70 -52 119 -94zM1275 462q-71 25 -141 56q7 4 36.5 20t45.5 25q37 22 81 49q-10 -85 -22 -150zM1168 647q-96 -54 -144 -78q-48 24 -144 78q-80 47 -139 86q-5 88 -5 163t5 163q59 39 139 86q96 54 144 78q48 -24 144 -78q80 -47 139 -86q5 -88 5 -163
t-5 -163q-59 -39 -139 -86zM751 612q44 -27 81 -49q16 -9 45.5 -25t36.5 -20q-70 -31 -141 -56q-12 65 -22 150zM642 802q-70 52 -119 94q49 42 119 94q-2 -62 -2 -94t2 -94zM773 1330q71 -25 141 -56q-7 -4 -36.5 -20t-45.5 -25q-37 -22 -81 -49q10 85 22 150zM1216 1229
q-16 9 -45.5 25t-36.5 20q70 31 141 56q12 -65 22 -150q-44 27 -81 49zM842 1586q48 126 104 190q41 48 78 48t78 -48q56 -64 104 -190q27 -71 49 -162q-113 -40 -231 -95q-118 55 -231 95q22 91 49 162zM335 1084q-83 99 -112 185q-20 61 -3 91q29 51 164 51q125 0 298 -51
q-22 -115 -33 -247q-105 -73 -198 -152q-67 64 -116 123zM384 381q-135 0 -164 51q-17 30 3 91q29 86 112 185q49 59 116 123q93 -79 198 -152q11 -132 33 -247q-173 -51 -298 -51zM1206 206q-48 -126 -104 -190q-41 -48 -78 -48t-78 48q-56 64 -104 190q-27 71 -49 162
q113 40 231 95q118 -55 231 -95q-22 -91 -49 -162zM1825 523q20 -61 3 -91q-29 -51 -164 -51q-125 0 -298 51q22 115 33 247q105 73 198 152q67 -64 116 -123q83 -99 112 -185z" />
    </font>
</defs>
</svg>
